<svg width="1280" height="352" viewBox="0 0 1280 352" fill="none" xmlns="http://www.w3.org/2000/svg">
<g clip-path="url(#clip0)">
<path d="M2.73199 24.3837C0.670257 24.2686 4.31898 19.6855 0.0804334 21.5166L0.0804902 205.642C5.783 207.621 7.38147 207.794 7.76366 207.721C7.8102 207.974 8.34483 208.765 10.9302 210.939C14.9386 213.23 15.0538 211.169 19.0621 213.46C23.0705 215.752 27.3091 213.921 33.3792 216.327C35.4409 216.443 47.5812 221.256 49.7581 219.31C51.9349 217.363 56.0583 217.594 58.1201 217.709L62.2435 217.939L72.5523 218.515C76.6758 218.745 78.6224 220.921 82.7459 221.151L93.0546 221.727C101.417 220.126 105.77 216.234 107.602 220.471C107.487 222.533 111.61 222.763 115.734 222.993C119.857 223.223 125.697 229.753 142.191 230.673C144.253 230.789 148.492 228.957 148.376 231.019C150.323 233.195 154.332 235.487 156.393 235.602C158.34 237.778 164.64 236.062 168.764 236.292C170.825 236.408 175.064 234.576 175.064 234.576C193.735 233.551 181.249 234.922 193.85 231.49C195.912 231.605 200.15 229.774 202.097 231.95C205.99 236.303 210.344 232.411 214.352 234.702C216.529 232.756 218.591 232.871 220.653 232.986C220.653 232.986 243.217 236.314 247.57 232.421C249.747 230.475 253.756 232.767 255.817 232.882C291.097 230.716 272.196 235.864 313.546 236.105L323.855 236.68C323.855 236.68 325.917 236.795 328.094 234.849L332.217 235.079C334.164 237.256 334.279 235.194 342.526 235.655C346.534 237.946 352.95 234.169 359.135 234.514C361.312 232.568 365.55 230.737 367.612 230.852C369.674 230.967 367.727 228.791 376.089 227.19C384.451 225.589 386.283 229.827 390.521 227.996C409.883 214.602 413.546 223.078 419.961 219.301C422.023 219.416 428.323 217.7 428.208 219.761C430.04 223.999 432.216 222.053 436.225 224.344C450.312 231.334 456.842 225.495 466.691 234.316C468.637 236.492 470.814 234.546 476.999 234.892C509.987 236.733 493.263 239.935 511.819 240.971C520.066 241.431 518.004 241.316 519.951 243.493C524.074 243.723 530.029 248.191 532.091 248.306C534.153 248.421 536.214 248.536 538.161 250.713C545.948 259.418 548.47 251.288 566.45 262.631C576.989 259.084 578.936 261.26 585.121 261.605C593.368 262.066 589.129 263.897 597.376 264.357C601.5 264.588 599.323 266.534 603.446 266.764C611.693 267.224 605.278 271.002 613.525 271.462C613.41 273.524 623.949 269.976 623.949 269.976L632.196 270.437C640.558 268.836 648.575 273.419 656.937 271.818L669.307 272.509C671.369 272.624 681.793 271.138 683.854 271.253C690.04 271.599 745.477 278.829 768.271 278.034C776.633 276.433 766.324 275.857 789.003 277.124C793.127 277.354 795.073 279.53 799.312 277.699L805.497 278.044L809.621 278.275C815.691 280.681 817.983 276.674 828.176 279.311C832.3 279.541 830.353 277.364 834.477 277.595L853.032 278.631L859.218 278.976C863.341 279.206 869.641 277.49 875.827 277.835C886.135 278.411 881.667 284.365 908.7 281.739C916.946 282.199 941.227 291.826 949.704 288.163C953.828 288.394 958.066 286.562 962.075 288.854C966.083 291.145 974.675 285.422 984.869 288.059C986.931 288.174 989.107 286.228 995.178 288.634L1011.67 289.555C1013.73 289.67 1015.8 289.785 1017.97 287.839L1020.03 287.954C1028.28 288.415 1028.51 284.292 1032.63 284.522C1045 285.213 1040.77 287.044 1057.15 290.026C1059.21 290.141 1075.47 295.185 1077.53 295.3C1083.49 299.768 1104.1 300.919 1106.05 303.095C1110.29 301.264 1112.12 305.502 1116.25 305.732C1116.25 305.732 1118.42 303.786 1120.37 305.962C1126.32 310.43 1138.69 311.121 1140.87 309.175C1145.11 307.344 1181.88 315.6 1188.06 315.945C1194.36 314.229 1192.3 314.114 1196.42 314.344C1223 319.963 1275.95 324.412 1280.08 324.643L1280.08 243.642L1280.08 181.185C1275.95 180.955 1272.4 175.911 1266.33 173.505C1262.44 169.152 1258.2 170.983 1256.25 168.807C1254.31 166.63 1254.31 166.63 1250.18 166.4C1246.06 166.17 1243.88 168.116 1239.76 167.886L1237.7 167.771C1233.69 165.479 1231.51 167.425 1229.45 167.31L1223.26 166.965C1208.72 168.22 1217.19 164.558 1184.32 160.655C1182.26 160.54 1178.25 158.248 1171.95 159.964C1169.77 161.911 1163.7 159.504 1161.76 157.328C1159.7 157.213 1159.93 153.09 1153.74 152.745C1151.68 152.629 1141.49 149.993 1137.25 151.824C1135.07 153.77 1133.12 151.593 1129 151.363C1126.82 153.309 1122.81 151.018 1118.69 150.788C1116.51 152.734 1110.44 150.327 1110.44 150.327C1106.32 150.097 1104.37 147.921 1098.3 145.514C1094.07 147.345 1092.12 145.169 1092.23 143.107C1074.14 133.826 1086.05 142.762 1073.91 137.949C1071.85 137.834 1067.61 139.665 1063.6 137.373C1061.54 137.258 1049.28 134.506 1049.28 134.506C1047.22 134.391 1042.98 136.222 1038.97 133.931L1032.79 133.585L1030.73 133.47C1020.3 134.956 1000.15 125.56 995.907 127.391L993.845 127.276C991.784 127.161 987.775 124.869 985.714 124.754C983.767 122.577 981.82 120.401 967.273 121.657L954.902 120.966C928.1 119.47 948.717 120.621 932.108 121.761C921.799 121.186 921.684 123.247 915.614 120.84C882.051 129.305 886.405 125.413 865.672 126.323C865.557 128.384 863.61 126.208 861.434 128.154L851.125 127.579C849.063 127.463 845.17 123.111 843.108 122.995L830.738 122.305C826.614 122.075 826.499 124.136 822.375 123.906C810.005 123.215 820.199 125.852 801.643 124.816C801.643 124.816 801.528 126.877 793.281 126.417L780.91 125.726C770.717 123.089 758.231 124.46 756.17 124.345L743.799 123.654C739.676 123.424 733.605 121.017 725.358 120.557C702.909 115.168 715.05 119.982 688.362 116.424C684.239 116.194 682.292 114.017 682.292 114.017C680.23 113.902 676.107 113.672 674.16 111.495C672.214 109.319 668.09 109.089 663.967 108.859C651.711 106.107 651.826 104.045 649.649 105.991L643.464 105.646C643.464 105.646 637.164 107.362 628.802 108.963C626.74 108.848 618.608 106.326 616.546 106.211L614.485 106.096C610.246 107.927 608.415 103.689 606.123 107.697C601.769 111.589 601.999 107.467 597.876 107.236C579.09 110.323 587.567 106.661 581.382 106.316C575.196 105.97 571.533 97.4948 569.356 99.441C565.118 101.272 562.941 103.218 560.994 101.042C558.933 100.927 558.818 102.988 554.809 100.697C544.731 95.9984 546.562 100.236 540.607 95.7682C532.59 91.1851 536.714 91.4153 530.414 93.1313L528.237 95.0775L526.175 94.9624L519.99 94.6171C517.928 94.502 518.043 92.4407 515.981 92.3256L511.858 92.0953C509.796 91.9802 510.141 85.7963 503.841 87.5123L501.779 87.3972C499.833 85.2207 493.187 93.1207 491.471 86.8216C485.17 88.5376 485.17 88.5376 483.224 86.3612C483.224 86.3612 477.153 83.9546 474.977 85.9008L470.853 85.6706C466.615 87.5017 464.668 85.3252 460.544 85.095C458.253 89.1026 452.067 88.7572 450.121 86.5808C443.82 88.2968 443.705 90.3581 441.759 88.1817C439.697 88.0666 435.458 89.8977 433.396 89.7826C426.981 93.5599 427.211 89.4373 422.973 91.2684L418.849 91.0382L416.788 90.9231C412.779 88.6315 413.124 82.4476 394.569 81.4116C382.198 80.721 390.56 79.1201 382.313 78.6596C380.021 82.6672 369.713 82.0916 363.758 77.6237C361.696 77.5086 361.581 79.5699 359.519 79.4548C357.457 79.3397 355.28 81.2859 353.219 81.1708C346.918 82.8868 347.149 78.7641 342.91 80.5953C340.848 80.4802 338.902 78.3037 336.725 80.2499C334.433 84.2575 330.54 79.9046 326.186 83.7971C319.771 87.5744 301.33 84.4771 293.083 84.0167C288.959 83.7864 291.136 81.8402 285.066 79.4336C281.058 77.142 281.058 77.142 276.934 76.9118C270.634 78.6278 272.926 74.6203 268.687 76.4514C264.449 78.2825 260.325 78.0523 256.202 77.8221C254.14 77.707 252.078 77.5919 252.193 75.5305C243.831 77.1314 231.576 74.3795 229.514 74.2644C227.567 72.0879 223.329 73.919 219.205 73.6888C215.082 73.4586 214.852 77.5813 204.658 74.9444C202.596 74.8293 204.773 72.8831 202.826 70.7067C200.765 70.5916 202.941 68.6453 196.641 70.3613L186.332 69.7858C182.209 69.5556 176.254 65.0876 176.484 60.965C172.361 60.7348 163.768 66.4583 145.903 53.0544C143.841 52.9393 137.311 58.7779 133.418 54.4251C129.409 52.1336 127.232 54.0798 125.401 49.842C123.569 45.6043 121.623 43.4278 117.269 47.3203C112.915 51.2127 111.084 46.9749 106.73 50.8674C102.376 54.7598 100.43 52.5834 90.1211 52.0079L83.9358 51.6625C77.6355 53.3785 64.9198 58.8719 65.6103 46.5039L57.3633 46.0435C51.5234 39.5142 17.3846 58.2857 14.412 37.4423C4.33338 32.7441 8.91718 24.729 2.73199 24.3837Z" fill="#1565E5"/>
<path d="M2.73199 24.3839C0.670257 24.2688 4.31898 19.6858 0.0804334 21.5169L0.0804902 205.643C5.783 207.622 7.38147 207.794 7.76366 207.722C7.8102 207.974 8.34483 208.765 10.9302 210.939C14.9386 213.23 15.0538 211.169 19.0621 213.461C23.0705 215.752 27.3091 213.921 33.3792 216.328C35.4409 216.443 47.5812 221.256 49.7581 219.31C51.9349 217.364 56.0583 217.594 58.1201 217.709L62.2435 217.939L72.5523 218.515C76.6758 218.745 78.6224 220.921 82.7459 221.152L93.0546 221.727C101.417 220.126 105.77 216.234 107.602 220.472C107.487 222.533 111.61 222.763 115.734 222.993C119.857 223.224 125.697 229.753 142.191 230.674C144.253 230.789 148.492 228.958 148.376 231.019C150.323 233.195 154.332 235.487 156.393 235.602C158.34 237.779 164.64 236.063 168.764 236.293C170.825 236.408 175.064 234.577 175.064 234.577C193.735 233.551 181.249 234.922 193.85 231.49C195.912 231.605 200.15 229.774 202.097 231.95C205.99 236.303 210.344 232.411 214.352 234.702C216.529 232.756 218.591 232.871 220.653 232.986C220.653 232.986 243.217 236.314 247.57 232.422C249.747 230.475 253.756 232.767 255.817 232.882C291.097 230.716 272.196 235.864 313.546 236.105L323.855 236.68C323.855 236.68 325.917 236.796 328.094 234.849L332.217 235.08C334.164 237.256 334.279 235.195 342.526 235.655C346.534 237.947 352.95 234.169 359.135 234.515C361.312 232.568 365.55 230.737 367.612 230.852C369.674 230.968 367.727 228.791 376.089 227.19C384.451 225.589 386.283 229.827 390.521 227.996C409.883 214.603 413.546 223.078 419.961 219.301C422.023 219.416 428.323 217.7 428.208 219.761C430.04 223.999 432.216 222.053 436.225 224.344C450.312 231.334 456.842 225.495 466.691 234.316C468.637 236.493 470.814 234.546 476.999 234.892C509.987 236.733 493.263 239.935 511.819 240.971C520.066 241.432 518.004 241.317 519.951 243.493C524.074 243.723 530.029 248.191 532.091 248.306C534.153 248.421 536.214 248.536 538.161 250.713C545.948 259.419 548.47 251.288 566.45 262.631C576.989 259.084 578.936 261.26 585.121 261.606C593.368 262.066 589.129 263.897 597.376 264.358C601.5 264.588 599.323 266.534 603.446 266.764C611.693 267.225 605.278 271.002 613.525 271.462C613.41 273.524 623.949 269.977 623.949 269.977L632.196 270.437C640.558 268.836 648.575 273.419 656.937 271.818L669.307 272.509C671.369 272.624 681.793 271.138 683.854 271.253C690.04 271.599 745.477 278.829 768.271 278.034C776.633 276.433 766.324 275.858 789.003 277.124C793.127 277.354 795.073 279.531 799.312 277.699L805.497 278.045L809.621 278.275C815.691 280.682 817.983 276.674 828.176 279.311C832.3 279.541 830.353 277.365 834.477 277.595L853.032 278.631L859.218 278.976C863.341 279.206 869.641 277.49 875.827 277.836C886.135 278.411 881.667 284.365 908.7 281.739C916.946 282.199 941.227 291.826 949.704 288.164C953.828 288.394 958.066 286.563 962.075 288.854C966.083 291.146 974.675 285.422 984.869 288.059C986.931 288.174 989.107 286.228 995.178 288.635L1011.67 289.555C1013.73 289.671 1015.8 289.786 1017.97 287.839L1020.03 287.955C1028.28 288.415 1028.51 284.292 1032.63 284.523C1045 285.213 1040.77 287.044 1057.15 290.026C1059.21 290.142 1075.47 295.185 1077.53 295.3C1083.49 299.768 1104.1 300.919 1106.05 303.096C1110.29 301.265 1112.12 305.502 1116.25 305.732C1116.25 305.732 1118.42 303.786 1120.37 305.963C1126.32 310.431 1138.69 311.121 1140.87 309.175C1145.11 307.344 1181.88 315.6 1188.06 315.945C1194.36 314.229 1192.3 314.114 1196.42 314.344C1223 319.963 1275.95 324.413 1280.08 324.643L1280.08 243.643L1280.08 181.185C1275.95 180.955 1272.4 175.912 1266.33 173.505C1262.44 169.152 1258.2 170.983 1256.25 168.807C1254.31 166.63 1254.31 166.63 1250.18 166.4C1246.06 166.17 1243.88 168.116 1239.76 167.886L1237.7 167.771C1233.69 165.479 1231.51 167.425 1229.45 167.31L1223.26 166.965C1208.72 168.221 1217.19 164.558 1184.32 160.655C1182.26 160.54 1178.25 158.249 1171.95 159.965C1169.77 161.911 1163.7 159.504 1161.76 157.328C1159.7 157.213 1159.93 153.09 1153.74 152.745C1151.68 152.63 1141.49 149.993 1137.25 151.824C1135.07 153.77 1133.12 151.594 1129 151.364C1126.82 153.31 1122.81 151.018 1118.69 150.788C1116.51 152.734 1110.44 150.328 1110.44 150.328C1106.32 150.097 1104.37 147.921 1098.3 145.514C1094.07 147.345 1092.12 145.169 1092.23 143.108C1074.14 133.826 1086.05 142.762 1073.91 137.949C1071.85 137.834 1067.61 139.665 1063.6 137.373C1061.54 137.258 1049.28 134.506 1049.28 134.506C1047.22 134.391 1042.98 136.222 1038.97 133.931L1032.79 133.586L1030.73 133.47C1020.3 134.956 1000.15 125.56 995.907 127.391L993.845 127.276C991.784 127.161 987.775 124.869 985.714 124.754C983.767 122.578 981.82 120.401 967.273 121.657L954.902 120.966C928.1 119.47 948.717 120.621 932.108 121.761C921.799 121.186 921.684 123.247 915.614 120.841C882.051 129.305 886.405 125.413 865.672 126.323C865.557 128.385 863.61 126.208 861.434 128.154L851.125 127.579C849.063 127.464 845.17 123.111 843.108 122.996L830.738 122.305C826.614 122.075 826.499 124.136 822.375 123.906C810.005 123.215 820.199 125.852 801.643 124.816C801.643 124.816 801.528 126.878 793.281 126.417L780.91 125.726C770.717 123.09 758.231 124.46 756.17 124.345L743.799 123.655C739.676 123.424 733.605 121.018 725.358 120.557C702.909 115.168 715.05 119.982 688.362 116.424C684.239 116.194 682.292 114.017 682.292 114.017C680.23 113.902 676.107 113.672 674.16 111.496C672.214 109.319 668.09 109.089 663.967 108.859C651.711 106.107 651.826 104.046 649.649 105.992L643.464 105.646C643.464 105.646 637.164 107.362 628.802 108.963C626.74 108.848 618.608 106.326 616.546 106.211L614.485 106.096C610.246 107.927 608.415 103.69 606.123 107.697C601.769 111.59 601.999 107.467 597.876 107.237C579.09 110.323 587.567 106.661 581.382 106.316C575.196 105.971 571.533 97.495 569.356 99.4412C565.118 101.272 562.941 103.219 560.994 101.042C558.933 100.927 558.818 102.988 554.809 100.697C544.731 95.9986 546.562 100.236 540.607 95.7684C532.59 91.1853 536.714 91.4155 530.414 93.1315L528.237 95.0778L526.175 94.9627L519.99 94.6173C517.928 94.5022 518.043 92.4409 515.981 92.3258L511.858 92.0956C509.796 91.9805 510.141 85.7965 503.841 87.5125L501.779 87.3974C499.833 85.221 493.187 93.121 491.471 86.8219C485.17 88.5379 485.17 88.5379 483.224 86.3614C483.224 86.3614 477.153 83.9548 474.977 85.901L470.853 85.6708C466.615 87.5019 464.668 85.3255 460.544 85.0953C458.253 89.1028 452.067 88.7575 450.121 86.5811C443.82 88.2971 443.705 90.3584 441.759 88.1819C439.697 88.0668 435.458 89.898 433.396 89.7828C426.981 93.5602 427.211 89.4375 422.973 91.2686L418.849 91.0384L416.788 90.9233C412.779 88.6318 413.124 82.4478 394.569 81.4119C382.198 80.7212 390.56 79.1203 382.313 78.6599C380.021 82.6674 369.713 82.0919 363.758 77.6239C361.696 77.5088 361.581 79.5701 359.519 79.455C357.457 79.3399 355.28 81.2861 353.219 81.171C346.918 82.887 347.149 78.7644 342.91 80.5955C340.848 80.4804 338.902 78.304 336.725 80.2502C334.433 84.2577 330.54 79.9049 326.186 83.7973C319.771 87.5746 301.33 84.4773 293.083 84.0169C288.959 83.7867 291.136 81.8405 285.066 79.4338C281.058 77.1423 281.058 77.1423 276.934 76.9121C270.634 78.6281 272.926 74.6205 268.687 76.4516C264.449 78.2828 260.325 78.0525 256.202 77.8223C254.14 77.7072 252.078 77.5921 252.193 75.5308C243.831 77.1317 231.576 74.3797 229.514 74.2646C227.567 72.0882 223.329 73.9193 219.205 73.6891C215.082 73.4589 214.852 77.5815 204.658 74.9446C202.596 74.8295 204.773 72.8833 202.826 70.7069C200.765 70.5918 202.941 68.6456 196.641 70.3616L186.332 69.786C182.209 69.5558 176.254 65.0879 176.484 60.9652C172.361 60.735 163.768 66.4586 145.903 53.0547C143.841 52.9395 137.311 58.7782 133.418 54.4253C129.409 52.1338 127.232 54.08 125.401 49.8423C123.569 45.6045 121.623 43.4281 117.269 47.3205C112.915 51.2129 111.084 46.9752 106.73 50.8676C102.376 54.7601 100.43 52.5836 90.1211 52.0081L83.9358 51.6628C77.6355 53.3788 64.9198 58.8721 65.6103 46.5042L57.3633 46.0437C51.5234 39.5145 17.3846 58.286 14.412 37.4425C4.33338 32.7443 8.91718 24.7293 2.73199 24.3839Z" fill="#272727" fill-opacity="0.3"/>
<path d="M2.73199 30.027C0.670257 29.9119 4.31898 25.3288 0.0804334 27.1599L0.0804902 211.286C5.783 213.265 7.38147 213.437 7.76366 213.365C7.8102 213.617 8.34483 214.408 10.9302 216.582C14.9386 218.874 15.0538 216.812 19.0621 219.104C23.0705 221.395 27.3091 219.564 33.3792 221.971C35.4409 222.086 47.5812 226.899 49.7581 224.953C51.9349 223.007 56.0583 223.237 58.1201 223.352L62.2435 223.582L72.5523 224.158C76.6758 224.388 78.6224 226.564 82.7459 226.795L93.0546 227.37C101.417 225.769 105.77 221.877 107.602 226.115C107.487 228.176 111.61 228.406 115.734 228.636C119.857 228.867 125.697 235.396 142.191 236.317C144.253 236.432 148.492 234.601 148.376 236.662C150.323 238.839 154.332 241.13 156.393 241.245C158.34 243.422 164.64 241.706 168.764 241.936C170.825 242.051 175.064 240.22 175.064 240.22C193.735 239.194 181.249 240.565 193.85 237.133C195.912 237.248 200.15 235.417 202.097 237.594C205.99 241.946 210.344 238.054 214.352 240.346C216.529 238.399 218.591 238.514 220.653 238.629C220.653 238.629 243.217 241.957 247.57 238.065C249.747 236.118 253.756 238.41 255.817 238.525C291.097 236.359 272.196 241.507 313.546 241.748L323.855 242.324C323.855 242.324 325.917 242.439 328.094 240.492L332.217 240.723C334.164 242.899 334.279 240.838 342.526 241.298C346.534 243.59 352.95 239.812 359.135 240.158C361.312 238.211 365.55 236.38 367.612 236.495C369.674 236.611 367.727 234.434 376.089 232.833C384.451 231.232 386.283 235.47 390.521 233.639C409.883 220.246 413.546 228.721 419.961 224.944C422.023 225.059 428.323 223.343 428.208 225.404C430.04 229.642 432.216 227.696 436.225 229.987C450.312 236.977 456.842 231.138 466.691 239.959C468.637 242.136 470.814 240.19 476.999 240.535C509.987 242.377 493.263 245.578 511.819 246.614C520.066 247.075 518.004 246.96 519.951 249.136C524.074 249.366 530.029 253.834 532.091 253.949C534.153 254.064 536.214 254.18 538.161 256.356C545.948 265.062 548.47 256.932 566.45 268.274C576.989 264.727 578.936 266.903 585.121 267.249C593.368 267.709 589.129 269.54 597.376 270.001C601.5 270.231 599.323 272.177 603.446 272.407C611.693 272.868 605.278 276.645 613.525 277.106C613.41 279.167 623.949 275.62 623.949 275.62L632.196 276.08C640.558 274.479 648.575 279.062 656.937 277.461L669.307 278.152C671.369 278.267 681.793 276.781 683.854 276.897C690.04 277.242 745.477 284.472 768.271 283.677C776.633 282.076 766.324 281.501 789.003 282.767C793.127 282.997 795.073 285.174 799.312 283.342L805.497 283.688L809.621 283.918C815.691 286.325 817.983 282.317 828.176 284.954C832.3 285.184 830.353 283.008 834.477 283.238L853.032 284.274L859.218 284.619C863.341 284.849 869.641 283.133 875.827 283.479C886.135 284.054 881.667 290.008 908.7 287.382C916.946 287.842 941.227 297.469 949.704 293.807C953.828 294.037 958.066 292.206 962.075 294.497C966.083 296.789 974.675 291.065 984.869 293.702C986.931 293.817 989.107 291.871 995.178 294.278L1011.67 295.198C1013.73 295.314 1015.8 295.429 1017.97 293.482L1020.03 293.598C1028.28 294.058 1028.51 289.935 1032.63 290.166C1045 290.856 1040.77 292.687 1057.15 295.67C1059.21 295.785 1075.47 300.828 1077.53 300.943C1083.49 305.411 1104.1 306.562 1106.05 308.739C1110.29 306.908 1112.12 311.145 1116.25 311.376C1116.25 311.376 1118.42 309.429 1120.37 311.606C1126.32 316.074 1138.69 316.764 1140.87 314.818C1145.11 312.987 1181.88 321.243 1188.06 321.588C1194.36 319.872 1192.3 319.757 1196.42 319.987C1223 325.606 1275.95 330.056 1280.08 330.286L1280.08 249.286L1280.08 186.828C1275.95 186.598 1272.4 181.555 1266.33 179.148C1262.44 174.795 1258.2 176.626 1256.25 174.45C1254.31 172.273 1254.31 172.273 1250.18 172.043C1246.06 171.813 1243.88 173.759 1239.76 173.529L1237.7 173.414C1233.69 171.122 1231.51 173.069 1229.45 172.953L1223.26 172.608C1208.72 173.864 1217.19 170.201 1184.32 166.298C1182.26 166.183 1178.25 163.892 1171.95 165.608C1169.77 167.554 1163.7 165.147 1161.76 162.971C1159.7 162.856 1159.93 158.733 1153.74 158.388C1151.68 158.273 1141.49 155.636 1137.25 157.467C1135.07 159.413 1133.12 157.237 1129 157.007C1126.82 158.953 1122.81 156.661 1118.69 156.431C1116.51 158.377 1110.44 155.971 1110.44 155.971C1106.32 155.74 1104.37 153.564 1098.3 151.157C1094.07 152.988 1092.12 150.812 1092.23 148.751C1074.14 139.469 1086.05 148.405 1073.91 143.592C1071.85 143.477 1067.61 145.308 1063.6 143.017C1061.54 142.901 1049.28 140.149 1049.28 140.149C1047.22 140.034 1042.98 141.865 1038.97 139.574L1032.79 139.229L1030.73 139.114C1020.3 140.599 1000.15 131.203 995.907 133.034L993.845 132.919C991.784 132.804 987.775 130.512 985.714 130.397C983.767 128.221 981.82 126.044 967.273 127.3L954.902 126.609C928.1 125.113 948.717 126.264 932.108 127.404C921.799 126.829 921.684 128.89 915.614 126.484C882.051 134.948 886.405 131.056 865.672 131.966C865.557 134.028 863.61 131.851 861.434 133.797L851.125 133.222C849.063 133.107 845.17 128.754 843.108 128.639L830.738 127.948C826.614 127.718 826.499 129.779 822.375 129.549C810.005 128.858 820.199 131.495 801.643 130.459C801.643 130.459 801.528 132.521 793.281 132.06L780.91 131.37C770.717 128.733 758.231 130.103 756.17 129.988L743.799 129.298C739.676 129.067 733.605 126.661 725.358 126.2C702.909 120.812 715.05 125.625 688.362 122.067C684.239 121.837 682.292 119.66 682.292 119.66C680.23 119.545 676.107 119.315 674.16 117.139C672.214 114.962 668.09 114.732 663.967 114.502C651.711 111.75 651.826 109.689 649.649 111.635L643.464 111.289C643.464 111.289 637.164 113.005 628.802 114.606C626.74 114.491 618.608 111.969 616.546 111.854L614.485 111.739C610.246 113.57 608.415 109.333 606.123 113.34C601.769 117.233 601.999 113.11 597.876 112.88C579.09 115.966 587.567 112.304 581.382 111.959C575.196 111.614 571.533 103.138 569.356 105.084C565.118 106.915 562.941 108.862 560.994 106.685C558.933 106.57 558.818 108.631 554.809 106.34C544.731 101.642 546.562 105.879 540.607 101.411C532.59 96.8284 536.714 97.0586 530.414 98.7746L528.237 100.721L526.175 100.606L519.99 100.26C517.928 100.145 518.043 98.084 515.981 97.9689L511.858 97.7387C509.796 97.6235 510.141 91.4396 503.841 93.1556L501.779 93.0405C499.833 90.864 493.187 98.764 491.471 92.4649C485.17 94.1809 485.17 94.1809 483.224 92.0045C483.224 92.0045 477.153 89.5979 474.977 91.5441L470.853 91.3139C466.615 93.145 464.668 90.9686 460.544 90.7383C458.253 94.7459 452.067 94.4006 450.121 92.2241C443.82 93.9401 443.705 96.0014 441.759 93.825C439.697 93.7099 435.458 95.541 433.396 95.4259C426.981 99.2032 427.211 95.0806 422.973 96.9117L418.849 96.6815L416.788 96.5664C412.779 94.2748 413.124 88.0909 394.569 87.0549C382.198 86.3643 390.56 84.7634 382.313 84.303C380.021 88.3105 369.713 87.735 363.758 83.267C361.696 83.1519 361.581 85.2132 359.519 85.0981C357.457 84.983 355.28 86.9292 353.219 86.8141C346.918 88.5301 347.149 84.4075 342.91 86.2386C340.848 86.1235 338.902 83.947 336.725 85.8933C334.433 89.9008 330.54 85.5479 326.186 89.4404C319.771 93.2177 301.33 90.1204 293.083 89.66C288.959 89.4298 291.136 87.4835 285.066 85.0769C281.058 82.7854 281.058 82.7854 276.934 82.5551C270.634 84.2711 272.926 80.2636 268.687 82.0947C264.449 83.9258 260.325 83.6956 256.202 83.4654C254.14 83.3503 252.078 83.2352 252.193 81.1739C243.831 82.7748 231.576 80.0228 229.514 79.9077C227.567 77.7312 223.329 79.5624 219.205 79.3321C215.082 79.1019 214.852 83.2246 204.658 80.5877C202.596 80.4726 204.773 78.5264 202.826 76.35C200.765 76.2349 202.941 74.2886 196.641 76.0046L186.332 75.4291C182.209 75.1989 176.254 70.7309 176.484 66.6083C172.361 66.3781 163.768 72.1016 145.903 58.6977C143.841 58.5826 137.311 64.4213 133.418 60.0684C129.409 57.7769 127.232 59.7231 125.401 55.4853C123.569 51.2476 121.623 49.0711 117.269 52.9636C112.915 56.856 111.084 52.6183 106.73 56.5107C102.376 60.4031 100.43 58.2267 90.1211 57.6512L83.9358 57.3058C77.6355 59.0218 64.9198 64.5152 65.6103 52.1472L57.3633 51.6868C51.5234 45.1575 17.3846 63.929 14.412 43.0856C4.33338 38.3874 8.91718 30.3723 2.73199 30.027Z" fill="#1565E5"/>
</g>
<defs>
<clipPath id="clip0">
<rect width="1280" height="352" fill="white" transform="matrix(-1 0 0 1 1280 0)"/>
</clipPath>
</defs>
</svg>
