<svg width="1280" height="352" viewBox="0 0 1280 352" fill="none" xmlns="http://www.w3.org/2000/svg">
<g clip-path="url(#clip0)">
<path d="M1277.27 14.3839C1279.33 14.2688 1275.68 9.68577 1279.92 11.5169L1279.92 195.643C1274.22 197.622 1272.62 197.794 1272.24 197.722C1272.19 197.974 1271.66 198.765 1269.07 200.939C1265.06 203.23 1264.95 201.169 1260.94 203.461C1256.93 205.752 1252.69 203.921 1246.62 206.328C1244.56 206.443 1232.42 211.256 1230.24 209.31C1228.07 207.364 1223.94 207.594 1221.88 207.709L1217.76 207.939L1207.45 208.515C1203.32 208.745 1201.38 210.921 1197.25 211.152L1186.95 211.727C1178.58 210.126 1174.23 206.234 1172.4 210.472C1172.51 212.533 1168.39 212.763 1164.27 212.993C1160.14 213.224 1154.3 219.753 1137.81 220.674C1135.75 220.789 1131.51 218.958 1131.62 221.019C1129.68 223.195 1125.67 225.487 1123.61 225.602C1121.66 227.779 1115.36 226.063 1111.24 226.293C1109.17 226.408 1104.94 224.577 1104.94 224.577C1086.27 223.551 1098.75 224.922 1086.15 221.49C1084.09 221.605 1079.85 219.774 1077.9 221.95C1074.01 226.303 1069.66 222.411 1065.65 224.702C1063.47 222.756 1061.41 222.871 1059.35 222.986C1059.35 222.986 1036.78 226.314 1032.43 222.422C1030.25 220.475 1026.24 222.767 1024.18 222.882C988.903 220.716 1007.8 225.864 966.454 226.105L956.145 226.68C956.145 226.68 954.083 226.796 951.906 224.849L947.783 225.08C945.836 227.256 945.721 225.195 937.474 225.655C933.466 227.947 927.05 224.169 920.865 224.515C918.688 222.568 914.45 220.737 912.388 220.852C910.326 220.968 912.273 218.791 903.911 217.19C895.549 215.589 893.717 219.827 889.479 217.996C870.117 204.603 866.454 213.078 860.039 209.301C857.977 209.416 851.677 207.7 851.792 209.761C849.96 213.999 847.784 212.053 843.775 214.344C829.688 221.334 823.158 215.495 813.309 224.316C811.363 226.493 809.186 224.546 803.001 224.892C770.013 226.733 786.737 229.935 768.181 230.971C759.934 231.432 761.996 231.317 760.049 233.493C755.926 233.723 749.971 238.191 747.909 238.306C745.847 238.421 743.786 238.536 741.839 240.713C734.052 249.419 731.53 241.288 713.55 252.631C703.011 249.084 701.064 251.26 694.879 251.606C686.632 252.066 690.871 253.897 682.624 254.358C678.5 254.588 680.677 256.534 676.554 256.764C668.307 257.225 674.722 261.002 666.475 261.462C666.59 263.524 656.051 259.977 656.051 259.977L647.804 260.437C639.442 258.836 631.425 263.419 623.063 261.818L610.693 262.509C608.631 262.624 598.207 261.138 596.146 261.253C589.96 261.599 534.523 268.829 511.729 268.034C503.367 266.433 513.676 265.858 490.997 267.124C486.873 267.354 484.927 269.531 480.688 267.699L474.503 268.045L470.379 268.275C464.309 270.682 462.017 266.674 451.824 269.311C447.7 269.541 449.647 267.365 445.523 267.595L426.968 268.631L420.782 268.976C416.659 269.206 410.359 267.49 404.173 267.836C393.865 268.411 398.333 274.365 371.3 271.739C363.054 272.199 338.773 281.826 330.296 278.164C326.172 278.394 321.934 276.563 317.925 278.854C313.917 281.146 305.325 275.422 295.131 278.059C293.069 278.174 290.893 276.228 284.822 278.635L268.328 279.555C266.267 279.671 264.205 279.786 262.028 277.839L259.966 277.955C251.719 278.415 251.489 274.292 247.366 274.523C234.995 275.213 239.234 277.044 222.855 280.026C220.793 280.142 204.529 285.185 202.468 285.3C196.513 289.768 175.895 290.919 173.949 293.096C169.71 291.265 167.878 295.502 163.755 295.732C163.755 295.732 161.578 293.786 159.631 295.963C153.676 300.431 141.306 301.121 139.129 299.175C134.891 297.344 98.1245 305.6 91.9392 305.945C85.6389 304.229 87.7007 304.114 83.5772 304.344C57.0047 309.963 4.04591 314.413 -0.0775794 314.643L-0.0781251 233.643L-0.0775789 171.185C4.04591 170.955 7.59891 165.912 13.6691 163.505C17.5624 159.152 21.8009 160.983 23.7476 158.807C25.6943 156.63 25.6943 156.63 29.8177 156.4C33.9412 156.17 36.1181 158.116 40.2415 157.886L42.3033 157.771C46.3117 155.479 48.4885 157.425 50.5503 157.31L56.7355 156.965C71.2828 158.221 62.8056 154.558 95.6784 150.655C97.7402 150.54 101.749 148.249 108.049 149.965C110.226 151.911 116.296 149.504 118.242 147.328C120.304 147.213 120.074 143.09 126.259 142.745C128.321 142.63 138.515 139.993 142.753 141.824C144.93 143.77 146.877 141.594 151 141.364C153.177 143.31 157.185 141.018 161.309 140.788C163.486 142.734 169.556 140.328 169.556 140.328C173.679 140.097 175.626 137.921 181.696 135.514C185.935 137.345 187.881 135.169 187.766 133.108C205.862 123.826 193.952 132.762 206.092 127.949C208.154 127.834 212.392 129.665 216.401 127.373C218.462 127.258 230.718 124.506 230.718 124.506C232.779 124.391 237.018 126.222 241.026 123.931L247.212 123.586L249.273 123.47C259.697 124.956 279.854 115.56 284.093 117.391L286.155 117.276C288.216 117.161 292.225 114.869 294.286 114.754C296.233 112.578 298.18 110.401 312.727 111.657L325.098 110.966C351.9 109.47 331.283 110.621 347.892 111.761C358.201 111.186 358.316 113.247 364.386 110.841C397.949 119.305 393.595 115.413 414.328 116.323C414.443 118.385 416.39 116.208 418.566 118.154L428.875 117.579C430.937 117.464 434.83 113.111 436.892 112.996L449.262 112.305C453.386 112.075 453.501 114.136 457.625 113.906C469.995 113.215 459.801 115.852 478.357 114.816C478.357 114.816 478.472 116.878 486.719 116.417L499.09 115.726C509.283 113.09 521.769 114.46 523.83 114.345L536.201 113.655C540.324 113.424 546.395 111.018 554.642 110.557C577.091 105.168 564.95 109.982 591.638 106.424C595.761 106.194 597.708 104.017 597.708 104.017C599.77 103.902 603.893 103.672 605.84 101.496C607.786 99.3192 611.91 99.089 616.033 98.8588C628.289 96.1068 628.174 94.0455 630.351 95.9917L636.536 95.6464C636.536 95.6464 642.836 97.3624 651.198 98.9633C653.26 98.8482 661.392 96.3264 663.454 96.2113L665.515 96.0962C669.754 97.9273 671.585 93.6896 673.877 97.6971C678.231 101.59 678.001 97.4669 682.124 97.2367C700.91 100.323 692.433 96.6612 698.618 96.3158C704.804 95.9705 708.467 87.495 710.644 89.4412C714.882 91.2723 717.059 93.2186 719.006 91.0421C721.067 90.927 721.182 92.9883 725.191 90.6968C735.269 85.9986 733.438 90.2364 739.393 85.7684C747.41 81.1853 743.286 81.4155 749.586 83.1315L751.763 85.0778L753.825 84.9627L760.01 84.6173C762.072 84.5022 761.957 82.4409 764.019 82.3258L768.142 82.0956C770.204 81.9805 769.859 75.7965 776.159 77.5125L778.221 77.3974C780.167 75.221 786.813 83.121 788.529 76.8219C794.83 78.5379 794.83 78.5379 796.776 76.3614C796.776 76.3614 802.847 73.9548 805.023 75.901L809.147 75.6708C813.385 77.5019 815.332 75.3255 819.456 75.0953C821.747 79.1028 827.933 78.7575 829.879 76.5811C836.18 78.2971 836.295 80.3584 838.241 78.1819C840.303 78.0668 844.542 79.898 846.604 79.7828C853.019 83.5602 852.789 79.4375 857.027 81.2686L861.151 81.0384L863.212 80.9233C867.221 78.6318 866.876 72.4478 885.431 71.4119C897.802 70.7212 889.44 69.1203 897.687 68.6599C899.979 72.6674 910.287 72.0919 916.242 67.6239C918.304 67.5088 918.419 69.5701 920.481 69.455C922.543 69.3399 924.72 71.2861 926.781 71.171C933.082 72.887 932.851 68.7644 937.09 70.5955C939.152 70.4804 941.098 68.304 943.275 70.2502C945.567 74.2577 949.46 69.9049 953.814 73.7973C960.229 77.5746 978.67 74.4773 986.917 74.0169C991.041 73.7867 988.864 71.8405 994.934 69.4338C998.942 67.1423 998.942 67.1423 1003.07 66.9121C1009.37 68.6281 1007.07 64.6205 1011.31 66.4516C1015.55 68.2828 1019.67 68.0525 1023.8 67.8223C1025.86 67.7072 1027.92 67.5921 1027.81 65.5308C1036.17 67.1317 1048.42 64.3797 1050.49 64.2646C1052.43 62.0882 1056.67 63.9193 1060.79 63.6891C1064.92 63.4589 1065.15 67.5815 1075.34 64.9446C1077.4 64.8295 1075.23 62.8833 1077.17 60.7069C1079.24 60.5918 1077.06 58.6456 1083.36 60.3616L1093.67 59.786C1097.79 59.5558 1103.75 55.0879 1103.52 50.9652C1107.64 50.735 1116.23 56.4586 1134.1 43.0547C1136.16 42.9395 1142.69 48.7782 1146.58 44.4253C1150.59 42.1338 1152.77 44.08 1154.6 39.8423C1156.43 35.6045 1158.38 33.4281 1162.73 37.3205C1167.08 41.2129 1168.92 36.9752 1173.27 40.8676C1177.62 44.7601 1179.57 42.5836 1189.88 42.0081L1196.06 41.6628C1202.36 43.3788 1215.08 48.8721 1214.39 36.5042L1222.64 36.0437C1228.48 29.5145 1262.62 48.286 1265.59 27.4425C1275.67 22.7443 1271.08 14.7293 1277.27 14.3839Z" fill="white"/>
<path d="M1277.27 14.3839C1279.33 14.2688 1275.68 9.68577 1279.92 11.5169L1279.92 195.643C1274.22 197.622 1272.62 197.794 1272.24 197.722C1272.19 197.974 1271.66 198.765 1269.07 200.939C1265.06 203.23 1264.95 201.169 1260.94 203.461C1256.93 205.752 1252.69 203.921 1246.62 206.328C1244.56 206.443 1232.42 211.256 1230.24 209.31C1228.07 207.364 1223.94 207.594 1221.88 207.709L1217.76 207.939L1207.45 208.515C1203.32 208.745 1201.38 210.921 1197.25 211.152L1186.95 211.727C1178.58 210.126 1174.23 206.234 1172.4 210.472C1172.51 212.533 1168.39 212.763 1164.27 212.993C1160.14 213.224 1154.3 219.753 1137.81 220.674C1135.75 220.789 1131.51 218.958 1131.62 221.019C1129.68 223.195 1125.67 225.487 1123.61 225.602C1121.66 227.779 1115.36 226.063 1111.24 226.293C1109.17 226.408 1104.94 224.577 1104.94 224.577C1086.27 223.551 1098.75 224.922 1086.15 221.49C1084.09 221.605 1079.85 219.774 1077.9 221.95C1074.01 226.303 1069.66 222.411 1065.65 224.702C1063.47 222.756 1061.41 222.871 1059.35 222.986C1059.35 222.986 1036.78 226.314 1032.43 222.422C1030.25 220.475 1026.24 222.767 1024.18 222.882C988.903 220.716 1007.8 225.864 966.454 226.105L956.145 226.68C956.145 226.68 954.083 226.796 951.906 224.849L947.783 225.08C945.836 227.256 945.721 225.195 937.474 225.655C933.466 227.947 927.05 224.169 920.865 224.515C918.688 222.568 914.45 220.737 912.388 220.852C910.326 220.968 912.273 218.791 903.911 217.19C895.549 215.589 893.717 219.827 889.479 217.996C870.117 204.603 866.454 213.078 860.039 209.301C857.977 209.416 851.677 207.7 851.792 209.761C849.96 213.999 847.784 212.053 843.775 214.344C829.688 221.334 823.158 215.495 813.309 224.316C811.363 226.493 809.186 224.546 803.001 224.892C770.013 226.733 786.737 229.935 768.181 230.971C759.934 231.432 761.996 231.317 760.049 233.493C755.926 233.723 749.971 238.191 747.909 238.306C745.847 238.421 743.786 238.536 741.839 240.713C734.052 249.419 731.53 241.288 713.55 252.631C703.011 249.084 701.064 251.26 694.879 251.606C686.632 252.066 690.871 253.897 682.624 254.358C678.5 254.588 680.677 256.534 676.554 256.764C668.307 257.225 674.722 261.002 666.475 261.462C666.59 263.524 656.051 259.977 656.051 259.977L647.804 260.437C639.442 258.836 631.425 263.419 623.063 261.818L610.693 262.509C608.631 262.624 598.207 261.138 596.146 261.253C589.96 261.599 534.523 268.829 511.729 268.034C503.367 266.433 513.676 265.858 490.997 267.124C486.873 267.354 484.927 269.531 480.688 267.699L474.503 268.045L470.379 268.275C464.309 270.682 462.017 266.674 451.824 269.311C447.7 269.541 449.647 267.365 445.523 267.595L426.968 268.631L420.782 268.976C416.659 269.206 410.359 267.49 404.173 267.836C393.865 268.411 398.333 274.365 371.3 271.739C363.054 272.199 338.773 281.826 330.296 278.164C326.172 278.394 321.934 276.563 317.925 278.854C313.917 281.146 305.325 275.422 295.131 278.059C293.069 278.174 290.893 276.228 284.822 278.635L268.328 279.555C266.267 279.671 264.205 279.786 262.028 277.839L259.966 277.955C251.719 278.415 251.489 274.292 247.366 274.523C234.995 275.213 239.234 277.044 222.855 280.026C220.793 280.142 204.529 285.185 202.468 285.3C196.513 289.768 175.895 290.919 173.949 293.096C169.71 291.265 167.878 295.502 163.755 295.732C163.755 295.732 161.578 293.786 159.631 295.963C153.676 300.431 141.306 301.121 139.129 299.175C134.891 297.344 98.1245 305.6 91.9392 305.945C85.6389 304.229 87.7007 304.114 83.5772 304.344C57.0047 309.963 4.04591 314.413 -0.0775794 314.643L-0.0781251 233.643L-0.0775789 171.185C4.04591 170.955 7.59891 165.912 13.6691 163.505C17.5624 159.152 21.8009 160.983 23.7476 158.807C25.6943 156.63 25.6943 156.63 29.8177 156.4C33.9412 156.17 36.1181 158.116 40.2415 157.886L42.3033 157.771C46.3117 155.479 48.4885 157.425 50.5503 157.31L56.7355 156.965C71.2828 158.221 62.8056 154.558 95.6784 150.655C97.7402 150.54 101.749 148.249 108.049 149.965C110.226 151.911 116.296 149.504 118.242 147.328C120.304 147.213 120.074 143.09 126.259 142.745C128.321 142.63 138.515 139.993 142.753 141.824C144.93 143.77 146.877 141.594 151 141.364C153.177 143.31 157.185 141.018 161.309 140.788C163.486 142.734 169.556 140.328 169.556 140.328C173.679 140.097 175.626 137.921 181.696 135.514C185.935 137.345 187.881 135.169 187.766 133.108C205.862 123.826 193.952 132.762 206.092 127.949C208.154 127.834 212.392 129.665 216.401 127.373C218.462 127.258 230.718 124.506 230.718 124.506C232.779 124.391 237.018 126.222 241.026 123.931L247.212 123.586L249.273 123.47C259.697 124.956 279.854 115.56 284.093 117.391L286.155 117.276C288.216 117.161 292.225 114.869 294.286 114.754C296.233 112.578 298.18 110.401 312.727 111.657L325.098 110.966C351.9 109.47 331.283 110.621 347.892 111.761C358.201 111.186 358.316 113.247 364.386 110.841C397.949 119.305 393.595 115.413 414.328 116.323C414.443 118.385 416.39 116.208 418.566 118.154L428.875 117.579C430.937 117.464 434.83 113.111 436.892 112.996L449.262 112.305C453.386 112.075 453.501 114.136 457.625 113.906C469.995 113.215 459.801 115.852 478.357 114.816C478.357 114.816 478.472 116.878 486.719 116.417L499.09 115.726C509.283 113.09 521.769 114.46 523.83 114.345L536.201 113.655C540.324 113.424 546.395 111.018 554.642 110.557C577.091 105.168 564.95 109.982 591.638 106.424C595.761 106.194 597.708 104.017 597.708 104.017C599.77 103.902 603.893 103.672 605.84 101.496C607.786 99.3192 611.91 99.089 616.033 98.8588C628.289 96.1068 628.174 94.0455 630.351 95.9917L636.536 95.6464C636.536 95.6464 642.836 97.3624 651.198 98.9633C653.26 98.8482 661.392 96.3264 663.454 96.2113L665.515 96.0962C669.754 97.9273 671.585 93.6896 673.877 97.6971C678.231 101.59 678.001 97.4669 682.124 97.2367C700.91 100.323 692.433 96.6612 698.618 96.3158C704.804 95.9705 708.467 87.495 710.644 89.4412C714.882 91.2723 717.059 93.2186 719.006 91.0421C721.067 90.927 721.182 92.9883 725.191 90.6968C735.269 85.9986 733.438 90.2364 739.393 85.7684C747.41 81.1853 743.286 81.4155 749.586 83.1315L751.763 85.0778L753.825 84.9627L760.01 84.6173C762.072 84.5022 761.957 82.4409 764.019 82.3258L768.142 82.0956C770.204 81.9805 769.859 75.7965 776.159 77.5125L778.221 77.3974C780.167 75.221 786.813 83.121 788.529 76.8219C794.83 78.5379 794.83 78.5379 796.776 76.3614C796.776 76.3614 802.847 73.9548 805.023 75.901L809.147 75.6708C813.385 77.5019 815.332 75.3255 819.456 75.0953C821.747 79.1028 827.933 78.7575 829.879 76.5811C836.18 78.2971 836.295 80.3584 838.241 78.1819C840.303 78.0668 844.542 79.898 846.604 79.7828C853.019 83.5602 852.789 79.4375 857.027 81.2686L861.151 81.0384L863.212 80.9233C867.221 78.6318 866.876 72.4478 885.431 71.4119C897.802 70.7212 889.44 69.1203 897.687 68.6599C899.979 72.6674 910.287 72.0919 916.242 67.6239C918.304 67.5088 918.419 69.5701 920.481 69.455C922.543 69.3399 924.72 71.2861 926.781 71.171C933.082 72.887 932.851 68.7644 937.09 70.5955C939.152 70.4804 941.098 68.304 943.275 70.2502C945.567 74.2577 949.46 69.9049 953.814 73.7973C960.229 77.5746 978.67 74.4773 986.917 74.0169C991.041 73.7867 988.864 71.8405 994.934 69.4338C998.942 67.1423 998.942 67.1423 1003.07 66.9121C1009.37 68.6281 1007.07 64.6205 1011.31 66.4516C1015.55 68.2828 1019.67 68.0525 1023.8 67.8223C1025.86 67.7072 1027.92 67.5921 1027.81 65.5308C1036.17 67.1317 1048.42 64.3797 1050.49 64.2646C1052.43 62.0882 1056.67 63.9193 1060.79 63.6891C1064.92 63.4589 1065.15 67.5815 1075.34 64.9446C1077.4 64.8295 1075.23 62.8833 1077.17 60.7069C1079.24 60.5918 1077.06 58.6456 1083.36 60.3616L1093.67 59.786C1097.79 59.5558 1103.75 55.0879 1103.52 50.9652C1107.64 50.735 1116.23 56.4586 1134.1 43.0547C1136.16 42.9395 1142.69 48.7782 1146.58 44.4253C1150.59 42.1338 1152.77 44.08 1154.6 39.8423C1156.43 35.6045 1158.38 33.4281 1162.73 37.3205C1167.08 41.2129 1168.92 36.9752 1173.27 40.8676C1177.62 44.7601 1179.57 42.5836 1189.88 42.0081L1196.06 41.6628C1202.36 43.3788 1215.08 48.8721 1214.39 36.5042L1222.64 36.0437C1228.48 29.5145 1262.62 48.286 1265.59 27.4425C1275.67 22.7443 1271.08 14.7293 1277.27 14.3839Z" fill="#272727" fill-opacity="0.3"/>
<path d="M1277.27 9.02653C1279.33 8.91142 1275.68 4.32835 1279.92 6.15946L1279.92 190.285C1274.22 192.264 1272.62 192.436 1272.24 192.364C1272.19 192.617 1271.66 193.407 1269.07 195.581C1265.06 197.873 1264.95 195.812 1260.94 198.103C1256.93 200.395 1252.69 198.564 1246.62 200.97C1244.56 201.085 1232.42 205.899 1230.24 203.953C1228.07 202.006 1223.94 202.236 1221.88 202.352L1217.76 202.582L1207.45 203.157C1203.32 203.388 1201.38 205.564 1197.25 205.794L1186.95 206.37C1178.58 204.769 1174.23 200.876 1172.4 205.114C1172.51 207.175 1168.39 207.406 1164.27 207.636C1160.14 207.866 1154.3 214.395 1137.81 215.316C1135.75 215.431 1131.51 213.6 1131.62 215.662C1129.68 217.838 1125.67 220.13 1123.61 220.245C1121.66 222.421 1115.36 220.705 1111.24 220.935C1109.17 221.05 1104.94 219.219 1104.94 219.219C1086.27 218.194 1098.75 219.565 1086.15 216.133C1084.09 216.248 1079.85 214.417 1077.9 216.593C1074.01 220.946 1069.66 217.053 1065.65 219.345C1063.47 217.399 1061.41 217.514 1059.35 217.629C1059.35 217.629 1036.78 220.957 1032.43 217.064C1030.25 215.118 1026.24 217.409 1024.18 217.525C988.903 215.359 1007.8 220.507 966.454 220.748L956.145 221.323C956.145 221.323 954.083 221.438 951.906 219.492L947.783 219.722C945.836 221.899 945.721 219.837 937.474 220.298C933.466 222.589 927.05 218.812 920.865 219.157C918.688 217.211 914.45 215.38 912.388 215.495C910.326 215.61 912.273 213.434 903.911 211.833C895.549 210.232 893.717 214.47 889.479 212.639C870.117 199.245 866.454 207.721 860.039 203.943C857.977 204.059 851.677 202.343 851.792 204.404C849.96 208.642 847.784 206.695 843.775 208.987C829.688 215.977 823.158 210.138 813.309 218.959C811.363 221.135 809.186 219.189 803.001 219.534C770.013 221.376 786.737 224.578 768.181 225.614C759.934 226.074 761.996 225.959 760.049 228.136C755.926 228.366 749.971 232.834 747.909 232.949C745.847 233.064 743.786 233.179 741.839 235.355C734.052 244.061 731.53 235.931 713.55 247.274C703.011 243.726 701.064 245.903 694.879 246.248C686.632 246.709 690.871 248.54 682.624 249C678.5 249.23 680.677 251.177 676.554 251.407C668.307 251.867 674.722 255.645 666.475 256.105C666.59 258.166 656.051 254.619 656.051 254.619L647.804 255.08C639.442 253.479 631.425 258.062 623.063 256.461L610.693 257.152C608.631 257.267 598.207 255.781 596.146 255.896C589.96 256.241 534.523 263.472 511.729 262.677C503.367 261.076 513.676 260.5 490.997 261.766C486.873 261.997 484.927 264.173 480.688 262.342L474.503 262.687L470.379 262.918C464.309 265.324 462.017 261.317 451.824 263.953C447.7 264.184 449.647 262.007 445.523 262.237L426.968 263.273L420.782 263.619C416.659 263.849 410.359 262.133 404.173 262.478C393.865 263.054 398.333 269.008 371.3 266.381C363.054 266.842 338.773 276.468 330.296 272.806C326.172 273.036 321.934 271.205 317.925 273.497C313.917 275.788 305.325 270.065 295.131 272.702C293.069 272.817 290.893 270.871 284.822 273.277L268.328 274.198C266.267 274.313 264.205 274.428 262.028 272.482L259.966 272.597C251.719 273.058 251.489 268.935 247.366 269.165C234.995 269.856 239.234 271.687 222.855 274.669C220.793 274.784 204.529 279.828 202.468 279.943C196.513 284.411 175.895 285.562 173.949 287.738C169.71 285.907 167.878 290.145 163.755 290.375C163.755 290.375 161.578 288.429 159.631 290.605C153.676 295.073 141.306 295.764 139.129 293.818C134.891 291.987 98.1245 300.242 91.9392 300.588C85.6389 298.872 87.7007 298.757 83.5772 298.987C57.0047 304.606 4.04591 309.055 -0.0775794 309.285L-0.0781251 228.285L-0.0775789 165.828C4.04591 165.598 7.59891 160.554 13.6691 158.148C17.5624 153.795 21.8009 155.626 23.7476 153.449C25.6943 151.273 25.6943 151.273 29.8177 151.043C33.9412 150.812 36.1181 152.759 40.2415 152.528L42.3033 152.413C46.3117 150.122 48.4885 152.068 50.5503 151.953L56.7355 151.608C71.2828 152.863 62.8056 149.201 95.6784 145.298C97.7402 145.183 101.749 142.891 108.049 144.607C110.226 146.554 116.296 144.147 118.242 141.97C120.304 141.855 120.074 137.733 126.259 137.387C128.321 137.272 138.515 134.635 142.753 136.467C144.93 138.413 146.877 136.236 151 136.006C153.177 137.952 157.185 135.661 161.309 135.431C163.486 137.377 169.556 134.97 169.556 134.97C173.679 134.74 175.626 132.563 181.696 130.157C185.935 131.988 187.881 129.812 187.766 127.75C205.862 118.469 193.952 127.405 206.092 122.592C208.154 122.476 212.392 124.308 216.401 122.016C218.462 121.901 230.718 119.149 230.718 119.149C232.779 119.034 237.018 120.865 241.026 118.573L247.212 118.228L249.273 118.113C259.697 119.599 279.854 110.202 284.093 112.034L286.155 111.918C288.216 111.803 292.225 109.512 294.286 109.397C296.233 107.22 298.18 105.044 312.727 106.299L325.098 105.609C351.9 104.112 331.283 105.263 347.892 106.404C358.201 105.828 358.316 107.89 364.386 105.483C397.949 113.948 393.595 110.056 414.328 110.966C414.443 113.027 416.39 110.851 418.566 112.797L428.875 112.221C430.937 112.106 434.83 107.753 436.892 107.638L449.262 106.948C453.386 106.717 453.501 108.779 457.625 108.549C469.995 107.858 459.801 110.495 478.357 109.459C478.357 109.459 478.472 111.52 486.719 111.06L499.09 110.369C509.283 107.732 521.769 109.103 523.83 108.988L536.201 108.297C540.324 108.067 546.395 105.66 554.642 105.2C577.091 99.811 564.95 104.624 591.638 101.067C595.761 100.836 597.708 98.66 597.708 98.66C599.77 98.5449 603.893 98.3147 605.84 96.1382C607.786 93.9618 611.91 93.7316 616.033 93.5014C628.289 90.7494 628.174 88.6881 630.351 90.6343L636.536 90.289C636.536 90.289 642.836 92.005 651.198 93.6059C653.26 93.4908 661.392 90.969 663.454 90.8539L665.515 90.7388C669.754 92.5699 671.585 88.3322 673.877 92.3397C678.231 96.2321 678.001 92.1095 682.124 91.8793C700.91 94.9659 692.433 91.3037 698.618 90.9584C704.804 90.6131 708.467 82.1376 710.644 84.0838C714.882 85.9149 717.059 87.8611 719.006 85.6847C721.067 85.5696 721.182 87.6309 725.191 85.3394C735.269 80.6412 733.438 84.879 739.393 80.411C747.41 75.8279 743.286 76.0581 749.586 77.7741L751.763 79.7203L753.825 79.6052L760.01 79.2599C762.072 79.1448 761.957 77.0835 764.019 76.9684L768.142 76.7382C770.204 76.6231 769.859 70.4391 776.159 72.1551L778.221 72.04C780.167 69.8636 786.813 77.7635 788.529 71.4645C794.83 73.1805 794.83 73.1805 796.776 71.004C796.776 71.004 802.847 68.5974 805.023 70.5436L809.147 70.3134C813.385 72.1445 815.332 69.9681 819.456 69.7379C821.747 73.7454 827.933 73.4001 829.879 71.2236C836.18 72.9396 836.295 75.001 838.241 72.8245C840.303 72.7094 844.542 74.5405 846.604 74.4254C853.019 78.2027 852.789 74.0801 857.027 75.9112L861.151 75.681L863.212 75.5659C867.221 73.2744 866.876 67.0904 885.431 66.0544C897.802 65.3638 889.44 63.7629 897.687 63.3025C899.979 67.31 910.287 66.7345 916.242 62.2665C918.304 62.1514 918.419 64.2127 920.481 64.0976C922.543 63.9825 924.72 65.9287 926.781 65.8136C933.082 67.5296 932.851 63.407 937.09 65.2381C939.152 65.123 941.098 62.9465 943.275 64.8928C945.567 68.9003 949.46 64.5474 953.814 68.4399C960.229 72.2172 978.67 69.1199 986.917 68.6595C991.041 68.4293 988.864 66.4831 994.934 64.0764C998.942 61.7849 998.942 61.7849 1003.07 61.5547C1009.37 63.2707 1007.07 59.2631 1011.31 61.0942C1015.55 62.9253 1019.67 62.6951 1023.8 62.4649C1025.86 62.3498 1027.92 62.2347 1027.81 60.1734C1036.17 61.7743 1048.42 59.0223 1050.49 58.9072C1052.43 56.7308 1056.67 58.5619 1060.79 58.3317C1064.92 58.1014 1065.15 62.2241 1075.34 59.5872C1077.4 59.4721 1075.23 57.5259 1077.17 55.3495C1079.24 55.2344 1077.06 53.2881 1083.36 55.0042L1093.67 54.4286C1097.79 54.1984 1103.75 49.7304 1103.52 45.6078C1107.64 45.3776 1116.23 51.1011 1134.1 37.6972C1136.16 37.5821 1142.69 43.4208 1146.58 39.0679C1150.59 36.7764 1152.77 38.7226 1154.6 34.4848C1156.43 30.2471 1158.38 28.0707 1162.73 31.9631C1167.08 35.8555 1168.92 31.6178 1173.27 35.5102C1177.62 39.4026 1179.57 37.2262 1189.88 36.6507L1196.06 36.3053C1202.36 38.0214 1215.08 43.5147 1214.39 31.1467L1222.64 30.6863C1228.48 24.157 1262.62 42.9285 1265.59 22.0851C1275.67 17.3869 1271.08 9.37184 1277.27 9.02653Z" fill="#FFEB26"/>
</g>
<defs>
<clipPath id="clip0">
<rect width="1280" height="352" fill="white"/>
</clipPath>
</defs>
</svg>
