<svg width="1280" height="352" viewBox="0 0 1280 352" fill="none" xmlns="http://www.w3.org/2000/svg">
<g clip-path="url(#clip0)">
<path d="M1277.27 3.38395C1279.33 3.26884 1275.68 -1.31423 1279.92 0.516878L1279.92 184.643C1274.22 186.622 1272.62 186.794 1272.24 186.722C1272.19 186.974 1271.66 187.765 1269.07 189.939C1265.06 192.23 1264.95 190.169 1260.94 192.461C1256.93 194.752 1252.69 192.921 1246.62 195.328C1244.56 195.443 1232.42 200.256 1230.24 198.31C1228.07 196.364 1223.94 196.594 1221.88 196.709L1217.76 196.939L1207.45 197.515C1203.32 197.745 1201.38 199.921 1197.25 200.152L1186.95 200.727C1178.58 199.126 1174.23 195.234 1172.4 199.472C1172.51 201.533 1168.39 201.763 1164.27 201.993C1160.14 202.224 1154.3 208.753 1137.81 209.674C1135.75 209.789 1131.51 207.958 1131.62 210.019C1129.68 212.195 1125.67 214.487 1123.61 214.602C1121.66 216.779 1115.36 215.063 1111.24 215.293C1109.17 215.408 1104.94 213.577 1104.94 213.577C1086.27 212.551 1098.75 213.922 1086.15 210.49C1084.09 210.605 1079.85 208.774 1077.9 210.95C1074.01 215.303 1069.66 211.411 1065.65 213.702C1063.47 211.756 1061.41 211.871 1059.35 211.986C1059.35 211.986 1036.78 215.314 1032.43 211.422C1030.25 209.475 1026.24 211.767 1024.18 211.882C988.903 209.716 1007.8 214.864 966.454 215.105L956.145 215.68C956.145 215.68 954.083 215.796 951.906 213.849L947.783 214.08C945.836 216.256 945.721 214.195 937.474 214.655C933.466 216.947 927.05 213.169 920.865 213.515C918.688 211.568 914.45 209.737 912.388 209.852C910.326 209.968 912.273 207.791 903.911 206.19C895.549 204.589 893.717 208.827 889.479 206.996C870.117 193.603 866.454 202.078 860.039 198.301C857.977 198.416 851.677 196.7 851.792 198.761C849.96 202.999 847.784 201.053 843.775 203.344C829.688 210.334 823.158 204.495 813.309 213.316C811.363 215.493 809.186 213.546 803.001 213.892C770.013 215.733 786.737 218.935 768.181 219.971C759.934 220.432 761.996 220.317 760.049 222.493C755.926 222.723 749.971 227.191 747.909 227.306C745.847 227.421 743.786 227.536 741.839 229.713C734.052 238.419 731.53 230.288 713.55 241.631C703.011 238.084 701.064 240.26 694.879 240.606C686.632 241.066 690.871 242.897 682.624 243.358C678.5 243.588 680.677 245.534 676.554 245.764C668.307 246.225 674.722 250.002 666.475 250.462C666.59 252.524 656.051 248.977 656.051 248.977L647.804 249.437C639.442 247.836 631.425 252.419 623.063 250.818L610.693 251.509C608.631 251.624 598.207 250.138 596.146 250.253C589.96 250.599 534.523 257.829 511.729 257.034C503.367 255.433 513.676 254.858 490.997 256.124C486.873 256.354 484.927 258.531 480.688 256.699L474.503 257.045L470.379 257.275C464.309 259.682 462.017 255.674 451.824 258.311C447.7 258.541 449.647 256.365 445.523 256.595L426.968 257.631L420.782 257.976C416.659 258.206 410.359 256.49 404.173 256.836C393.865 257.411 398.333 263.365 371.3 260.739C363.054 261.199 338.773 270.826 330.296 267.164C326.172 267.394 321.934 265.563 317.925 267.854C313.917 270.146 305.325 264.422 295.131 267.059C293.069 267.174 290.893 265.228 284.822 267.635L268.328 268.555C266.267 268.671 264.205 268.786 262.028 266.839L259.966 266.955C251.719 267.415 251.489 263.292 247.366 263.523C234.995 264.213 239.234 266.044 222.855 269.026C220.793 269.142 204.529 274.185 202.468 274.3C196.513 278.768 175.895 279.919 173.949 282.096C169.71 280.265 167.878 284.502 163.755 284.732C163.755 284.732 161.578 282.786 159.631 284.963C153.676 289.431 141.306 290.121 139.129 288.175C134.891 286.344 98.1245 294.6 91.9392 294.945C85.6389 293.229 87.7007 293.114 83.5772 293.344C57.0047 298.963 4.04591 303.413 -0.0775794 303.643L-0.0781251 222.643L-0.0775789 160.185C4.04591 159.955 7.59891 154.912 13.6691 152.505C17.5624 148.152 21.8009 149.983 23.7476 147.807C25.6943 145.63 25.6943 145.63 29.8177 145.4C33.9412 145.17 36.1181 147.116 40.2415 146.886L42.3033 146.771C46.3117 144.479 48.4885 146.425 50.5503 146.31L56.7355 145.965C71.2828 147.221 62.8056 143.558 95.6784 139.655C97.7402 139.54 101.749 137.249 108.049 138.965C110.226 140.911 116.296 138.504 118.242 136.328C120.304 136.213 120.074 132.09 126.259 131.745C128.321 131.63 138.515 128.993 142.753 130.824C144.93 132.77 146.877 130.594 151 130.364C153.177 132.31 157.185 130.018 161.309 129.788C163.486 131.734 169.556 129.328 169.556 129.328C173.679 129.097 175.626 126.921 181.696 124.514C185.935 126.345 187.881 124.169 187.766 122.108C205.862 112.826 193.952 121.762 206.092 116.949C208.154 116.834 212.392 118.665 216.401 116.373C218.462 116.258 230.718 113.506 230.718 113.506C232.779 113.391 237.018 115.222 241.026 112.931L247.212 112.586L249.273 112.47C259.697 113.956 279.854 104.56 284.093 106.391L286.155 106.276C288.216 106.161 292.225 103.869 294.286 103.754C296.233 101.578 298.18 99.4013 312.727 100.657L325.098 99.9662C351.9 98.4698 331.283 99.6209 347.892 100.761C358.201 100.186 358.316 102.247 364.386 99.8405C397.949 108.305 393.595 104.413 414.328 105.323C414.443 107.385 416.39 105.208 418.566 107.154L428.875 106.579C430.937 106.464 434.83 102.111 436.892 101.996L449.262 101.305C453.386 101.075 453.501 103.136 457.625 102.906C469.995 102.215 459.801 104.852 478.357 103.816C478.357 103.816 478.472 105.878 486.719 105.417L499.09 104.726C509.283 102.09 521.769 103.46 523.83 103.345L536.201 102.655C540.324 102.424 546.395 100.018 554.642 99.5573C577.091 94.1685 564.95 98.9818 591.638 95.424C595.761 95.1938 597.708 93.0174 597.708 93.0174C599.77 92.9023 603.893 92.6721 605.84 90.4956C607.786 88.3192 611.91 88.089 616.033 87.8588C628.289 85.1068 628.174 83.0455 630.351 84.9917L636.536 84.6464C636.536 84.6464 642.836 86.3624 651.198 87.9633C653.26 87.8482 661.392 85.3264 663.454 85.2113L665.515 85.0962C669.754 86.9273 671.585 82.6896 673.877 86.6971C678.231 90.5895 678.001 86.4669 682.124 86.2367C700.91 89.3234 692.433 85.6612 698.618 85.3158C704.804 84.9705 708.467 76.495 710.644 78.4412C714.882 80.2723 717.059 82.2186 719.006 80.0421C721.067 79.927 721.182 81.9883 725.191 79.6968C735.269 74.9986 733.438 79.2364 739.393 74.7684C747.41 70.1853 743.286 70.4155 749.586 72.1315L751.763 74.0778L753.825 73.9627L760.01 73.6173C762.072 73.5022 761.957 71.4409 764.019 71.3258L768.142 71.0956C770.204 70.9805 769.859 64.7965 776.159 66.5125L778.221 66.3974C780.167 64.221 786.813 72.121 788.529 65.8219C794.83 67.5379 794.83 67.5379 796.776 65.3614C796.776 65.3614 802.847 62.9548 805.023 64.901L809.147 64.6708C813.385 66.5019 815.332 64.3255 819.456 64.0953C821.747 68.1028 827.933 67.7575 829.879 65.5811C836.18 67.2971 836.295 69.3584 838.241 67.1819C840.303 67.0668 844.542 68.898 846.604 68.7828C853.019 72.5602 852.789 68.4375 857.027 70.2686L861.151 70.0384L863.212 69.9233C867.221 67.6318 866.876 61.4478 885.431 60.4119C897.802 59.7212 889.44 58.1203 897.687 57.6599C899.979 61.6674 910.287 61.0919 916.242 56.6239C918.304 56.5088 918.419 58.5701 920.481 58.455C922.543 58.3399 924.72 60.2861 926.781 60.171C933.082 61.887 932.851 57.7644 937.09 59.5955C939.152 59.4804 941.098 57.304 943.275 59.2502C945.567 63.2577 949.46 58.9049 953.814 62.7973C960.229 66.5746 978.67 63.4773 986.917 63.0169C991.041 62.7867 988.864 60.8405 994.934 58.4338C998.942 56.1423 998.942 56.1423 1003.07 55.9121C1009.37 57.6281 1007.07 53.6205 1011.31 55.4516C1015.55 57.2828 1019.67 57.0525 1023.8 56.8223C1025.86 56.7072 1027.92 56.5921 1027.81 54.5308C1036.17 56.1317 1048.42 53.3797 1050.49 53.2646C1052.43 51.0882 1056.67 52.9193 1060.79 52.6891C1064.92 52.4589 1065.15 56.5815 1075.34 53.9446C1077.4 53.8295 1075.23 51.8833 1077.17 49.7069C1079.24 49.5918 1077.06 47.6456 1083.36 49.3616L1093.67 48.786C1097.79 48.5558 1103.75 44.0879 1103.52 39.9652C1107.64 39.735 1116.23 45.4586 1134.1 32.0547C1136.16 31.9395 1142.69 37.7782 1146.58 33.4253C1150.59 31.1338 1152.77 33.08 1154.6 28.8423C1156.43 24.6045 1158.38 22.4281 1162.73 26.3205C1167.08 30.2129 1168.92 25.9752 1173.27 29.8676C1177.62 33.7601 1179.57 31.5836 1189.88 31.0081L1196.06 30.6628C1202.36 32.3788 1215.08 37.8721 1214.39 25.5042L1222.64 25.0437C1228.48 18.5145 1262.62 37.286 1265.59 16.4425C1275.67 11.7443 1271.08 3.72927 1277.27 3.38395Z" fill="#FFEB26"/>
<path d="M1277.27 3.38395C1279.33 3.26884 1275.68 -1.31423 1279.92 0.516878L1279.92 184.643C1274.22 186.622 1272.62 186.794 1272.24 186.722C1272.19 186.974 1271.66 187.765 1269.07 189.939C1265.06 192.23 1264.95 190.169 1260.94 192.461C1256.93 194.752 1252.69 192.921 1246.62 195.328C1244.56 195.443 1232.42 200.256 1230.24 198.31C1228.07 196.364 1223.94 196.594 1221.88 196.709L1217.76 196.939L1207.45 197.515C1203.32 197.745 1201.38 199.921 1197.25 200.152L1186.95 200.727C1178.58 199.126 1174.23 195.234 1172.4 199.472C1172.51 201.533 1168.39 201.763 1164.27 201.993C1160.14 202.224 1154.3 208.753 1137.81 209.674C1135.75 209.789 1131.51 207.958 1131.62 210.019C1129.68 212.195 1125.67 214.487 1123.61 214.602C1121.66 216.779 1115.36 215.063 1111.24 215.293C1109.17 215.408 1104.94 213.577 1104.94 213.577C1086.27 212.551 1098.75 213.922 1086.15 210.49C1084.09 210.605 1079.85 208.774 1077.9 210.95C1074.01 215.303 1069.66 211.411 1065.65 213.702C1063.47 211.756 1061.41 211.871 1059.35 211.986C1059.35 211.986 1036.78 215.314 1032.43 211.422C1030.25 209.475 1026.24 211.767 1024.18 211.882C988.903 209.716 1007.8 214.864 966.454 215.105L956.145 215.68C956.145 215.68 954.083 215.796 951.906 213.849L947.783 214.08C945.836 216.256 945.721 214.195 937.474 214.655C933.466 216.947 927.05 213.169 920.865 213.515C918.688 211.568 914.45 209.737 912.388 209.852C910.326 209.968 912.273 207.791 903.911 206.19C895.549 204.589 893.717 208.827 889.479 206.996C870.117 193.603 866.454 202.078 860.039 198.301C857.977 198.416 851.677 196.7 851.792 198.761C849.96 202.999 847.784 201.053 843.775 203.344C829.688 210.334 823.158 204.495 813.309 213.316C811.363 215.493 809.186 213.546 803.001 213.892C770.013 215.733 786.737 218.935 768.181 219.971C759.934 220.432 761.996 220.317 760.049 222.493C755.926 222.723 749.971 227.191 747.909 227.306C745.847 227.421 743.786 227.536 741.839 229.713C734.052 238.419 731.53 230.288 713.55 241.631C703.011 238.084 701.064 240.26 694.879 240.606C686.632 241.066 690.871 242.897 682.624 243.358C678.5 243.588 680.677 245.534 676.554 245.764C668.307 246.225 674.722 250.002 666.475 250.462C666.59 252.524 656.051 248.977 656.051 248.977L647.804 249.437C639.442 247.836 631.425 252.419 623.063 250.818L610.693 251.509C608.631 251.624 598.207 250.138 596.146 250.253C589.96 250.599 534.523 257.829 511.729 257.034C503.367 255.433 513.676 254.858 490.997 256.124C486.873 256.354 484.927 258.531 480.688 256.699L474.503 257.045L470.379 257.275C464.309 259.682 462.017 255.674 451.824 258.311C447.7 258.541 449.647 256.365 445.523 256.595L426.968 257.631L420.782 257.976C416.659 258.206 410.359 256.49 404.173 256.836C393.865 257.411 398.333 263.365 371.3 260.739C363.054 261.199 338.773 270.826 330.296 267.164C326.172 267.394 321.934 265.563 317.925 267.854C313.917 270.146 305.325 264.422 295.131 267.059C293.069 267.174 290.893 265.228 284.822 267.635L268.328 268.555C266.267 268.671 264.205 268.786 262.028 266.839L259.966 266.955C251.719 267.415 251.489 263.292 247.366 263.523C234.995 264.213 239.234 266.044 222.855 269.026C220.793 269.142 204.529 274.185 202.468 274.3C196.513 278.768 175.895 279.919 173.949 282.096C169.71 280.265 167.878 284.502 163.755 284.732C163.755 284.732 161.578 282.786 159.631 284.963C153.676 289.431 141.306 290.121 139.129 288.175C134.891 286.344 98.1245 294.6 91.9392 294.945C85.6389 293.229 87.7007 293.114 83.5772 293.344C57.0047 298.963 4.04591 303.413 -0.0775794 303.643L-0.0781251 222.643L-0.0775789 160.185C4.04591 159.955 7.59891 154.912 13.6691 152.505C17.5624 148.152 21.8009 149.983 23.7476 147.807C25.6943 145.63 25.6943 145.63 29.8177 145.4C33.9412 145.17 36.1181 147.116 40.2415 146.886L42.3033 146.771C46.3117 144.479 48.4885 146.425 50.5503 146.31L56.7355 145.965C71.2828 147.221 62.8056 143.558 95.6784 139.655C97.7402 139.54 101.749 137.249 108.049 138.965C110.226 140.911 116.296 138.504 118.242 136.328C120.304 136.213 120.074 132.09 126.259 131.745C128.321 131.63 138.515 128.993 142.753 130.824C144.93 132.77 146.877 130.594 151 130.364C153.177 132.31 157.185 130.018 161.309 129.788C163.486 131.734 169.556 129.328 169.556 129.328C173.679 129.097 175.626 126.921 181.696 124.514C185.935 126.345 187.881 124.169 187.766 122.108C205.862 112.826 193.952 121.762 206.092 116.949C208.154 116.834 212.392 118.665 216.401 116.373C218.462 116.258 230.718 113.506 230.718 113.506C232.779 113.391 237.018 115.222 241.026 112.931L247.212 112.586L249.273 112.47C259.697 113.956 279.854 104.56 284.093 106.391L286.155 106.276C288.216 106.161 292.225 103.869 294.286 103.754C296.233 101.578 298.18 99.4013 312.727 100.657L325.098 99.9662C351.9 98.4698 331.283 99.6209 347.892 100.761C358.201 100.186 358.316 102.247 364.386 99.8405C397.949 108.305 393.595 104.413 414.328 105.323C414.443 107.385 416.39 105.208 418.566 107.154L428.875 106.579C430.937 106.464 434.83 102.111 436.892 101.996L449.262 101.305C453.386 101.075 453.501 103.136 457.625 102.906C469.995 102.215 459.801 104.852 478.357 103.816C478.357 103.816 478.472 105.878 486.719 105.417L499.09 104.726C509.283 102.09 521.769 103.46 523.83 103.345L536.201 102.655C540.324 102.424 546.395 100.018 554.642 99.5573C577.091 94.1685 564.95 98.9818 591.638 95.424C595.761 95.1938 597.708 93.0174 597.708 93.0174C599.77 92.9023 603.893 92.6721 605.84 90.4956C607.786 88.3192 611.91 88.089 616.033 87.8588C628.289 85.1068 628.174 83.0455 630.351 84.9917L636.536 84.6464C636.536 84.6464 642.836 86.3624 651.198 87.9633C653.26 87.8482 661.392 85.3264 663.454 85.2113L665.515 85.0962C669.754 86.9273 671.585 82.6896 673.877 86.6971C678.231 90.5895 678.001 86.4669 682.124 86.2367C700.91 89.3234 692.433 85.6612 698.618 85.3158C704.804 84.9705 708.467 76.495 710.644 78.4412C714.882 80.2723 717.059 82.2186 719.006 80.0421C721.067 79.927 721.182 81.9883 725.191 79.6968C735.269 74.9986 733.438 79.2364 739.393 74.7684C747.41 70.1853 743.286 70.4155 749.586 72.1315L751.763 74.0778L753.825 73.9627L760.01 73.6173C762.072 73.5022 761.957 71.4409 764.019 71.3258L768.142 71.0956C770.204 70.9805 769.859 64.7965 776.159 66.5125L778.221 66.3974C780.167 64.221 786.813 72.121 788.529 65.8219C794.83 67.5379 794.83 67.5379 796.776 65.3614C796.776 65.3614 802.847 62.9548 805.023 64.901L809.147 64.6708C813.385 66.5019 815.332 64.3255 819.456 64.0953C821.747 68.1028 827.933 67.7575 829.879 65.5811C836.18 67.2971 836.295 69.3584 838.241 67.1819C840.303 67.0668 844.542 68.898 846.604 68.7828C853.019 72.5602 852.789 68.4375 857.027 70.2686L861.151 70.0384L863.212 69.9233C867.221 67.6318 866.876 61.4478 885.431 60.4119C897.802 59.7212 889.44 58.1203 897.687 57.6599C899.979 61.6674 910.287 61.0919 916.242 56.6239C918.304 56.5088 918.419 58.5701 920.481 58.455C922.543 58.3399 924.72 60.2861 926.781 60.171C933.082 61.887 932.851 57.7644 937.09 59.5955C939.152 59.4804 941.098 57.304 943.275 59.2502C945.567 63.2577 949.46 58.9049 953.814 62.7973C960.229 66.5746 978.67 63.4773 986.917 63.0169C991.041 62.7867 988.864 60.8405 994.934 58.4338C998.942 56.1423 998.942 56.1423 1003.07 55.9121C1009.37 57.6281 1007.07 53.6205 1011.31 55.4516C1015.55 57.2828 1019.67 57.0525 1023.8 56.8223C1025.86 56.7072 1027.92 56.5921 1027.81 54.5308C1036.17 56.1317 1048.42 53.3797 1050.49 53.2646C1052.43 51.0882 1056.67 52.9193 1060.79 52.6891C1064.92 52.4589 1065.15 56.5815 1075.34 53.9446C1077.4 53.8295 1075.23 51.8833 1077.17 49.7069C1079.24 49.5918 1077.06 47.6456 1083.36 49.3616L1093.67 48.786C1097.79 48.5558 1103.75 44.0879 1103.52 39.9652C1107.64 39.735 1116.23 45.4586 1134.1 32.0547C1136.16 31.9395 1142.69 37.7782 1146.58 33.4253C1150.59 31.1338 1152.77 33.08 1154.6 28.8423C1156.43 24.6045 1158.38 22.4281 1162.73 26.3205C1167.08 30.2129 1168.92 25.9752 1173.27 29.8676C1177.62 33.7601 1179.57 31.5836 1189.88 31.0081L1196.06 30.6628C1202.36 32.3788 1215.08 37.8721 1214.39 25.5042L1222.64 25.0437C1228.48 18.5145 1262.62 37.286 1265.59 16.4425C1275.67 11.7443 1271.08 3.72927 1277.27 3.38395Z" fill="#272727" fill-opacity="0.3"/>
<path d="M1277.27 9.02653C1279.33 8.91142 1275.68 4.32835 1279.92 6.15946L1279.92 190.285C1274.22 192.264 1272.62 192.436 1272.24 192.364C1272.19 192.617 1271.66 193.407 1269.07 195.581C1265.06 197.873 1264.95 195.812 1260.94 198.103C1256.93 200.395 1252.69 198.564 1246.62 200.97C1244.56 201.085 1232.42 205.899 1230.24 203.953C1228.07 202.006 1223.94 202.236 1221.88 202.352L1217.76 202.582L1207.45 203.157C1203.32 203.388 1201.38 205.564 1197.25 205.794L1186.95 206.37C1178.58 204.769 1174.23 200.876 1172.4 205.114C1172.51 207.175 1168.39 207.406 1164.27 207.636C1160.14 207.866 1154.3 214.395 1137.81 215.316C1135.75 215.431 1131.51 213.6 1131.62 215.662C1129.68 217.838 1125.67 220.13 1123.61 220.245C1121.66 222.421 1115.36 220.705 1111.24 220.935C1109.17 221.05 1104.94 219.219 1104.94 219.219C1086.27 218.194 1098.75 219.565 1086.15 216.133C1084.09 216.248 1079.85 214.417 1077.9 216.593C1074.01 220.946 1069.66 217.053 1065.65 219.345C1063.47 217.399 1061.41 217.514 1059.35 217.629C1059.35 217.629 1036.78 220.957 1032.43 217.064C1030.25 215.118 1026.24 217.409 1024.18 217.525C988.903 215.359 1007.8 220.507 966.454 220.748L956.145 221.323C956.145 221.323 954.083 221.438 951.906 219.492L947.783 219.722C945.836 221.899 945.721 219.837 937.474 220.298C933.466 222.589 927.05 218.812 920.865 219.157C918.688 217.211 914.45 215.38 912.388 215.495C910.326 215.61 912.273 213.434 903.911 211.833C895.549 210.232 893.717 214.47 889.479 212.639C870.117 199.245 866.454 207.721 860.039 203.943C857.977 204.059 851.677 202.343 851.792 204.404C849.96 208.642 847.784 206.695 843.775 208.987C829.688 215.977 823.158 210.138 813.309 218.959C811.363 221.135 809.186 219.189 803.001 219.534C770.013 221.376 786.737 224.578 768.181 225.614C759.934 226.074 761.996 225.959 760.049 228.136C755.926 228.366 749.971 232.834 747.909 232.949C745.847 233.064 743.786 233.179 741.839 235.355C734.052 244.061 731.53 235.931 713.55 247.274C703.011 243.726 701.064 245.903 694.879 246.248C686.632 246.709 690.871 248.54 682.624 249C678.5 249.23 680.677 251.177 676.554 251.407C668.307 251.867 674.722 255.645 666.475 256.105C666.59 258.166 656.051 254.619 656.051 254.619L647.804 255.08C639.442 253.479 631.425 258.062 623.063 256.461L610.693 257.152C608.631 257.267 598.207 255.781 596.146 255.896C589.96 256.241 534.523 263.472 511.729 262.677C503.367 261.076 513.676 260.5 490.997 261.766C486.873 261.997 484.927 264.173 480.688 262.342L474.503 262.687L470.379 262.918C464.309 265.324 462.017 261.317 451.824 263.953C447.7 264.184 449.647 262.007 445.523 262.237L426.968 263.273L420.782 263.619C416.659 263.849 410.359 262.133 404.173 262.478C393.865 263.054 398.333 269.008 371.3 266.381C363.054 266.842 338.773 276.468 330.296 272.806C326.172 273.036 321.934 271.205 317.925 273.497C313.917 275.788 305.325 270.065 295.131 272.702C293.069 272.817 290.893 270.871 284.822 273.277L268.328 274.198C266.267 274.313 264.205 274.428 262.028 272.482L259.966 272.597C251.719 273.058 251.489 268.935 247.366 269.165C234.995 269.856 239.234 271.687 222.855 274.669C220.793 274.784 204.529 279.828 202.468 279.943C196.513 284.411 175.895 285.562 173.949 287.738C169.71 285.907 167.878 290.145 163.755 290.375C163.755 290.375 161.578 288.429 159.631 290.605C153.676 295.073 141.306 295.764 139.129 293.818C134.891 291.987 98.1245 300.242 91.9392 300.588C85.6389 298.872 87.7007 298.757 83.5772 298.987C57.0047 304.606 4.04591 309.055 -0.0775794 309.285L-0.0781251 228.285L-0.0775789 165.828C4.04591 165.598 7.59891 160.554 13.6691 158.148C17.5624 153.795 21.8009 155.626 23.7476 153.449C25.6943 151.273 25.6943 151.273 29.8177 151.043C33.9412 150.812 36.1181 152.759 40.2415 152.528L42.3033 152.413C46.3117 150.122 48.4885 152.068 50.5503 151.953L56.7355 151.608C71.2828 152.863 62.8056 149.201 95.6784 145.298C97.7402 145.183 101.749 142.891 108.049 144.607C110.226 146.554 116.296 144.147 118.242 141.97C120.304 141.855 120.074 137.733 126.259 137.387C128.321 137.272 138.515 134.635 142.753 136.467C144.93 138.413 146.877 136.236 151 136.006C153.177 137.952 157.185 135.661 161.309 135.431C163.486 137.377 169.556 134.97 169.556 134.97C173.679 134.74 175.626 132.563 181.696 130.157C185.935 131.988 187.881 129.812 187.766 127.75C205.862 118.469 193.952 127.405 206.092 122.592C208.154 122.476 212.392 124.308 216.401 122.016C218.462 121.901 230.718 119.149 230.718 119.149C232.779 119.034 237.018 120.865 241.026 118.573L247.212 118.228L249.273 118.113C259.697 119.599 279.854 110.202 284.093 112.034L286.155 111.918C288.216 111.803 292.225 109.512 294.286 109.397C296.233 107.22 298.18 105.044 312.727 106.299L325.098 105.609C351.9 104.112 331.283 105.263 347.892 106.404C358.201 105.828 358.316 107.89 364.386 105.483C397.949 113.948 393.595 110.056 414.328 110.966C414.443 113.027 416.39 110.851 418.566 112.797L428.875 112.221C430.937 112.106 434.83 107.753 436.892 107.638L449.262 106.948C453.386 106.717 453.501 108.779 457.625 108.549C469.995 107.858 459.801 110.495 478.357 109.459C478.357 109.459 478.472 111.52 486.719 111.06L499.09 110.369C509.283 107.732 521.769 109.103 523.83 108.988L536.201 108.297C540.324 108.067 546.395 105.66 554.642 105.2C577.091 99.811 564.95 104.624 591.638 101.067C595.761 100.836 597.708 98.66 597.708 98.66C599.77 98.5449 603.893 98.3147 605.84 96.1382C607.786 93.9618 611.91 93.7316 616.033 93.5014C628.289 90.7494 628.174 88.6881 630.351 90.6343L636.536 90.289C636.536 90.289 642.836 92.005 651.198 93.6059C653.26 93.4908 661.392 90.969 663.454 90.8539L665.515 90.7388C669.754 92.5699 671.585 88.3322 673.877 92.3397C678.231 96.2321 678.001 92.1095 682.124 91.8793C700.91 94.9659 692.433 91.3037 698.618 90.9584C704.804 90.6131 708.467 82.1376 710.644 84.0838C714.882 85.9149 717.059 87.8611 719.006 85.6847C721.067 85.5696 721.182 87.6309 725.191 85.3394C735.269 80.6412 733.438 84.879 739.393 80.411C747.41 75.8279 743.286 76.0581 749.586 77.7741L751.763 79.7203L753.825 79.6052L760.01 79.2599C762.072 79.1448 761.957 77.0835 764.019 76.9684L768.142 76.7382C770.204 76.6231 769.859 70.4391 776.159 72.1551L778.221 72.04C780.167 69.8636 786.813 77.7635 788.529 71.4645C794.83 73.1805 794.83 73.1805 796.776 71.004C796.776 71.004 802.847 68.5974 805.023 70.5436L809.147 70.3134C813.385 72.1445 815.332 69.9681 819.456 69.7379C821.747 73.7454 827.933 73.4001 829.879 71.2236C836.18 72.9396 836.295 75.001 838.241 72.8245C840.303 72.7094 844.542 74.5405 846.604 74.4254C853.019 78.2027 852.789 74.0801 857.027 75.9112L861.151 75.681L863.212 75.5659C867.221 73.2744 866.876 67.0904 885.431 66.0544C897.802 65.3638 889.44 63.7629 897.687 63.3025C899.979 67.31 910.287 66.7345 916.242 62.2665C918.304 62.1514 918.419 64.2127 920.481 64.0976C922.543 63.9825 924.72 65.9287 926.781 65.8136C933.082 67.5296 932.851 63.407 937.09 65.2381C939.152 65.123 941.098 62.9465 943.275 64.8928C945.567 68.9003 949.46 64.5474 953.814 68.4399C960.229 72.2172 978.67 69.1199 986.917 68.6595C991.041 68.4293 988.864 66.4831 994.934 64.0764C998.942 61.7849 998.942 61.7849 1003.07 61.5547C1009.37 63.2707 1007.07 59.2631 1011.31 61.0942C1015.55 62.9253 1019.67 62.6951 1023.8 62.4649C1025.86 62.3498 1027.92 62.2347 1027.81 60.1734C1036.17 61.7743 1048.42 59.0223 1050.49 58.9072C1052.43 56.7308 1056.67 58.5619 1060.79 58.3317C1064.92 58.1014 1065.15 62.2241 1075.34 59.5872C1077.4 59.4721 1075.23 57.5259 1077.17 55.3495C1079.24 55.2344 1077.06 53.2881 1083.36 55.0042L1093.67 54.4286C1097.79 54.1984 1103.75 49.7304 1103.52 45.6078C1107.64 45.3776 1116.23 51.1011 1134.1 37.6972C1136.16 37.5821 1142.69 43.4208 1146.58 39.0679C1150.59 36.7764 1152.77 38.7226 1154.6 34.4848C1156.43 30.2471 1158.38 28.0707 1162.73 31.9631C1167.08 35.8555 1168.92 31.6178 1173.27 35.5102C1177.62 39.4026 1179.57 37.2262 1189.88 36.6507L1196.06 36.3053C1202.36 38.0214 1215.08 43.5147 1214.39 31.1467L1222.64 30.6863C1228.48 24.157 1262.62 42.9285 1265.59 22.0851C1275.67 17.3869 1271.08 9.37184 1277.27 9.02653Z" fill="#FFEB26"/>
</g>
<defs>
<clipPath id="clip0">
<rect width="1280" height="352" fill="white"/>
</clipPath>
</defs>
</svg>
