<svg width="1280" height="352" viewBox="0 0 1280 352" fill="none" xmlns="http://www.w3.org/2000/svg">
<g clip-path="url(#clip0)">
<path d="M2.73199 35.3838C0.670257 35.2687 4.31898 30.6856 0.0804334 32.5167L0.0804902 216.642C5.783 218.621 7.38147 218.794 7.76366 218.721C7.8102 218.974 8.34483 219.765 10.9302 221.939C14.9386 224.23 15.0538 222.169 19.0621 224.461C23.0705 226.752 27.3091 224.921 33.3792 227.328C35.4409 227.443 47.5812 232.256 49.7581 230.31C51.9349 228.364 56.0583 228.594 58.1201 228.709L62.2435 228.939L72.5523 229.515C76.6758 229.745 78.6224 231.921 82.7459 232.151L93.0546 232.727C101.417 231.126 105.77 227.234 107.602 231.471C107.487 233.533 111.61 233.763 115.734 233.993C119.857 234.223 125.697 240.753 142.191 241.674C144.253 241.789 148.492 239.958 148.376 242.019C150.323 244.195 154.332 246.487 156.393 246.602C158.34 248.778 164.64 247.062 168.764 247.293C170.825 247.408 175.064 245.577 175.064 245.577C193.735 244.551 181.249 245.922 193.85 242.49C195.912 242.605 200.15 240.774 202.097 242.95C205.99 247.303 210.344 243.411 214.352 245.702C216.529 243.756 218.591 243.871 220.653 243.986C220.653 243.986 243.217 247.314 247.57 243.421C249.747 241.475 253.756 243.767 255.817 243.882C291.097 241.716 272.196 246.864 313.546 247.105L323.855 247.68C323.855 247.68 325.917 247.795 328.094 245.849L332.217 246.079C334.164 248.256 334.279 246.194 342.526 246.655C346.534 248.946 352.95 245.169 359.135 245.514C361.312 243.568 365.55 241.737 367.612 241.852C369.674 241.967 367.727 239.791 376.089 238.19C384.451 236.589 386.283 240.827 390.521 238.996C409.883 225.602 413.546 234.078 419.961 230.301C422.023 230.416 428.323 228.7 428.208 230.761C430.04 234.999 432.216 233.053 436.225 235.344C450.312 242.334 456.842 236.495 466.691 245.316C468.637 247.492 470.814 245.546 476.999 245.892C509.987 247.733 493.263 250.935 511.819 251.971C520.066 252.431 518.004 252.316 519.951 254.493C524.074 254.723 530.029 259.191 532.091 259.306C534.153 259.421 536.214 259.536 538.161 261.713C545.948 270.418 548.47 262.288 566.45 273.631C576.989 270.084 578.936 272.26 585.121 272.605C593.368 273.066 589.129 274.897 597.376 275.357C601.5 275.588 599.323 277.534 603.446 277.764C611.693 278.225 605.278 282.002 613.525 282.462C613.41 284.524 623.949 280.976 623.949 280.976L632.196 281.437C640.558 279.836 648.575 284.419 656.937 282.818L669.307 283.509C671.369 283.624 681.793 282.138 683.854 282.253C690.04 282.599 745.477 289.829 768.271 289.034C776.633 287.433 766.324 286.858 789.003 288.124C793.127 288.354 795.073 290.53 799.312 288.699L805.497 289.045L809.621 289.275C815.691 291.681 817.983 287.674 828.176 290.311C832.3 290.541 830.353 288.365 834.477 288.595L853.032 289.631L859.218 289.976C863.341 290.206 869.641 288.49 875.827 288.836C886.135 289.411 881.667 295.365 908.7 292.739C916.946 293.199 941.227 302.826 949.704 299.163C953.828 299.394 958.066 297.562 962.075 299.854C966.083 302.146 974.675 296.422 984.869 299.059C986.931 299.174 989.107 297.228 995.178 299.634L1011.67 300.555C1013.73 300.67 1015.8 300.785 1017.97 298.839L1020.03 298.954C1028.28 299.415 1028.51 295.292 1032.63 295.522C1045 296.213 1040.77 298.044 1057.15 301.026C1059.21 301.141 1075.47 306.185 1077.53 306.3C1083.49 310.768 1104.1 311.919 1106.05 314.095C1110.29 312.264 1112.12 316.502 1116.25 316.732C1116.25 316.732 1118.42 314.786 1120.37 316.963C1126.32 321.43 1138.69 322.121 1140.87 320.175C1145.11 318.344 1181.88 326.6 1188.06 326.945C1194.36 325.229 1192.3 325.114 1196.42 325.344C1223 330.963 1275.95 335.412 1280.08 335.643L1280.08 254.642L1280.08 192.185C1275.95 191.955 1272.4 186.911 1266.33 184.505C1262.44 180.152 1258.2 181.983 1256.25 179.807C1254.31 177.63 1254.31 177.63 1250.18 177.4C1246.06 177.17 1243.88 179.116 1239.76 178.886L1237.7 178.771C1233.69 176.479 1231.51 178.425 1229.45 178.31L1223.26 177.965C1208.72 179.22 1217.19 175.558 1184.32 171.655C1182.26 171.54 1178.25 169.249 1171.95 170.965C1169.77 172.911 1163.7 170.504 1161.76 168.328C1159.7 168.213 1159.93 164.09 1153.74 163.745C1151.68 163.63 1141.49 160.993 1137.25 162.824C1135.07 164.77 1133.12 162.594 1129 162.363C1126.82 164.31 1122.81 162.018 1118.69 161.788C1116.51 163.734 1110.44 161.327 1110.44 161.327C1106.32 161.097 1104.37 158.921 1098.3 156.514C1094.07 158.345 1092.12 156.169 1092.23 154.107C1074.14 144.826 1086.05 153.762 1073.91 148.949C1071.85 148.834 1067.61 150.665 1063.6 148.373C1061.54 148.258 1049.28 145.506 1049.28 145.506C1047.22 145.391 1042.98 147.222 1038.97 144.931L1032.79 144.585L1030.73 144.47C1020.3 145.956 1000.15 136.56 995.907 138.391L993.845 138.276C991.784 138.161 987.775 135.869 985.714 135.754C983.767 133.578 981.82 131.401 967.273 132.657L954.902 131.966C928.1 130.47 948.717 131.621 932.108 132.761C921.799 132.186 921.684 134.247 915.614 131.84C882.051 140.305 886.405 136.413 865.672 137.323C865.557 139.384 863.61 137.208 861.434 139.154L851.125 138.579C849.063 138.464 845.17 134.111 843.108 133.996L830.738 133.305C826.614 133.075 826.499 135.136 822.375 134.906C810.005 134.215 820.199 136.852 801.643 135.816C801.643 135.816 801.528 137.877 793.281 137.417L780.91 136.726C770.717 134.089 758.231 135.46 756.17 135.345L743.799 134.654C739.676 134.424 733.605 132.018 725.358 131.557C702.909 126.168 715.05 130.982 688.362 127.424C684.239 127.194 682.292 125.017 682.292 125.017C680.23 124.902 676.107 124.672 674.16 122.495C672.214 120.319 668.09 120.089 663.967 119.859C651.711 117.107 651.826 115.045 649.649 116.992L643.464 116.646C643.464 116.646 637.164 118.362 628.802 119.963C626.74 119.848 618.608 117.326 616.546 117.211L614.485 117.096C610.246 118.927 608.415 114.689 606.123 118.697C601.769 122.589 601.999 118.467 597.876 118.237C579.09 121.323 587.567 117.661 581.382 117.316C575.196 116.97 571.533 108.495 569.356 110.441C565.118 112.272 562.941 114.218 560.994 112.042C558.933 111.927 558.818 113.988 554.809 111.697C544.731 106.998 546.562 111.236 540.607 106.768C532.59 102.185 536.714 102.415 530.414 104.131L528.237 106.078L526.175 105.962L519.99 105.617C517.928 105.502 518.043 103.441 515.981 103.326L511.858 103.095C509.796 102.98 510.141 96.7963 503.841 98.5123L501.779 98.3972C499.833 96.2208 493.187 104.121 491.471 97.8217C485.17 99.5377 485.17 99.5377 483.224 97.3613C483.224 97.3613 477.153 94.9546 474.977 96.9008L470.853 96.6706C466.615 98.5017 464.668 96.3253 460.544 96.0951C458.253 100.103 452.067 99.7573 450.121 97.5809C443.82 99.2969 443.705 101.358 441.759 99.1818C439.697 99.0667 435.458 100.898 433.396 100.783C426.981 104.56 427.211 100.437 422.973 102.268L418.849 102.038L416.788 101.923C412.779 99.6316 413.124 93.4476 394.569 92.4117C382.198 91.721 390.56 90.1201 382.313 89.6597C380.021 93.6672 369.713 93.0917 363.758 88.6237C361.696 88.5086 361.581 90.57 359.519 90.4548C357.457 90.3397 355.28 92.286 353.219 92.1709C346.918 93.8869 347.149 89.7642 342.91 91.5953C340.848 91.4802 338.902 89.3038 336.725 91.25C334.433 95.2575 330.54 90.9047 326.186 94.7971C319.771 98.5744 301.33 95.4771 293.083 95.0167C288.959 94.7865 291.136 92.8403 285.066 90.4336C281.058 88.1421 281.058 88.1421 276.934 87.9119C270.634 89.6279 272.926 85.6204 268.687 87.4515C264.449 89.2826 260.325 89.0524 256.202 88.8221C254.14 88.707 252.078 88.5919 252.193 86.5306C243.831 88.1315 231.576 85.3795 229.514 85.2644C227.567 83.088 223.329 84.9191 219.205 84.6889C215.082 84.4587 214.852 88.5813 204.658 85.9445C202.596 85.8294 204.773 83.8831 202.826 81.7067C200.765 81.5916 202.941 79.6454 196.641 81.3614L186.332 80.7859C182.209 80.5556 176.254 76.0877 176.484 71.965C172.361 71.7348 163.768 77.4584 145.903 64.0545C143.841 63.9394 137.311 69.778 133.418 65.4251C129.409 63.1336 127.232 65.0798 125.401 60.8421C123.569 56.6043 121.623 54.4279 117.269 58.3203C112.915 62.2128 111.084 57.975 106.73 61.8674C102.376 65.7599 100.43 63.5834 90.1211 63.0079L83.9358 62.6626C77.6355 64.3786 64.9198 69.8719 65.6103 57.504L57.3633 57.0436C51.5234 50.5143 17.3846 69.2858 14.412 48.4423C4.33338 43.7442 8.91718 35.7291 2.73199 35.3838Z" fill="#272727" fill-opacity="0.3"/>
<path d="M2.73199 30.027C0.670257 29.9119 4.31898 25.3288 0.0804334 27.1599L0.0804902 211.286C5.783 213.265 7.38147 213.437 7.76366 213.365C7.8102 213.617 8.34483 214.408 10.9302 216.582C14.9386 218.874 15.0538 216.812 19.0621 219.104C23.0705 221.395 27.3091 219.564 33.3792 221.971C35.4409 222.086 47.5812 226.899 49.7581 224.953C51.9349 223.007 56.0583 223.237 58.1201 223.352L62.2435 223.582L72.5523 224.158C76.6758 224.388 78.6224 226.564 82.7459 226.795L93.0546 227.37C101.417 225.769 105.77 221.877 107.602 226.115C107.487 228.176 111.61 228.406 115.734 228.636C119.857 228.867 125.697 235.396 142.191 236.317C144.253 236.432 148.492 234.601 148.376 236.662C150.323 238.839 154.332 241.13 156.393 241.245C158.34 243.422 164.64 241.706 168.764 241.936C170.825 242.051 175.064 240.22 175.064 240.22C193.735 239.194 181.249 240.565 193.85 237.133C195.912 237.248 200.15 235.417 202.097 237.594C205.99 241.946 210.344 238.054 214.352 240.346C216.529 238.399 218.591 238.514 220.653 238.629C220.653 238.629 243.217 241.957 247.57 238.065C249.747 236.118 253.756 238.41 255.817 238.525C291.097 236.359 272.196 241.507 313.546 241.748L323.855 242.324C323.855 242.324 325.917 242.439 328.094 240.492L332.217 240.723C334.164 242.899 334.279 240.838 342.526 241.298C346.534 243.59 352.95 239.812 359.135 240.158C361.312 238.211 365.55 236.38 367.612 236.495C369.674 236.611 367.727 234.434 376.089 232.833C384.451 231.232 386.283 235.47 390.521 233.639C409.883 220.246 413.546 228.721 419.961 224.944C422.023 225.059 428.323 223.343 428.208 225.404C430.04 229.642 432.216 227.696 436.225 229.987C450.312 236.977 456.842 231.138 466.691 239.959C468.637 242.136 470.814 240.19 476.999 240.535C509.987 242.377 493.263 245.578 511.819 246.614C520.066 247.075 518.004 246.96 519.951 249.136C524.074 249.366 530.029 253.834 532.091 253.949C534.153 254.064 536.214 254.18 538.161 256.356C545.948 265.062 548.47 256.932 566.45 268.274C576.989 264.727 578.936 266.903 585.121 267.249C593.368 267.709 589.129 269.54 597.376 270.001C601.5 270.231 599.323 272.177 603.446 272.407C611.693 272.868 605.278 276.645 613.525 277.106C613.41 279.167 623.949 275.62 623.949 275.62L632.196 276.08C640.558 274.479 648.575 279.062 656.937 277.461L669.307 278.152C671.369 278.267 681.793 276.781 683.854 276.897C690.04 277.242 745.477 284.472 768.271 283.677C776.633 282.076 766.324 281.501 789.003 282.767C793.127 282.997 795.073 285.174 799.312 283.342L805.497 283.688L809.621 283.918C815.691 286.325 817.983 282.317 828.176 284.954C832.3 285.184 830.353 283.008 834.477 283.238L853.032 284.274L859.218 284.619C863.341 284.849 869.641 283.133 875.827 283.479C886.135 284.054 881.667 290.008 908.7 287.382C916.946 287.842 941.227 297.469 949.704 293.807C953.828 294.037 958.066 292.206 962.075 294.497C966.083 296.789 974.675 291.065 984.869 293.702C986.931 293.817 989.107 291.871 995.178 294.278L1011.67 295.198C1013.73 295.314 1015.8 295.429 1017.97 293.482L1020.03 293.598C1028.28 294.058 1028.51 289.935 1032.63 290.166C1045 290.856 1040.77 292.687 1057.15 295.67C1059.21 295.785 1075.47 300.828 1077.53 300.943C1083.49 305.411 1104.1 306.562 1106.05 308.739C1110.29 306.908 1112.12 311.145 1116.25 311.376C1116.25 311.376 1118.42 309.429 1120.37 311.606C1126.32 316.074 1138.69 316.764 1140.87 314.818C1145.11 312.987 1181.88 321.243 1188.06 321.588C1194.36 319.872 1192.3 319.757 1196.42 319.987C1223 325.606 1275.95 330.056 1280.08 330.286L1280.08 249.286L1280.08 186.828C1275.95 186.598 1272.4 181.555 1266.33 179.148C1262.44 174.795 1258.2 176.626 1256.25 174.45C1254.31 172.273 1254.31 172.273 1250.18 172.043C1246.06 171.813 1243.88 173.759 1239.76 173.529L1237.7 173.414C1233.69 171.122 1231.51 173.069 1229.45 172.953L1223.26 172.608C1208.72 173.864 1217.19 170.201 1184.32 166.298C1182.26 166.183 1178.25 163.892 1171.95 165.608C1169.77 167.554 1163.7 165.147 1161.76 162.971C1159.7 162.856 1159.93 158.733 1153.74 158.388C1151.68 158.273 1141.49 155.636 1137.25 157.467C1135.07 159.413 1133.12 157.237 1129 157.007C1126.82 158.953 1122.81 156.661 1118.69 156.431C1116.51 158.377 1110.44 155.971 1110.44 155.971C1106.32 155.74 1104.37 153.564 1098.3 151.157C1094.07 152.988 1092.12 150.812 1092.23 148.751C1074.14 139.469 1086.05 148.405 1073.91 143.592C1071.85 143.477 1067.61 145.308 1063.6 143.017C1061.54 142.901 1049.28 140.149 1049.28 140.149C1047.22 140.034 1042.98 141.865 1038.97 139.574L1032.79 139.229L1030.73 139.114C1020.3 140.599 1000.15 131.203 995.907 133.034L993.845 132.919C991.784 132.804 987.775 130.512 985.714 130.397C983.767 128.221 981.82 126.044 967.273 127.3L954.902 126.609C928.1 125.113 948.717 126.264 932.108 127.404C921.799 126.829 921.684 128.89 915.614 126.484C882.051 134.948 886.405 131.056 865.672 131.966C865.557 134.028 863.61 131.851 861.434 133.797L851.125 133.222C849.063 133.107 845.17 128.754 843.108 128.639L830.738 127.948C826.614 127.718 826.499 129.779 822.375 129.549C810.005 128.858 820.199 131.495 801.643 130.459C801.643 130.459 801.528 132.521 793.281 132.06L780.91 131.37C770.717 128.733 758.231 130.103 756.17 129.988L743.799 129.298C739.676 129.067 733.605 126.661 725.358 126.2C702.909 120.812 715.05 125.625 688.362 122.067C684.239 121.837 682.292 119.66 682.292 119.66C680.23 119.545 676.107 119.315 674.16 117.139C672.214 114.962 668.09 114.732 663.967 114.502C651.711 111.75 651.826 109.689 649.649 111.635L643.464 111.289C643.464 111.289 637.164 113.005 628.802 114.606C626.74 114.491 618.608 111.969 616.546 111.854L614.485 111.739C610.246 113.57 608.415 109.333 606.123 113.34C601.769 117.233 601.999 113.11 597.876 112.88C579.09 115.966 587.567 112.304 581.382 111.959C575.196 111.614 571.533 103.138 569.356 105.084C565.118 106.915 562.941 108.862 560.994 106.685C558.933 106.57 558.818 108.631 554.809 106.34C544.731 101.642 546.562 105.879 540.607 101.411C532.59 96.8284 536.714 97.0586 530.414 98.7746L528.237 100.721L526.175 100.606L519.99 100.26C517.928 100.145 518.043 98.084 515.981 97.9689L511.858 97.7387C509.796 97.6235 510.141 91.4396 503.841 93.1556L501.779 93.0405C499.833 90.864 493.187 98.764 491.471 92.4649C485.17 94.1809 485.17 94.1809 483.224 92.0045C483.224 92.0045 477.153 89.5979 474.977 91.5441L470.853 91.3139C466.615 93.145 464.668 90.9686 460.544 90.7383C458.253 94.7459 452.067 94.4006 450.121 92.2241C443.82 93.9401 443.705 96.0014 441.759 93.825C439.697 93.7099 435.458 95.541 433.396 95.4259C426.981 99.2032 427.211 95.0806 422.973 96.9117L418.849 96.6815L416.788 96.5664C412.779 94.2748 413.124 88.0909 394.569 87.0549C382.198 86.3643 390.56 84.7634 382.313 84.303C380.021 88.3105 369.713 87.735 363.758 83.267C361.696 83.1519 361.581 85.2132 359.519 85.0981C357.457 84.983 355.28 86.9292 353.219 86.8141C346.918 88.5301 347.149 84.4075 342.91 86.2386C340.848 86.1235 338.902 83.947 336.725 85.8933C334.433 89.9008 330.54 85.5479 326.186 89.4404C319.771 93.2177 301.33 90.1204 293.083 89.66C288.959 89.4298 291.136 87.4835 285.066 85.0769C281.058 82.7854 281.058 82.7854 276.934 82.5551C270.634 84.2711 272.926 80.2636 268.687 82.0947C264.449 83.9258 260.325 83.6956 256.202 83.4654C254.14 83.3503 252.078 83.2352 252.193 81.1739C243.831 82.7748 231.576 80.0228 229.514 79.9077C227.567 77.7312 223.329 79.5624 219.205 79.3321C215.082 79.1019 214.852 83.2246 204.658 80.5877C202.596 80.4726 204.773 78.5264 202.826 76.35C200.765 76.2349 202.941 74.2886 196.641 76.0046L186.332 75.4291C182.209 75.1989 176.254 70.7309 176.484 66.6083C172.361 66.3781 163.768 72.1016 145.903 58.6977C143.841 58.5826 137.311 64.4213 133.418 60.0684C129.409 57.7769 127.232 59.7231 125.401 55.4853C123.569 51.2476 121.623 49.0711 117.269 52.9636C112.915 56.856 111.084 52.6183 106.73 56.5107C102.376 60.4031 100.43 58.2267 90.1211 57.6512L83.9358 57.3058C77.6355 59.0218 64.9198 64.5152 65.6103 52.1472L57.3633 51.6868C51.5234 45.1575 17.3846 63.929 14.412 43.0856C4.33338 38.3874 8.91718 30.3723 2.73199 30.027Z" fill="#FFEB26"/>
</g>
<defs>
<clipPath id="clip0">
<rect width="1280" height="352" fill="white" transform="matrix(-1 0 0 1 1280 0)"/>
</clipPath>
</defs>
</svg>
