<svg width="1280" height="311" viewBox="0 0 1280 311" fill="none" xmlns="http://www.w3.org/2000/svg">
<g clip-path="url(#clip0)">
<path d="M-10.973 270.87L-5.1066 182.813L-0.0546283 106.981C14.4436 103.008 4.93177 104.708 13.2576 98.6033C17.4095 96.5833 17.3874 98.6477 21.5392 96.6277C25.6911 94.6076 29.7985 96.7165 36.0152 94.7187C38.08 94.7409 50.5135 90.7452 52.5561 92.8318C54.5987 94.9184 58.7284 94.9628 60.7932 94.985L64.9228 95.0294L75.2471 95.1404C79.3767 95.1848 81.4637 93.1426 85.5934 93.187L95.9176 93.298C104.155 95.4512 108.24 99.6245 110.349 95.5178C110.371 93.4534 114.501 93.4978 118.631 93.5422C122.76 93.5866 129.022 87.46 145.54 87.6375C147.605 87.6597 151.713 89.7686 151.735 87.7041C153.822 85.6619 157.974 83.6419 160.038 83.6641C162.125 81.6219 168.298 83.7529 172.427 83.7973C174.492 83.8195 178.6 85.9283 178.6 85.9283C197.161 88.1925 184.794 85.9949 197.139 90.2569C199.204 90.2791 203.311 92.388 205.398 90.3457C209.572 86.2613 213.658 90.4345 217.809 88.4145C219.852 90.5011 221.917 90.5233 223.982 90.5455C223.982 90.5455 246.717 88.7253 250.802 92.8985C252.845 94.9851 256.996 92.9651 259.061 92.9873C294.119 97.4935 275.601 91.1005 316.876 93.6089L327.2 93.7199C327.2 93.7199 329.265 93.7421 331.308 95.8287L335.437 95.8731C337.524 93.8309 337.502 95.8953 345.761 95.9841C349.913 93.9641 356.063 98.1595 362.258 98.2261C364.301 100.313 368.408 102.422 370.473 102.444C372.538 102.466 370.451 104.508 378.688 106.661C386.925 108.815 389.034 104.708 393.142 106.817C411.57 121.467 415.788 113.254 421.938 117.45C424.003 117.472 430.175 119.603 430.198 117.538C432.307 113.432 434.35 115.518 438.501 113.498C453.022 107.461 459.15 113.72 469.563 105.574C471.65 103.531 473.692 105.618 479.887 105.685C512.924 106.04 496.45 101.733 515.033 101.933C523.293 102.022 521.228 102 523.315 99.9577C527.445 100.002 533.684 95.9398 535.748 95.962C537.813 95.9842 539.878 96.0064 541.965 93.9642C550.313 85.7953 552.289 94.0752 570.984 83.9529C581.264 88.1927 583.351 86.1505 589.545 86.2171C597.804 86.3059 593.697 84.1971 601.956 84.2859C606.086 84.3303 604.043 82.2437 608.173 82.2881C616.432 82.3769 610.282 78.1815 618.541 78.2703C618.564 76.2058 628.843 80.4457 628.843 80.4457L637.103 80.5345C645.34 82.6877 653.644 78.6476 661.881 80.8008L674.27 80.934C676.335 80.9562 686.637 83.1316 688.702 83.1538C694.896 83.2204 750.691 79.691 773.382 81.9996C781.619 84.1528 771.295 84.0418 794.008 84.286C798.138 84.3304 800.225 82.2882 804.332 84.397L810.527 84.4636L814.656 84.508C820.873 82.5102 822.894 86.6612 833.24 84.7078C837.37 84.7522 835.283 86.7944 839.412 86.8388L857.996 87.0386L864.19 87.1052C868.32 87.1496 874.492 89.2806 880.687 89.3472C891.011 89.4582 886.948 83.2206 913.746 87.638C922.006 87.7268 946.872 79.7355 955.087 83.9531C959.217 83.9975 963.325 86.1063 967.476 84.0863C971.628 82.0663 979.821 88.3483 990.167 86.3949C992.232 86.4171 994.275 88.5037 1000.49 86.5059L1017.01 86.6835C1019.08 86.7057 1021.14 86.7279 1023.18 88.8145L1025.25 88.8367C1033.51 88.9255 1033.46 93.0544 1037.59 93.0988C1049.98 93.232 1045.87 91.1231 1062.41 89.2363C1064.48 89.2585 1081.04 85.3073 1083.11 85.3295C1089.35 81.2673 1109.99 81.4893 1112.08 79.447C1116.19 81.5558 1118.3 77.4492 1122.43 77.4936C1122.43 77.4936 1124.47 79.5802 1126.56 77.538C1132.8 73.4758 1145.19 73.609 1147.23 75.6956C1151.34 77.8044 1188.57 72.0107 1194.76 72.0773C1200.94 74.2083 1198.87 74.1862 1203 74.2306C1229.89 70.3903 1281.79 67.3328 1285.92 67.3772L1280.77 144.706L1283 211C1278.87 210.956 1269.61 217.408 1263.39 219.405C1259.22 223.49 1255.11 221.381 1253.02 223.423C1250.94 225.465 1250.94 225.465 1246.81 225.421L1246.81 225.421C1242.68 225.377 1240.63 223.29 1236.5 223.246L1234.44 223.223C1230.29 225.243 1228.25 223.157 1226.18 223.135L1219.99 223.068C1205.55 220.848 1213.77 225.066 1180.71 226.775C1178.65 226.753 1174.49 228.773 1168.32 226.642C1166.28 224.555 1160.06 226.553 1157.97 228.595C1155.91 228.573 1155.87 232.702 1149.67 232.635C1147.61 232.613 1137.26 234.567 1133.15 232.458C1131.11 230.371 1129.02 232.413 1124.89 232.369C1122.85 230.282 1118.7 232.302 1114.57 232.258C1112.53 230.171 1106.31 232.169 1106.31 232.169C1102.18 232.125 1100.09 234.167 1093.88 236.165C1089.77 234.056 1087.68 236.098 1087.66 238.163C1068.99 246.22 1081.46 238.096 1069.03 242.092C1066.97 242.069 1062.86 239.961 1058.71 241.981C1056.64 241.958 1044.23 243.89 1044.23 243.89C1042.17 243.867 1038.06 241.759 1033.91 243.779L1027.71 243.712L1025.65 243.69C1015.35 241.514 994.609 249.55 990.501 247.441L988.436 247.419C986.371 247.397 982.22 249.417 980.155 249.395C978.068 251.437 975.981 253.479 961.549 251.259L949.16 251.126C922.317 250.838 942.965 251.06 926.469 248.818C916.145 248.707 916.167 246.642 909.95 248.64C877.024 237.963 881.109 242.136 860.483 239.85C860.505 237.785 858.418 239.827 856.376 237.741L846.051 237.63C843.987 237.608 839.813 241.692 837.748 241.67L825.359 241.537C821.229 241.492 821.251 239.428 817.122 239.383C804.733 239.25 815.079 237.297 796.495 237.097C796.495 237.097 796.518 235.033 788.258 234.944L775.869 234.811C765.523 236.764 753.156 234.566 751.091 234.544L738.702 234.411C734.573 234.367 728.356 236.364 720.096 236.276C697.339 240.16 709.772 236.165 682.907 237.94C678.778 237.896 676.691 239.938 676.691 239.938C674.626 239.916 670.496 239.872 668.409 241.914C666.322 243.956 662.192 243.912 658.063 243.867C645.651 245.798 645.629 247.863 643.587 245.776L637.392 245.71C637.392 245.71 631.22 243.579 622.983 241.425C620.918 241.403 612.636 243.379 610.571 243.357L608.507 243.334C604.399 241.226 602.29 245.332 600.269 241.181C596.184 237.008 596.14 241.137 592.01 241.092C573.471 236.764 581.686 240.981 575.491 240.915C569.297 240.848 565.078 249.062 563.036 246.975C558.928 244.866 556.886 242.779 554.799 244.822C552.734 244.799 552.756 242.735 548.604 244.755C538.236 248.773 540.345 244.666 534.106 248.729C525.802 252.769 529.932 252.813 523.76 250.682L521.717 248.595L519.652 248.573L513.458 248.507C511.393 248.484 511.371 250.549 509.306 250.527L505.176 250.482C503.111 250.46 503.045 256.653 496.872 254.522L494.808 254.5C492.721 256.542 486.615 248.218 484.483 254.389C478.311 252.258 478.311 252.258 476.224 254.3C476.224 254.3 470.007 256.298 467.965 254.211L463.835 254.167C459.728 252.058 457.641 254.1 453.511 254.056C451.49 249.905 445.296 249.838 443.209 251.881C437.037 249.75 437.059 247.685 434.972 249.727C432.907 249.705 428.799 247.596 426.735 247.574C420.584 243.379 420.54 247.508 416.433 245.399L412.303 245.354L410.238 245.332C406.086 247.352 406.02 253.545 387.436 253.346C375.047 253.212 383.284 255.366 375.025 255.277C373.004 251.126 362.68 251.015 356.441 255.077C354.377 255.055 354.399 252.99 352.334 252.968C350.269 252.946 348.226 250.859 346.162 250.837C339.989 248.706 339.945 252.835 335.837 250.726C333.773 250.704 331.686 252.746 329.643 250.66C327.623 246.509 323.448 250.593 319.363 246.42C313.213 242.224 294.607 244.089 286.348 244C282.218 243.956 284.261 246.042 278.044 248.04C273.892 250.06 273.892 250.06 269.763 250.016C263.59 247.885 265.611 252.036 261.503 249.927C257.396 247.818 253.267 247.774 249.138 247.729C247.073 247.707 245.008 247.685 244.986 249.75C236.749 247.596 224.338 249.528 222.273 249.505C220.186 251.548 216.078 249.439 211.949 249.394C207.819 249.35 207.863 245.221 197.517 247.175C195.452 247.152 197.495 249.239 195.408 251.281C193.343 251.259 195.385 253.346 189.213 251.215L178.889 251.104C174.759 251.059 168.52 255.121 168.476 259.25C164.346 259.206 156.154 252.924 137.437 265.11C135.372 265.088 129.244 258.828 125.07 262.913C120.918 264.933 118.876 262.846 116.766 266.953C114.657 271.06 112.57 273.102 108.485 268.929C104.4 264.755 102.29 268.862 98.2051 264.689C94.1198 260.515 92.0329 262.558 81.7087 262.447L75.5141 262.38C69.3418 260.249 57.0194 253.923 56.8862 266.309L48.6269 266.22C42.3659 272.347 9.55042 251.348 5.19883 271.947C-5.16979 275.965 -4.77855 270.936 -10.973 270.87Z" fill="#272727" fill-opacity="0.3"/>
<path d="M-10.9727 265.41L-5.10626 177.354L-0.0542945 101.522C14.444 97.5483 4.93211 99.2482 13.258 93.1437C17.4098 91.1237 17.3877 93.1881 21.5396 91.1681C25.6914 89.1481 29.7989 91.2569 36.0155 89.2591C38.0804 89.2813 50.5138 85.2857 52.5564 87.3723C54.5991 89.4589 58.7287 89.5033 60.7935 89.5255L64.9232 89.5699L75.2474 89.6809C79.377 89.7253 81.4641 87.6831 85.5937 87.7275L95.9179 87.8385C104.155 89.9917 108.24 94.1649 110.35 90.0583C110.372 87.9939 114.501 88.0383 118.631 88.0827C122.761 88.1271 129.022 82.0004 145.541 82.178C147.605 82.2002 151.713 84.309 151.735 82.2446C153.822 80.2024 157.974 78.1824 160.039 78.2046C162.126 76.1624 168.298 78.2934 172.428 78.3378C174.493 78.36 178.6 80.4688 178.6 80.4688C197.161 82.733 184.795 80.5354 197.139 84.7974C199.204 84.8196 203.311 86.9284 205.398 84.8862C209.573 80.8018 213.658 84.975 217.81 82.955C219.852 85.0416 221.917 85.0638 223.982 85.086C223.982 85.086 246.717 83.2658 250.803 87.439C252.845 89.5256 256.996 87.5056 259.061 87.5278C294.119 92.034 275.601 85.6409 316.876 88.1493L327.2 88.2603C327.2 88.2603 329.265 88.2825 331.307 90.3692L335.437 90.4136C337.524 88.3713 337.502 90.4358 345.761 90.5245C349.913 88.5045 356.063 92.7 362.258 92.7666C364.3 94.8532 368.408 96.962 370.472 96.9842C372.537 97.0064 370.45 99.0486 378.687 101.202C386.925 103.355 389.034 99.2484 393.141 101.357C411.569 116.008 415.788 107.795 421.938 111.99C424.003 112.012 430.175 114.143 430.197 112.079C432.306 107.972 434.349 110.059 438.501 108.039C453.021 102.001 459.149 108.261 469.562 100.114C471.649 98.0719 473.692 100.159 479.886 100.225C512.924 100.58 496.45 96.2739 515.033 96.4737C523.292 96.5625 521.228 96.5403 523.315 94.4981C527.444 94.5425 533.683 90.4802 535.748 90.5024C537.813 90.5246 539.878 90.5469 541.965 88.5046C550.313 80.3358 552.289 88.6156 570.983 78.4934C581.263 82.7332 583.35 80.691 589.545 80.7576C597.804 80.8464 593.696 78.7376 601.956 78.8264C606.085 78.8708 604.043 76.7841 608.173 76.8285C616.432 76.9173 610.282 72.7219 618.541 72.8107C618.563 70.7463 628.843 74.9861 628.843 74.9861L637.102 75.0749C645.34 77.2281 653.643 73.1881 661.88 75.3413L674.269 75.4745C676.334 75.4967 686.636 77.6721 688.701 77.6943C694.896 77.7609 750.691 74.2315 773.382 76.5401C781.619 78.6933 771.295 78.5823 794.008 78.8265C798.138 78.8709 800.225 76.8287 804.333 78.9375L810.527 79.0041L814.657 79.0485C820.873 77.0506 822.894 81.2017 833.24 79.2483C837.37 79.2926 835.283 81.3349 839.413 81.3793L857.996 81.5791L864.191 81.6457C868.32 81.6901 874.493 83.8211 880.687 83.8877C891.011 83.9986 886.948 77.761 913.747 82.1784C922.006 82.2672 946.873 74.276 955.088 78.4936C959.217 78.538 963.325 80.6468 967.477 78.6268C971.629 76.6068 979.821 82.8888 990.168 80.9354C992.232 80.9576 994.275 83.0442 1000.49 81.0464L1017.01 81.224C1019.08 81.2462 1021.14 81.2684 1023.18 83.355L1025.25 83.3772C1033.51 83.466 1033.46 87.5948 1037.59 87.6392C1049.98 87.7724 1045.87 85.6636 1062.41 83.7768C1064.48 83.799 1081.04 79.8477 1083.11 79.8699C1089.35 75.8077 1109.99 76.0297 1112.08 73.9875C1116.19 76.0963 1118.3 71.9897 1122.43 72.0341C1122.43 72.0341 1124.47 74.1207 1126.56 72.0785C1132.8 68.0162 1145.19 68.1494 1147.23 70.236C1151.34 72.3449 1188.57 66.5512 1194.76 66.6178C1200.94 68.7488 1198.87 68.7266 1203 68.771C1229.89 64.9308 1281.79 61.8733 1285.92 61.9177L1285.92 138.5L1285.92 206C1281.79 205.956 1269.61 211.948 1263.39 213.946C1259.22 218.03 1255.11 215.922 1253.02 217.964C1250.94 220.006 1250.94 220.006 1246.81 219.962L1246.81 219.962C1242.68 219.917 1240.63 217.831 1236.51 217.786L1234.44 217.764C1230.29 219.784 1228.25 217.697 1226.18 217.675L1219.99 217.609C1205.55 215.389 1213.77 219.606 1180.71 221.316C1178.65 221.293 1174.49 223.313 1168.32 221.182C1166.28 219.096 1160.06 221.094 1157.97 223.136C1155.91 223.114 1155.87 227.242 1149.67 227.176C1147.61 227.154 1137.26 229.107 1133.15 226.998C1131.11 224.912 1129.02 226.954 1124.89 226.909C1122.85 224.823 1118.7 226.843 1114.57 226.798C1112.53 224.712 1106.31 226.71 1106.31 226.71C1102.18 226.665 1100.09 228.707 1093.88 230.705C1089.77 228.596 1087.68 230.639 1087.66 232.703C1068.99 240.761 1081.46 232.636 1069.03 236.632C1066.97 236.61 1062.86 234.501 1058.71 236.521C1056.64 236.499 1044.23 238.43 1044.23 238.43C1042.17 238.408 1038.06 236.299 1033.91 238.319L1027.71 238.253L1025.65 238.23C1015.35 236.055 994.609 244.091 990.501 241.982L988.436 241.96C986.372 241.937 982.22 243.957 980.155 243.935C978.068 245.977 975.981 248.02 961.549 245.8L949.16 245.667C922.317 245.378 942.966 245.6 926.469 243.358C916.145 243.247 916.167 241.183 909.951 243.18C877.024 232.503 881.109 236.676 860.483 234.39C860.506 232.326 858.418 234.368 856.376 232.281L846.052 232.17C843.987 232.148 839.813 236.232 837.748 236.21L825.359 236.077C821.229 236.033 821.251 233.968 817.122 233.924C804.733 233.791 815.079 231.837 796.496 231.637C796.496 231.637 796.518 229.573 788.258 229.484L775.869 229.351C765.523 231.304 753.156 229.107 751.091 229.085L738.702 228.951C734.572 228.907 728.355 230.905 720.096 230.816C697.338 234.701 709.772 230.705 682.907 232.481C678.777 232.436 676.69 234.479 676.69 234.479C674.625 234.456 670.496 234.412 668.409 236.454C666.322 238.496 662.192 238.452 658.062 238.408C645.651 240.339 645.629 242.403 643.586 240.317L637.392 240.25C637.392 240.25 631.219 238.119 622.982 235.966C620.917 235.944 612.636 237.919 610.571 237.897L608.506 237.875C604.399 235.766 602.289 239.873 600.269 235.722C596.184 231.548 596.139 235.677 592.01 235.633C573.471 231.304 581.686 235.522 575.491 235.455C569.296 235.389 565.078 243.602 563.035 241.515C558.928 239.407 556.885 237.32 554.798 239.362C552.733 239.34 552.756 237.276 548.604 239.296C538.235 243.313 540.344 239.207 534.106 243.269C525.802 247.309 529.932 247.353 523.759 245.222L521.717 243.136L519.652 243.114L513.457 243.047C511.392 243.025 511.37 245.089 509.305 245.067L505.176 245.023C503.111 245 503.044 251.194 496.872 249.063L494.807 249.04C492.72 251.083 486.614 242.758 484.483 248.929C478.311 246.798 478.311 246.798 476.224 248.841C476.224 248.841 470.007 250.838 467.964 248.752L463.835 248.707C459.727 246.599 457.64 248.641 453.51 248.596C451.49 244.445 445.296 244.379 443.208 246.421C437.036 244.29 437.058 242.226 434.971 244.268C432.906 244.246 428.799 242.137 426.734 242.115C420.584 237.919 420.54 242.048 416.432 239.939L412.303 239.895L410.238 239.873C406.086 241.893 406.019 248.086 387.436 247.886C375.047 247.753 383.284 249.906 375.024 249.817C373.004 245.666 362.68 245.555 356.441 249.618C354.376 249.595 354.398 247.531 352.334 247.509C350.269 247.487 348.226 245.4 346.161 245.378C339.989 243.247 339.945 247.376 335.837 245.267C333.772 245.245 331.685 247.287 329.643 245.2C327.622 241.049 323.448 245.134 319.363 240.96C313.213 236.765 294.607 238.629 286.348 238.541C282.218 238.496 284.261 240.583 278.044 242.581C273.892 244.601 273.892 244.601 269.763 244.556C263.59 242.425 265.61 246.576 261.503 244.468C257.395 242.359 253.268 242.314 249.138 242.27C247.073 242.248 245.008 242.226 244.986 244.29C236.749 242.137 224.338 244.068 222.273 244.046C220.186 246.088 216.079 243.979 211.949 243.935C207.819 243.89 207.864 239.762 197.517 241.715C195.452 241.693 197.495 243.779 195.408 245.822C193.343 245.799 195.386 247.886 189.213 245.755L178.889 245.644C174.76 245.6 168.521 249.662 168.476 253.791C164.347 253.746 156.154 247.464 137.437 259.651C135.372 259.629 129.244 253.369 125.07 257.453C120.919 259.473 118.876 257.387 116.767 261.493C114.658 265.6 112.571 267.642 108.485 263.469C104.4 259.296 102.291 263.402 98.2054 259.229C94.1202 255.056 92.0333 257.098 81.709 256.987L75.5144 256.921C69.3422 254.79 57.0197 248.463 56.8865 260.85L48.6273 260.761C42.3662 266.887 9.55075 245.888 5.19916 266.488C-5.16946 270.506 -4.77822 265.477 -10.9727 265.41Z" fill="#FF297A"/>
</g>
<defs>
<clipPath id="clip0">
<rect width="1280" height="311" fill="white"/>
</clipPath>
</defs>
</svg>
