<svg width="1280" height="352" viewBox="0 0 1280 352" fill="none" xmlns="http://www.w3.org/2000/svg">
<g clip-path="url(#clip0)">
<path d="M1277.27 3.3837C1279.33 3.2686 1275.68 -1.31448 1279.92 0.516634L1279.92 184.642C1274.22 186.621 1272.62 186.794 1272.24 186.721C1272.19 186.974 1271.66 187.765 1269.07 189.939C1265.06 192.23 1264.95 190.169 1260.94 192.46C1256.93 194.752 1252.69 192.921 1246.62 195.327C1244.56 195.443 1232.42 200.256 1230.24 198.31C1228.07 196.363 1223.94 196.594 1221.88 196.709L1217.76 196.939L1207.45 197.515C1203.32 197.745 1201.38 199.921 1197.25 200.151L1186.95 200.727C1178.58 199.126 1174.23 195.234 1172.4 199.471C1172.51 201.533 1168.39 201.763 1164.27 201.993C1160.14 202.223 1154.3 208.753 1137.81 209.673C1135.75 209.789 1131.51 207.957 1131.62 210.019C1129.68 212.195 1125.67 214.487 1123.61 214.602C1121.66 216.778 1115.36 215.062 1111.24 215.292C1109.17 215.408 1104.94 213.576 1104.94 213.576C1086.27 212.551 1098.75 213.922 1086.15 210.49C1084.09 210.605 1079.85 208.774 1077.9 210.95C1074.01 215.303 1069.66 211.411 1065.65 213.702C1063.47 211.756 1061.41 211.871 1059.35 211.986C1059.35 211.986 1036.78 215.314 1032.43 211.421C1030.25 209.475 1026.24 211.767 1024.18 211.882C988.903 209.716 1007.8 214.864 966.454 215.105L956.145 215.68C956.145 215.68 954.083 215.795 951.906 213.849L947.783 214.079C945.836 216.256 945.721 214.194 937.474 214.655C933.466 216.946 927.05 213.169 920.865 213.514C918.688 211.568 914.45 209.737 912.388 209.852C910.326 209.967 912.273 207.791 903.911 206.19C895.549 204.589 893.717 208.827 889.479 206.996C870.117 193.602 866.454 202.078 860.039 198.301C857.977 198.416 851.677 196.7 851.792 198.761C849.96 202.999 847.784 201.053 843.775 203.344C829.688 210.334 823.158 204.495 813.309 213.316C811.363 215.492 809.186 213.546 803.001 213.892C770.013 215.733 786.737 218.935 768.181 219.971C759.934 220.431 761.996 220.316 760.049 222.493C755.926 222.723 749.971 227.191 747.909 227.306C745.847 227.421 743.786 227.536 741.839 229.713C734.052 238.418 731.53 230.288 713.55 241.631C703.011 238.084 701.064 240.26 694.879 240.605C686.632 241.066 690.871 242.897 682.624 243.357C678.5 243.588 680.677 245.534 676.554 245.764C668.307 246.224 674.722 250.002 666.475 250.462C666.59 252.524 656.051 248.976 656.051 248.976L647.804 249.437C639.442 247.836 631.425 252.419 623.063 250.818L610.693 251.509C608.631 251.624 598.207 250.138 596.146 250.253C589.96 250.599 534.523 257.829 511.729 257.034C503.367 255.433 513.676 254.857 490.997 256.124C486.873 256.354 484.927 258.53 480.688 256.699L474.503 257.044L470.379 257.275C464.309 259.681 462.017 255.674 451.824 258.311C447.7 258.541 449.647 256.364 445.523 256.595L426.968 257.631L420.782 257.976C416.659 258.206 410.359 256.49 404.173 256.835C393.865 257.411 398.333 263.365 371.3 260.739C363.054 261.199 338.773 270.826 330.296 267.163C326.172 267.394 321.934 265.562 317.925 267.854C313.917 270.145 305.325 264.422 295.131 267.059C293.069 267.174 290.893 265.228 284.822 267.634L268.328 268.555C266.267 268.67 264.205 268.785 262.028 266.839L259.966 266.954C251.719 267.415 251.489 263.292 247.366 263.522C234.995 264.213 239.234 266.044 222.855 269.026C220.793 269.141 204.529 274.185 202.468 274.3C196.513 278.768 175.895 279.919 173.949 282.095C169.71 280.264 167.878 284.502 163.755 284.732C163.755 284.732 161.578 282.786 159.631 284.962C153.676 289.43 141.306 290.121 139.129 288.175C134.891 286.344 98.1245 294.6 91.9392 294.945C85.6389 293.229 87.7007 293.114 83.5772 293.344C57.0047 298.963 4.04591 303.412 -0.0775794 303.643L-0.0781251 222.642L-0.0775789 160.185C4.04591 159.955 7.59891 154.911 13.6691 152.505C17.5624 148.152 21.8009 149.983 23.7476 147.807C25.6943 145.63 25.6943 145.63 29.8177 145.4C33.9412 145.17 36.1181 147.116 40.2415 146.886L42.3033 146.771C46.3117 144.479 48.4885 146.425 50.5503 146.31L56.7355 145.965C71.2828 147.22 62.8056 143.558 95.6784 139.655C97.7402 139.54 101.749 137.248 108.049 138.964C110.226 140.911 116.296 138.504 118.242 136.328C120.304 136.213 120.074 132.09 126.259 131.745C128.321 131.629 138.515 128.993 142.753 130.824C144.93 132.77 146.877 130.593 151 130.363C153.177 132.309 157.185 130.018 161.309 129.788C163.486 131.734 169.556 129.327 169.556 129.327C173.679 129.097 175.626 126.921 181.696 124.514C185.935 126.345 187.881 124.169 187.766 122.107C205.862 112.826 193.952 121.762 206.092 116.949C208.154 116.834 212.392 118.665 216.401 116.373C218.462 116.258 230.718 113.506 230.718 113.506C232.779 113.391 237.018 115.222 241.026 112.931L247.212 112.585L249.273 112.47C259.697 113.956 279.854 104.56 284.093 106.391L286.155 106.276C288.216 106.161 292.225 103.869 294.286 103.754C296.233 101.577 298.18 99.401 312.727 100.657L325.098 99.966C351.9 98.4696 331.283 99.6206 347.892 100.761C358.201 100.186 358.316 102.247 364.386 99.8403C397.949 108.305 393.595 104.413 414.328 105.323C414.443 107.384 416.39 105.208 418.566 107.154L428.875 106.579C430.937 106.463 434.83 102.111 436.892 101.995L449.262 101.305C453.386 101.075 453.501 103.136 457.625 102.906C469.995 102.215 459.801 104.852 478.357 103.816C478.357 103.816 478.472 105.877 486.719 105.417L499.09 104.726C509.283 102.089 521.769 103.46 523.83 103.345L536.201 102.654C540.324 102.424 546.395 100.017 554.642 99.557C577.091 94.1682 564.95 98.9815 591.638 95.4238C595.761 95.1936 597.708 93.0172 597.708 93.0172C599.77 92.902 603.893 92.6718 605.84 90.4954C607.786 88.319 611.91 88.0888 616.033 87.8585C628.289 85.1066 628.174 83.0453 630.351 84.9915L636.536 84.6462C636.536 84.6462 642.836 86.3621 651.198 87.963C653.26 87.8479 661.392 85.3262 663.454 85.2111L665.515 85.096C669.754 86.9271 671.585 82.6893 673.877 86.6969C678.231 90.5893 678.001 86.4667 682.124 86.2364C700.91 89.3231 692.433 85.6609 698.618 85.3156C704.804 84.9703 708.467 76.4948 710.644 78.441C714.882 80.2721 717.059 82.2183 719.006 80.0419C721.067 79.9268 721.182 81.9881 725.191 79.6966C735.269 74.9984 733.438 79.2361 739.393 74.7682C747.41 70.1851 743.286 70.4153 749.586 72.1313L751.763 74.0775L753.825 73.9624L760.01 73.6171C762.072 73.502 761.957 71.4407 764.019 71.3256L768.142 71.0953C770.204 70.9802 769.859 64.7963 776.159 66.5123L778.221 66.3972C780.167 64.2207 786.813 72.1207 788.529 65.8216C794.83 67.5376 794.83 67.5376 796.776 65.3612C796.776 65.3612 802.847 62.9546 805.023 64.9008L809.147 64.6706C813.385 66.5017 815.332 64.3252 819.456 64.095C821.747 68.1026 827.933 67.7572 829.879 65.5808C836.18 67.2968 836.295 69.3581 838.241 67.1817C840.303 67.0666 844.542 68.8977 846.604 68.7826C853.019 72.5599 852.789 68.4373 857.027 70.2684L861.151 70.0382L863.212 69.9231C867.221 67.6315 866.876 61.4476 885.431 60.4116C897.802 59.721 889.44 58.1201 897.687 57.6596C899.979 61.6672 910.287 61.0916 916.242 56.6237C918.304 56.5086 918.419 58.5699 920.481 58.4548C922.543 58.3397 924.72 60.2859 926.781 60.1708C933.082 61.8868 932.851 57.7641 937.09 59.5953C939.152 59.4802 941.098 57.3037 943.275 59.2499C945.567 63.2575 949.46 58.9046 953.814 62.7971C960.229 66.5744 978.67 63.4771 986.917 63.0167C991.041 62.7864 988.864 60.8402 994.934 58.4336C998.942 56.142 998.942 56.142 1003.07 55.9118C1009.37 57.6278 1007.07 53.6203 1011.31 55.4514C1015.55 57.2825 1019.67 57.0523 1023.8 56.8221C1025.86 56.707 1027.92 56.5919 1027.81 54.5305C1036.17 56.1314 1048.42 53.3795 1050.49 53.2644C1052.43 51.0879 1056.67 52.919 1060.79 52.6888C1064.92 52.4586 1065.15 56.5813 1075.34 53.9444C1077.4 53.8293 1075.23 51.8831 1077.17 49.7067C1079.24 49.5916 1077.06 47.6453 1083.36 49.3613L1093.67 48.7858C1097.79 48.5556 1103.75 44.0876 1103.52 39.965C1107.64 39.7348 1116.23 45.4583 1134.1 32.0544C1136.16 31.9393 1142.69 37.7779 1146.58 33.4251C1150.59 31.1336 1152.77 33.0798 1154.6 28.842C1156.43 24.6043 1158.38 22.4278 1162.73 26.3203C1167.08 30.2127 1168.92 25.9749 1173.27 29.8674C1177.62 33.7598 1179.57 31.5834 1189.88 31.0079L1196.06 30.6625C1202.36 32.3785 1215.08 37.8719 1214.39 25.5039L1222.64 25.0435C1228.48 18.5142 1262.62 37.2857 1265.59 16.4423C1275.67 11.7441 1271.08 3.72902 1277.27 3.3837Z" fill="#FF297A"/>
<path d="M1277.27 3.3837C1279.33 3.2686 1275.68 -1.31448 1279.92 0.516634L1279.92 184.642C1274.22 186.621 1272.62 186.794 1272.24 186.721C1272.19 186.974 1271.66 187.765 1269.07 189.939C1265.06 192.23 1264.95 190.169 1260.94 192.46C1256.93 194.752 1252.69 192.921 1246.62 195.327C1244.56 195.443 1232.42 200.256 1230.24 198.31C1228.07 196.363 1223.94 196.594 1221.88 196.709L1217.76 196.939L1207.45 197.515C1203.32 197.745 1201.38 199.921 1197.25 200.151L1186.95 200.727C1178.58 199.126 1174.23 195.234 1172.4 199.471C1172.51 201.533 1168.39 201.763 1164.27 201.993C1160.14 202.223 1154.3 208.753 1137.81 209.673C1135.75 209.789 1131.51 207.957 1131.62 210.019C1129.68 212.195 1125.67 214.487 1123.61 214.602C1121.66 216.778 1115.36 215.062 1111.24 215.292C1109.17 215.408 1104.94 213.576 1104.94 213.576C1086.27 212.551 1098.75 213.922 1086.15 210.49C1084.09 210.605 1079.85 208.774 1077.9 210.95C1074.01 215.303 1069.66 211.411 1065.65 213.702C1063.47 211.756 1061.41 211.871 1059.35 211.986C1059.35 211.986 1036.78 215.314 1032.43 211.421C1030.25 209.475 1026.24 211.767 1024.18 211.882C988.903 209.716 1007.8 214.864 966.454 215.105L956.145 215.68C956.145 215.68 954.083 215.795 951.906 213.849L947.783 214.079C945.836 216.256 945.721 214.194 937.474 214.655C933.466 216.946 927.05 213.169 920.865 213.514C918.688 211.568 914.45 209.737 912.388 209.852C910.326 209.967 912.273 207.791 903.911 206.19C895.549 204.589 893.717 208.827 889.479 206.996C870.117 193.602 866.454 202.078 860.039 198.301C857.977 198.416 851.677 196.7 851.792 198.761C849.96 202.999 847.784 201.053 843.775 203.344C829.688 210.334 823.158 204.495 813.309 213.316C811.363 215.492 809.186 213.546 803.001 213.892C770.013 215.733 786.737 218.935 768.181 219.971C759.934 220.431 761.996 220.316 760.049 222.493C755.926 222.723 749.971 227.191 747.909 227.306C745.847 227.421 743.786 227.536 741.839 229.713C734.052 238.418 731.53 230.288 713.55 241.631C703.011 238.084 701.064 240.26 694.879 240.605C686.632 241.066 690.871 242.897 682.624 243.357C678.5 243.588 680.677 245.534 676.554 245.764C668.307 246.224 674.722 250.002 666.475 250.462C666.59 252.524 656.051 248.976 656.051 248.976L647.804 249.437C639.442 247.836 631.425 252.419 623.063 250.818L610.693 251.509C608.631 251.624 598.207 250.138 596.146 250.253C589.96 250.599 534.523 257.829 511.729 257.034C503.367 255.433 513.676 254.857 490.997 256.124C486.873 256.354 484.927 258.53 480.688 256.699L474.503 257.044L470.379 257.275C464.309 259.681 462.017 255.674 451.824 258.311C447.7 258.541 449.647 256.364 445.523 256.595L426.968 257.631L420.782 257.976C416.659 258.206 410.359 256.49 404.173 256.835C393.865 257.411 398.333 263.365 371.3 260.739C363.054 261.199 338.773 270.826 330.296 267.163C326.172 267.394 321.934 265.562 317.925 267.854C313.917 270.145 305.325 264.422 295.131 267.059C293.069 267.174 290.893 265.228 284.822 267.634L268.328 268.555C266.267 268.67 264.205 268.785 262.028 266.839L259.966 266.954C251.719 267.415 251.489 263.292 247.366 263.522C234.995 264.213 239.234 266.044 222.855 269.026C220.793 269.141 204.529 274.185 202.468 274.3C196.513 278.768 175.895 279.919 173.949 282.095C169.71 280.264 167.878 284.502 163.755 284.732C163.755 284.732 161.578 282.786 159.631 284.962C153.676 289.43 141.306 290.121 139.129 288.175C134.891 286.344 98.1245 294.6 91.9392 294.945C85.6389 293.229 87.7007 293.114 83.5772 293.344C57.0047 298.963 4.04591 303.412 -0.0775794 303.643L-0.0781251 222.642L-0.0775789 160.185C4.04591 159.955 7.59891 154.911 13.6691 152.505C17.5624 148.152 21.8009 149.983 23.7476 147.807C25.6943 145.63 25.6943 145.63 29.8177 145.4C33.9412 145.17 36.1181 147.116 40.2415 146.886L42.3033 146.771C46.3117 144.479 48.4885 146.425 50.5503 146.31L56.7355 145.965C71.2828 147.22 62.8056 143.558 95.6784 139.655C97.7402 139.54 101.749 137.248 108.049 138.964C110.226 140.911 116.296 138.504 118.242 136.328C120.304 136.213 120.074 132.09 126.259 131.745C128.321 131.629 138.515 128.993 142.753 130.824C144.93 132.77 146.877 130.593 151 130.363C153.177 132.309 157.185 130.018 161.309 129.788C163.486 131.734 169.556 129.327 169.556 129.327C173.679 129.097 175.626 126.921 181.696 124.514C185.935 126.345 187.881 124.169 187.766 122.107C205.862 112.826 193.952 121.762 206.092 116.949C208.154 116.834 212.392 118.665 216.401 116.373C218.462 116.258 230.718 113.506 230.718 113.506C232.779 113.391 237.018 115.222 241.026 112.931L247.212 112.585L249.273 112.47C259.697 113.956 279.854 104.56 284.093 106.391L286.155 106.276C288.216 106.161 292.225 103.869 294.286 103.754C296.233 101.577 298.18 99.401 312.727 100.657L325.098 99.966C351.9 98.4696 331.283 99.6206 347.892 100.761C358.201 100.186 358.316 102.247 364.386 99.8403C397.949 108.305 393.595 104.413 414.328 105.323C414.443 107.384 416.39 105.208 418.566 107.154L428.875 106.579C430.937 106.463 434.83 102.111 436.892 101.995L449.262 101.305C453.386 101.075 453.501 103.136 457.625 102.906C469.995 102.215 459.801 104.852 478.357 103.816C478.357 103.816 478.472 105.877 486.719 105.417L499.09 104.726C509.283 102.089 521.769 103.46 523.83 103.345L536.201 102.654C540.324 102.424 546.395 100.017 554.642 99.557C577.091 94.1682 564.95 98.9815 591.638 95.4238C595.761 95.1936 597.708 93.0172 597.708 93.0172C599.77 92.902 603.893 92.6718 605.84 90.4954C607.786 88.319 611.91 88.0888 616.033 87.8585C628.289 85.1066 628.174 83.0453 630.351 84.9915L636.536 84.6462C636.536 84.6462 642.836 86.3621 651.198 87.963C653.26 87.8479 661.392 85.3262 663.454 85.2111L665.515 85.096C669.754 86.9271 671.585 82.6893 673.877 86.6969C678.231 90.5893 678.001 86.4667 682.124 86.2364C700.91 89.3231 692.433 85.6609 698.618 85.3156C704.804 84.9703 708.467 76.4948 710.644 78.441C714.882 80.2721 717.059 82.2183 719.006 80.0419C721.067 79.9268 721.182 81.9881 725.191 79.6966C735.269 74.9984 733.438 79.2361 739.393 74.7682C747.41 70.1851 743.286 70.4153 749.586 72.1313L751.763 74.0775L753.825 73.9624L760.01 73.6171C762.072 73.502 761.957 71.4407 764.019 71.3256L768.142 71.0953C770.204 70.9802 769.859 64.7963 776.159 66.5123L778.221 66.3972C780.167 64.2207 786.813 72.1207 788.529 65.8216C794.83 67.5376 794.83 67.5376 796.776 65.3612C796.776 65.3612 802.847 62.9546 805.023 64.9008L809.147 64.6706C813.385 66.5017 815.332 64.3252 819.456 64.095C821.747 68.1026 827.933 67.7572 829.879 65.5808C836.18 67.2968 836.295 69.3581 838.241 67.1817C840.303 67.0666 844.542 68.8977 846.604 68.7826C853.019 72.5599 852.789 68.4373 857.027 70.2684L861.151 70.0382L863.212 69.9231C867.221 67.6315 866.876 61.4476 885.431 60.4116C897.802 59.721 889.44 58.1201 897.687 57.6596C899.979 61.6672 910.287 61.0916 916.242 56.6237C918.304 56.5086 918.419 58.5699 920.481 58.4548C922.543 58.3397 924.72 60.2859 926.781 60.1708C933.082 61.8868 932.851 57.7641 937.09 59.5953C939.152 59.4802 941.098 57.3037 943.275 59.2499C945.567 63.2575 949.46 58.9046 953.814 62.7971C960.229 66.5744 978.67 63.4771 986.917 63.0167C991.041 62.7864 988.864 60.8402 994.934 58.4336C998.942 56.142 998.942 56.142 1003.07 55.9118C1009.37 57.6278 1007.07 53.6203 1011.31 55.4514C1015.55 57.2825 1019.67 57.0523 1023.8 56.8221C1025.86 56.707 1027.92 56.5919 1027.81 54.5305C1036.17 56.1314 1048.42 53.3795 1050.49 53.2644C1052.43 51.0879 1056.67 52.919 1060.79 52.6888C1064.92 52.4586 1065.15 56.5813 1075.34 53.9444C1077.4 53.8293 1075.23 51.8831 1077.17 49.7067C1079.24 49.5916 1077.06 47.6453 1083.36 49.3613L1093.67 48.7858C1097.79 48.5556 1103.75 44.0876 1103.52 39.965C1107.64 39.7348 1116.23 45.4583 1134.1 32.0544C1136.16 31.9393 1142.69 37.7779 1146.58 33.4251C1150.59 31.1336 1152.77 33.0798 1154.6 28.842C1156.43 24.6043 1158.38 22.4278 1162.73 26.3203C1167.08 30.2127 1168.92 25.9749 1173.27 29.8674C1177.62 33.7598 1179.57 31.5834 1189.88 31.0079L1196.06 30.6625C1202.36 32.3785 1215.08 37.8719 1214.39 25.5039L1222.64 25.0435C1228.48 18.5142 1262.62 37.2857 1265.59 16.4423C1275.67 11.7441 1271.08 3.72902 1277.27 3.3837Z" fill="#272727" fill-opacity="0.3"/>
<path d="M1277.27 9.02628C1279.33 8.91118 1275.68 4.3281 1279.92 6.15921L1279.92 190.285C1274.22 192.264 1272.62 192.436 1272.24 192.364C1272.19 192.616 1271.66 193.407 1269.07 195.581C1265.06 197.873 1264.95 195.811 1260.94 198.103C1256.93 200.395 1252.69 198.563 1246.62 200.97C1244.56 201.085 1232.42 205.898 1230.24 203.952C1228.07 202.006 1223.94 202.236 1221.88 202.351L1217.76 202.582L1207.45 203.157C1203.32 203.387 1201.38 205.564 1197.25 205.794L1186.95 206.37C1178.58 204.769 1174.23 200.876 1172.4 205.114C1172.51 207.175 1168.39 207.405 1164.27 207.636C1160.14 207.866 1154.3 214.395 1137.81 215.316C1135.75 215.431 1131.51 213.6 1131.62 215.661C1129.68 217.838 1125.67 220.129 1123.61 220.244C1121.66 222.421 1115.36 220.705 1111.24 220.935C1109.17 221.05 1104.94 219.219 1104.94 219.219C1086.27 218.194 1098.75 219.564 1086.15 216.132C1084.09 216.247 1079.85 214.416 1077.9 216.593C1074.01 220.946 1069.66 217.053 1065.65 219.345C1063.47 217.399 1061.41 217.514 1059.35 217.629C1059.35 217.629 1036.78 220.956 1032.43 217.064C1030.25 215.118 1026.24 217.409 1024.18 217.524C988.903 215.358 1007.8 220.506 966.454 220.747L956.145 221.323C956.145 221.323 954.083 221.438 951.906 219.492L947.783 219.722C945.836 221.898 945.721 219.837 937.474 220.297C933.466 222.589 927.05 218.812 920.865 219.157C918.688 217.211 914.45 215.38 912.388 215.495C910.326 215.61 912.273 213.433 903.911 211.833C895.549 210.232 893.717 214.469 889.479 212.638C870.117 199.245 866.454 207.72 860.039 203.943C857.977 204.058 851.677 202.342 851.792 204.404C849.96 208.641 847.784 206.695 843.775 208.987C829.688 215.976 823.158 210.138 813.309 218.959C811.363 221.135 809.186 219.189 803.001 219.534C770.013 221.376 786.737 224.578 768.181 225.614C759.934 226.074 761.996 225.959 760.049 228.135C755.926 228.366 749.971 232.834 747.909 232.949C745.847 233.064 743.786 233.179 741.839 235.355C734.052 244.061 731.53 235.931 713.55 247.273C703.011 243.726 701.064 245.903 694.879 246.248C686.632 246.708 690.871 248.54 682.624 249C678.5 249.23 680.677 251.176 676.554 251.407C668.307 251.867 674.722 255.644 666.475 256.105C666.59 258.166 656.051 254.619 656.051 254.619L647.804 255.079C639.442 253.479 631.425 258.062 623.063 256.461L610.693 257.151C608.631 257.266 598.207 255.781 596.146 255.896C589.96 256.241 534.523 263.472 511.729 262.676C503.367 261.076 513.676 260.5 490.997 261.766C486.873 261.996 484.927 264.173 480.688 262.342L474.503 262.687L470.379 262.917C464.309 265.324 462.017 261.316 451.824 263.953C447.7 264.183 449.647 262.007 445.523 262.237L426.968 263.273L420.782 263.619C416.659 263.849 410.359 262.133 404.173 262.478C393.865 263.054 398.333 269.007 371.3 266.381C363.054 266.842 338.773 276.468 330.296 272.806C326.172 273.036 321.934 271.205 317.925 273.497C313.917 275.788 305.325 270.065 295.131 272.701C293.069 272.816 290.893 270.87 284.822 273.277L268.328 274.198C266.267 274.313 264.205 274.428 262.028 272.482L259.966 272.597C251.719 273.057 251.489 268.935 247.366 269.165C234.995 269.856 239.234 271.687 222.855 274.669C220.793 274.784 204.529 279.827 202.468 279.943C196.513 284.41 175.895 285.562 173.949 287.738C169.71 285.907 167.878 290.145 163.755 290.375C163.755 290.375 161.578 288.429 159.631 290.605C153.676 295.073 141.306 295.764 139.129 293.817C134.891 291.986 98.1245 300.242 91.9392 300.588C85.6389 298.872 87.7007 298.756 83.5772 298.987C57.0047 304.606 4.04591 309.055 -0.0775794 309.285L-0.0781251 228.285L-0.0775789 165.828C4.04591 165.597 7.59891 160.554 13.6691 158.147C17.5624 153.794 21.8009 155.626 23.7476 153.449C25.6943 151.273 25.6943 151.273 29.8177 151.042C33.9412 150.812 36.1181 152.758 40.2415 152.528L42.3033 152.413C46.3117 150.122 48.4885 152.068 50.5503 151.953L56.7355 151.607C71.2828 152.863 62.8056 149.201 95.6784 145.298C97.7402 145.183 101.749 142.891 108.049 144.607C110.226 146.553 116.296 144.147 118.242 141.97C120.304 141.855 120.074 137.732 126.259 137.387C128.321 137.272 138.515 134.635 142.753 136.466C144.93 138.412 146.877 136.236 151 136.006C153.177 137.952 157.185 135.661 161.309 135.43C163.486 137.377 169.556 134.97 169.556 134.97C173.679 134.74 175.626 132.563 181.696 130.157C185.935 131.988 187.881 129.811 187.766 127.75C205.862 118.469 193.952 127.405 206.092 122.591C208.154 122.476 212.392 124.307 216.401 122.016C218.462 121.901 230.718 119.149 230.718 119.149C232.779 119.034 237.018 120.865 241.026 118.573L247.212 118.228L249.273 118.113C259.697 119.599 279.854 110.202 284.093 112.033L286.155 111.918C288.216 111.803 292.225 109.512 294.286 109.396C296.233 107.22 298.18 105.044 312.727 106.299L325.098 105.609C351.9 104.112 331.283 105.263 347.892 106.404C358.201 105.828 358.316 107.889 364.386 105.483C397.949 113.948 393.595 110.055 414.328 110.966C414.443 113.027 416.39 110.85 418.566 112.797L428.875 112.221C430.937 112.106 434.83 107.753 436.892 107.638L449.262 106.947C453.386 106.717 453.501 108.779 457.625 108.548C469.995 107.858 459.801 110.495 478.357 109.459C478.357 109.459 478.472 111.52 486.719 111.059L499.09 110.369C509.283 107.732 521.769 109.103 523.83 108.988L536.201 108.297C540.324 108.067 546.395 105.66 554.642 105.2C577.091 99.8108 564.95 104.624 591.638 101.066C595.761 100.836 597.708 98.6597 597.708 98.6597C599.77 98.5446 603.893 98.3144 605.84 96.138C607.786 93.9615 611.91 93.7313 616.033 93.5011C628.289 90.7492 628.174 88.6878 630.351 90.6341L636.536 90.2887C636.536 90.2887 642.836 92.0047 651.198 93.6056C653.26 93.4905 661.392 90.9688 663.454 90.8537L665.515 90.7386C669.754 92.5697 671.585 88.3319 673.877 92.3395C678.231 96.2319 678.001 92.1092 682.124 91.879C700.91 94.9657 692.433 91.3035 698.618 90.9582C704.804 90.6128 708.467 82.1373 710.644 84.0836C714.882 85.9147 717.059 87.8609 719.006 85.6845C721.067 85.5693 721.182 87.6307 725.191 85.3391C735.269 80.641 733.438 84.8787 739.393 80.4107C747.41 75.8277 743.286 76.0579 749.586 77.7739L751.763 79.7201L753.825 79.605L760.01 79.2597C762.072 79.1446 761.957 77.0832 764.019 76.9681L768.142 76.7379C770.204 76.6228 769.859 70.4388 776.159 72.1548L778.221 72.0397C780.167 69.8633 786.813 77.7633 788.529 71.4642C794.83 73.1802 794.83 73.1802 796.776 71.0038C796.776 71.0038 802.847 68.5971 805.023 70.5433L809.147 70.3131C813.385 72.1443 815.332 69.9678 819.456 69.7376C821.747 73.7451 827.933 73.3998 829.879 71.2234C836.18 72.9394 836.295 75.0007 838.241 72.8243C840.303 72.7092 844.542 74.5403 846.604 74.4252C853.019 78.2025 852.789 74.0799 857.027 75.911L861.151 75.6808L863.212 75.5656C867.221 73.2741 866.876 67.0901 885.431 66.0542C897.802 65.3635 889.44 63.7626 897.687 63.3022C899.979 67.3098 910.287 66.7342 916.242 62.2663C918.304 62.1512 918.419 64.2125 920.481 64.0974C922.543 63.9823 924.72 65.9285 926.781 65.8134C933.082 67.5294 932.851 63.4067 937.09 65.2378C939.152 65.1227 941.098 62.9463 943.275 64.8925C945.567 68.9001 949.46 64.5472 953.814 68.4396C960.229 72.217 978.67 69.1197 986.917 68.6592C991.041 68.429 988.864 66.4828 994.934 64.0762C998.942 61.7846 998.942 61.7846 1003.07 61.5544C1009.37 63.2704 1007.07 59.2629 1011.31 61.094C1015.55 62.9251 1019.67 62.6949 1023.8 62.4647C1025.86 62.3496 1027.92 62.2344 1027.81 60.1731C1036.17 61.774 1048.42 59.0221 1050.49 58.9069C1052.43 56.7305 1056.67 58.5616 1060.79 58.3314C1064.92 58.1012 1065.15 62.2238 1075.34 59.587C1077.4 59.4719 1075.23 57.5257 1077.17 55.3492C1079.24 55.2341 1077.06 53.2879 1083.36 55.0039L1093.67 54.4284C1097.79 54.1982 1103.75 49.7302 1103.52 45.6076C1107.64 45.3773 1116.23 51.1009 1134.1 37.697C1136.16 37.5819 1142.69 43.4205 1146.58 39.0677C1150.59 36.7761 1152.77 38.7223 1154.6 34.4846C1156.43 30.2468 1158.38 28.0704 1162.73 31.9628C1167.08 35.8553 1168.92 31.6175 1173.27 35.51C1177.62 39.4024 1179.57 37.226 1189.88 36.6504L1196.06 36.3051C1202.36 38.0211 1215.08 43.5144 1214.39 31.1465L1222.64 30.6861C1228.48 24.1568 1262.62 42.9283 1265.59 22.0849C1275.67 17.3867 1271.08 9.3716 1277.27 9.02628Z" fill="#FF297A"/>
</g>
<defs>
<clipPath id="clip0">
<rect width="1280" height="352" fill="white"/>
</clipPath>
</defs>
</svg>
