<svg width="240" height="240" viewBox="0 0 240 240" fill="none" xmlns="http://www.w3.org/2000/svg">
<g clip-path="url(#clip0)">
<path d="M159.088 184.218C161.368 170.371 161.269 156.028 162.162 141.983C163.054 127.889 164.145 113.794 164.69 99.6495C164.69 99.0539 164.442 98.6073 164.095 98.2599C164.244 98.0117 164.293 97.6643 164.194 97.3169C161.17 87.54 157.65 77.6141 153.634 68.1846C153.535 67.9364 153.386 67.7875 153.237 67.6883C153.287 67.589 153.337 67.4898 153.337 67.3409C153.584 66.6957 152.642 65.9513 152.196 66.6461C152.147 66.7453 152.097 66.8446 151.998 66.9438C151.899 66.8446 151.8 66.795 151.651 66.7453C135.191 64.115 118.731 61.6335 102.122 59.5491C98.3042 59.0528 81.0013 54.2884 79.8114 61.3854C79.5139 61.4846 79.2164 61.7328 79.1669 62.1298C75.3989 80.1948 75.8947 99.6991 74.6552 118.112C73.4157 136.822 71.7796 155.482 70.3914 174.193C70.3419 174.887 70.6889 175.384 71.1351 175.681C71.7796 179.056 74.1098 179.95 77.5308 180.595C85.9591 182.183 94.9825 182.133 103.51 182.729C120.863 183.97 138.165 185.26 155.518 185.905C156.46 185.955 157.055 185.26 157.204 184.565C157.65 185.31 158.939 185.21 159.088 184.218ZM159.98 93.0984C157.303 92.5029 154.626 91.957 151.948 91.4607C149.965 91.1133 147.685 90.9644 145.751 90.3688C143.57 89.7237 143.619 90.4185 143.718 88.334C143.817 85.6044 147.387 80.9889 148.627 78.5074C149.916 75.8771 151.056 73.2964 152.147 70.6164C154.378 78.16 157.055 85.7533 159.98 93.0984ZM156.063 182.977C142.082 182.183 128.101 181.389 114.169 180.446C107.427 179.999 100.684 179.404 93.9909 178.758C89.7271 178.361 76.4896 179.156 73.4157 175.235C73.4653 175.086 73.5149 174.887 73.5645 174.689C74.9031 155.482 76.0434 136.226 77.5804 117.069C79.0181 99.3517 82.092 80.8897 81.1996 63.0728C84.918 58.4076 94.9329 61.5839 100.139 62.2291C105.642 62.9239 111.195 63.6187 116.698 64.3135C128.2 65.8024 139.752 66.8942 151.304 68.1349C148.775 72.0556 146.594 76.1252 144.462 80.2941C143.173 82.7756 139.306 87.4903 140 90.5177C140.545 92.8999 143.322 92.9496 145.255 93.3466C150.461 94.3888 155.766 95.2325 161.021 95.7784C161.319 96.5725 161.666 97.3666 161.963 98.1606C161.715 98.3591 161.567 98.7065 161.517 99.1532C160.377 113.744 159.782 128.385 158.939 142.976C158.146 156.376 156.51 170.024 157.055 183.473C156.857 183.225 156.559 183.027 156.063 182.977Z" fill="#272727"/>
<path d="M136.033 80.641C129.042 79.1025 121.655 78.8047 114.565 77.8121C107.426 76.7699 100.287 75.5291 93.0978 74.6855C92.2054 74.5862 92.0071 75.8269 92.8499 76.0254C106.286 79.5491 122.002 82.6261 135.934 82.3284C136.975 82.2787 136.975 80.8395 136.033 80.641Z" fill="#272727"/>
<path d="M135.29 91.7578C121.507 88.7801 106.832 87.4401 92.801 86.2986C91.9085 86.249 91.7102 87.4401 92.5531 87.6386C106.237 91.063 121.061 93.6934 135.191 93.743C136.43 93.743 136.381 91.9564 135.29 91.7578Z" fill="#272727"/>
<path d="M151.7 105.307C131.869 102.329 111.839 98.1105 91.7099 98.0112C90.6687 98.0112 90.7183 99.5497 91.6603 99.7979C111.244 104.066 131.571 104.81 151.403 107.292C152.642 107.49 152.989 105.505 151.7 105.307Z" fill="#272727"/>
<path d="M151.156 116.572C130.68 115.034 110.353 111.907 89.8767 110.121C88.7364 110.021 88.4885 111.61 89.5792 111.858C109.559 116.523 130.184 118.21 150.66 119.649C152.643 119.749 153.189 116.721 151.156 116.572Z" fill="#272727"/>
<path d="M149.914 129.03C130.479 124.513 108.615 123.223 88.6839 123.521C87.2461 123.521 87.1469 125.903 88.5847 126.052C98.7484 126.995 108.912 127.392 119.076 128.235C129.239 129.079 139.353 130.816 149.517 131.313C151.004 131.412 151.401 129.377 149.914 129.03Z" fill="#272727"/>
<path d="M149.57 139.104C129.491 137.169 108.37 136.027 88.1916 136.573C86.9521 136.623 86.853 138.608 88.0924 138.757C108.172 141.04 129.243 141.735 149.421 141.536C150.859 141.536 150.958 139.253 149.57 139.104Z" fill="#272727"/>
<path d="M149.073 153.596C128.646 150.37 107.278 148.782 86.6038 149.08C85.2156 149.08 85.1164 151.412 86.5046 151.561C107.229 153.1 127.952 154.589 148.627 156.226C150.312 156.326 150.759 153.894 149.073 153.596Z" fill="#272727"/>
<path d="M148.874 167.79C128.15 165.358 107.029 163.72 86.1568 163.274C84.9173 163.224 84.8677 165.308 86.0576 165.457C106.682 167.988 127.605 169.775 148.328 171.065C150.411 171.165 151.055 168.038 148.874 167.79Z" fill="#272727"/>
</g>
<defs>
<clipPath id="clip0">
<rect width="94.3482" height="128.44" fill="white" transform="translate(70.3906 57.5138)"/>
</clipPath>
</defs>
</svg>
