<svg width="240" height="240" viewBox="0 0 240 240" fill="none" xmlns="http://www.w3.org/2000/svg">
<g clip-path="url(#clip0)">
<path d="M115.729 190.037C118.294 174.468 118.182 158.34 119.186 142.548C120.189 126.699 121.416 110.851 122.029 94.9466C122.029 94.2769 121.75 93.7747 121.36 93.3841C121.527 93.105 121.583 92.7144 121.471 92.3238C118.071 81.3304 114.113 70.1695 109.597 59.5667C109.486 59.2877 109.319 59.1203 109.151 59.0087C109.207 58.8971 109.263 58.7855 109.263 58.6181C109.542 57.8926 108.482 57.0556 107.981 57.8368C107.925 57.9484 107.869 58.06 107.758 58.1716C107.646 58.06 107.535 58.0042 107.367 57.9484C88.8593 54.9908 70.3511 52.2006 51.6758 49.8568C47.3832 49.2988 27.9274 43.9416 26.5895 51.9216C26.255 52.0332 25.9205 52.3122 25.8648 52.7586C21.628 73.0714 22.1855 95.0024 20.7918 115.706C19.3981 136.744 17.5584 157.726 15.9975 178.764C15.9418 179.546 16.332 180.104 16.8337 180.439C17.5584 184.233 20.1785 185.238 24.0251 185.963C33.5022 187.749 43.6482 187.693 53.2367 188.363C72.7483 189.758 92.2041 191.209 111.716 191.934C112.775 191.99 113.444 191.209 113.611 190.428C114.113 191.265 115.562 191.153 115.729 190.037ZM116.733 87.5804C113.723 86.9108 110.712 86.2969 107.702 85.7389C105.472 85.3483 102.908 85.1809 100.733 84.5112C98.2806 83.7857 98.3363 84.567 98.4478 82.2232C98.5593 79.154 102.573 73.9642 103.967 71.174C105.416 68.2164 106.698 65.3146 107.925 62.3011C110.433 70.7834 113.444 79.3214 116.733 87.5804ZM112.329 188.642C96.6081 187.749 80.8874 186.856 65.2224 185.796C57.6408 185.294 50.0591 184.624 42.5332 183.898C37.739 183.452 22.8544 184.345 19.3981 179.936C19.4538 179.769 19.5096 179.546 19.5653 179.323C21.0705 157.726 22.3527 136.074 24.0809 114.534C25.6975 94.6118 29.1539 73.8526 28.1504 53.8189C32.3315 48.5733 43.5924 52.1448 49.4459 52.8702C55.6338 53.6515 61.8776 54.4328 68.0655 55.214C80.9989 56.8881 93.988 58.1158 106.977 59.5109C104.134 63.9195 101.681 68.4954 99.284 73.183C97.8346 75.9732 93.4863 81.2746 94.2667 84.6786C94.88 87.3572 98.0018 87.413 100.176 87.8595C106.029 89.0313 111.994 89.98 117.904 90.5939C118.238 91.4867 118.628 92.3796 118.963 93.2725C118.684 93.4957 118.517 93.8863 118.461 94.3885C117.179 110.795 116.51 127.257 115.562 143.664C114.67 158.731 112.831 174.077 113.444 189.2C113.221 188.921 112.886 188.698 112.329 188.642Z" fill="#272727"/>
<path d="M89.8047 73.5732C81.9444 71.8433 73.638 71.5085 65.6662 70.3924C57.6386 69.2205 49.6109 67.8254 41.5276 66.8767C40.5241 66.7651 40.3011 68.1602 41.2488 68.3834C56.3564 72.3455 74.0283 75.8054 89.6933 75.4706C90.864 75.4147 90.8639 73.7964 89.8047 73.5732Z" fill="#272727"/>
<path d="M88.971 86.0733C73.4732 82.725 56.972 81.2183 41.1955 79.9348C40.1921 79.879 39.9691 81.2183 40.9168 81.4415C56.3031 85.292 72.9715 88.2496 88.8595 88.3054C90.2532 88.3054 90.1974 86.2965 88.971 86.0733Z" fill="#272727"/>
<path d="M107.424 101.308C85.1249 97.9596 62.603 93.2162 39.9696 93.1046C38.7989 93.1046 38.8546 94.8345 39.9138 95.1136C61.934 99.9127 84.7904 100.75 107.089 103.54C108.483 103.763 108.873 101.531 107.424 101.308Z" fill="#272727"/>
<path d="M106.811 113.975C83.7871 112.245 60.9307 108.73 37.9071 106.721C36.6249 106.609 36.3462 108.395 37.5726 108.674C60.0388 113.92 83.2297 115.817 106.253 117.435C108.483 117.547 109.096 114.143 106.811 113.975Z" fill="#272727"/>
<path d="M105.415 127.982C83.5616 122.904 58.977 121.453 36.5666 121.788C34.9499 121.788 34.8384 124.467 36.4551 124.634C47.8833 125.694 59.3115 126.141 70.7397 127.09C82.1679 128.038 93.5403 129.991 104.969 130.549C106.641 130.661 107.087 128.373 105.415 127.982Z" fill="#272727"/>
<path d="M105.028 139.311C82.4504 137.134 58.702 135.851 36.0128 136.465C34.6192 136.52 34.5077 138.753 35.9013 138.92C58.479 141.487 82.1716 142.268 104.861 142.045C106.477 142.045 106.589 139.478 105.028 139.311Z" fill="#272727"/>
<path d="M104.47 155.605C81.5017 151.978 57.4746 150.192 34.2279 150.527C32.667 150.527 32.5555 153.15 34.1164 153.317C57.4188 155.047 80.7212 156.721 103.968 158.563C105.863 158.675 106.365 155.94 104.47 155.605Z" fill="#272727"/>
<path d="M104.246 171.565C80.9436 168.831 57.1952 166.989 33.7256 166.487C32.3319 166.431 32.2762 168.775 33.6141 168.942C56.805 171.788 80.3304 173.797 103.633 175.248C105.974 175.36 106.699 171.844 104.246 171.565Z" fill="#272727"/>
</g>
<defs>
<clipPath id="clip0">
<rect width="106.087" height="144.421" fill="white" transform="translate(16 47.5686)"/>
</clipPath>
</defs>
</svg>
