<svg width="1280" height="311" viewBox="0 0 1280 311" fill="none" xmlns="http://www.w3.org/2000/svg">
<g clip-path="url(#clip0)">
<path d="M-10.9691 64.4487L-5.10267 152.505L-0.0506783 228.337C14.4476 232.311 4.93572 230.611 13.2616 236.715C17.4134 238.735 17.3914 236.671 21.5432 238.691C25.695 240.711 29.8025 238.602 36.0192 240.6C38.084 240.578 50.5174 244.573 52.56 242.487C54.6027 240.4 58.7323 240.356 60.7971 240.333L64.9268 240.289L75.251 240.178C79.3807 240.134 81.4677 242.176 85.5973 242.131L95.9216 242.02C104.159 239.867 108.244 235.694 110.353 239.801C110.375 241.865 114.505 241.821 118.635 241.776C122.764 241.732 129.026 247.858 145.544 247.681C147.609 247.659 151.717 245.55 151.739 247.614C153.826 249.656 157.978 251.676 160.042 251.654C162.129 253.697 168.302 251.565 172.431 251.521C174.496 251.499 178.604 249.39 178.604 249.39C197.165 247.126 184.798 249.323 197.143 245.061C199.208 245.039 203.315 242.93 205.402 244.973C209.576 249.057 213.662 244.884 217.813 246.904C219.856 244.817 221.921 244.795 223.986 244.773C223.986 244.773 246.721 246.593 250.806 242.42C252.849 240.333 257 242.353 259.065 242.331C294.123 237.825 275.605 244.218 316.88 241.709L327.204 241.598C327.204 241.598 329.269 241.576 331.312 239.49L335.441 239.445C337.528 241.487 337.506 239.423 345.765 239.334C349.917 241.354 356.067 237.159 362.262 237.092C364.305 235.006 368.412 232.897 370.477 232.875C372.542 232.852 370.455 230.81 378.692 228.657C386.929 226.504 389.038 230.61 393.146 228.502C411.574 213.851 415.792 222.064 421.942 217.869C424.007 217.847 430.179 215.716 430.202 217.78C432.311 221.887 434.353 219.8 438.505 221.82C453.026 227.858 459.154 221.598 469.567 229.745C471.654 231.787 473.696 229.7 479.891 229.634C512.928 229.278 496.454 233.585 515.037 233.385C523.297 233.296 521.232 233.318 523.319 235.361C527.449 235.316 533.687 239.379 535.752 239.356C537.817 239.334 539.882 239.312 541.969 241.354C550.317 249.523 552.293 241.243 570.988 251.365C581.267 247.126 583.354 249.168 589.549 249.101C597.808 249.012 593.701 251.121 601.96 251.032C606.09 250.988 604.047 253.075 608.177 253.03C616.436 252.941 610.286 257.137 618.545 257.048C618.568 259.112 628.847 254.873 628.847 254.873L637.107 254.784C645.344 252.631 653.648 256.671 661.885 254.517L674.274 254.384C676.339 254.362 686.641 252.187 688.705 252.164C694.9 252.098 750.695 255.627 773.386 253.319C781.623 251.165 771.299 251.276 794.012 251.032C798.142 250.988 800.229 253.03 804.336 250.921L810.531 250.855L814.66 250.81C820.877 252.808 822.898 248.657 833.244 250.61C837.374 250.566 835.287 248.524 839.416 248.479L858 248.28L864.194 248.213C868.324 248.169 874.496 246.038 880.691 245.971C891.015 245.86 886.952 252.098 913.75 247.68C922.01 247.591 946.876 255.583 955.091 251.365C959.221 251.321 963.329 249.212 967.48 251.232C971.632 253.252 979.825 246.97 990.171 248.923C992.236 248.901 994.279 246.814 1000.5 248.812L1017.01 248.635C1019.08 248.612 1021.14 248.59 1023.19 246.504L1025.25 246.481C1033.51 246.393 1033.47 242.264 1037.6 242.219C1049.99 242.086 1045.88 244.195 1062.42 246.082C1064.48 246.06 1081.05 250.011 1083.11 249.989C1089.35 254.051 1110 253.829 1112.09 255.871C1116.19 253.762 1118.3 257.869 1122.43 257.825C1122.43 257.825 1124.47 255.738 1126.56 257.78C1132.8 261.842 1145.19 261.709 1147.23 259.623C1151.34 257.514 1188.57 263.307 1194.77 263.241C1200.94 261.11 1198.87 261.132 1203 261.088C1229.89 264.928 1281.79 267.985 1285.92 267.941L1280.77 190.612L1283 124.318C1278.87 124.363 1269.61 117.91 1263.4 115.913C1259.22 111.828 1255.11 113.937 1253.03 111.895C1250.94 109.853 1250.94 109.853 1246.81 109.897L1246.81 109.897C1242.68 109.941 1240.64 112.028 1236.51 112.072L1234.44 112.095C1230.29 110.075 1228.25 112.161 1226.18 112.183L1219.99 112.25C1205.56 114.47 1213.77 110.252 1180.71 108.543C1178.65 108.565 1174.5 106.545 1168.32 108.676C1166.28 110.763 1160.07 108.765 1157.98 106.723C1155.91 106.745 1155.87 102.616 1149.67 102.683C1147.61 102.705 1137.26 100.752 1133.16 102.86C1131.11 104.947 1129.03 102.905 1124.9 102.949C1122.85 105.036 1118.7 103.016 1114.57 103.06C1112.53 105.147 1106.31 103.149 1106.31 103.149C1102.18 103.193 1100.1 101.151 1093.88 99.1534C1089.77 101.262 1087.69 99.22 1087.66 97.1556C1068.99 89.0977 1081.47 97.2222 1069.04 93.2265C1066.97 93.2487 1062.86 95.3575 1058.71 93.3375C1056.65 93.3597 1044.24 91.4285 1044.24 91.4285C1042.17 91.4507 1038.06 93.5595 1033.91 91.5395L1027.72 91.6061L1025.65 91.6283C1015.35 93.8037 994.612 85.7681 990.505 87.8769L988.44 87.8991C986.375 87.9213 982.223 85.9013 980.159 85.9235C978.072 83.8813 975.985 81.839 961.553 84.0588L949.164 84.192C922.321 84.4806 942.969 84.2586 926.473 86.5007C916.149 86.6117 916.171 88.6761 909.954 86.6783C877.028 97.3555 881.113 93.1823 860.487 95.4687C860.509 97.5331 858.422 95.4909 856.38 97.5775L846.055 97.6885C843.991 97.7107 839.816 93.6263 837.752 93.6485L825.363 93.7817C821.233 93.8261 821.255 95.8905 817.125 95.9349C804.736 96.0681 815.083 98.0215 796.499 98.2213C796.499 98.2213 796.522 100.286 788.262 100.375L775.873 100.508C765.527 98.5543 753.16 100.752 751.095 100.774L738.706 100.907C734.576 100.952 728.36 98.9539 720.1 99.0427C697.343 95.1581 709.776 99.1537 682.911 97.3779C678.781 97.4223 676.694 95.3801 676.694 95.3801C674.63 95.4023 670.5 95.4467 668.413 93.4044C666.326 91.3622 662.196 91.4066 658.067 91.451C645.655 89.5198 645.633 87.4554 643.591 89.542L637.396 89.6086C637.396 89.6086 631.224 91.7396 622.986 93.8928C620.922 93.915 612.64 91.9394 610.575 91.9616L608.511 91.9838C604.403 94.0926 602.294 89.986 600.273 94.137C596.188 98.3103 596.144 94.1814 592.014 94.2258C573.475 98.5545 581.69 94.3368 575.495 94.4034C569.301 94.47 565.082 86.2568 563.04 88.3434C558.932 90.4522 556.89 92.5388 554.803 90.4966C552.738 90.5188 552.76 92.5832 548.608 90.5632C538.24 86.5454 540.349 90.652 534.11 86.5898C525.806 82.5497 529.936 82.5053 523.763 84.6363L521.721 86.723L519.656 86.7452L513.462 86.8118C511.397 86.834 511.374 84.7695 509.31 84.7917L505.18 84.8361C503.115 84.8583 503.049 78.6651 496.876 80.7961L494.811 80.8183C492.724 78.7761 486.619 87.1003 484.487 80.9293C478.315 83.0603 478.315 83.0603 476.228 81.0181C476.228 81.0181 470.011 79.0203 467.969 81.1069L463.839 81.1513C459.732 83.2601 457.644 81.2179 453.515 81.2623C451.494 85.4133 445.3 85.4799 443.213 83.4377C437.04 85.5687 437.063 87.6331 434.976 85.5909C432.911 85.6131 428.803 87.7219 426.738 87.7441C420.588 91.9396 420.544 87.8108 416.436 89.9196L412.307 89.964L410.242 89.9862C406.09 87.9662 406.024 81.7729 387.44 81.9727C375.051 82.1059 383.288 79.9527 375.029 80.0415C373.008 84.1925 362.684 84.3035 356.445 80.2413C354.381 80.2635 354.403 82.3279 352.338 82.3501C350.273 82.3723 348.23 84.4589 346.166 84.4811C339.993 86.6121 339.949 82.4833 335.841 84.5921C333.777 84.6143 331.69 82.5721 329.647 84.6587C327.626 88.8097 323.452 84.7253 319.367 88.8985C313.217 93.094 294.611 91.2294 286.352 91.3182C282.222 91.3626 284.265 89.2759 278.048 87.2781C273.896 85.2581 273.896 85.2581 269.767 85.3025C263.594 87.4335 265.615 83.2825 261.507 85.3913C257.4 87.5001 253.271 87.5445 249.142 87.5889C247.077 87.6111 245.012 87.6333 244.99 85.5689C236.753 87.7221 224.341 85.7909 222.277 85.8131C220.19 83.7709 216.082 85.8797 211.952 85.9241C207.823 85.9685 207.867 90.0973 197.521 88.1439C195.456 88.1661 197.499 86.0795 195.412 84.0372C193.347 84.0594 195.389 81.9728 189.217 84.1038L178.893 84.2148C174.763 84.2592 168.524 80.197 168.48 76.0682C164.35 76.1126 156.158 82.3946 137.441 70.2079C135.376 70.2301 129.248 76.49 125.074 72.4056C120.922 70.3855 118.88 72.4722 116.77 68.3655C114.661 64.2589 112.574 62.2167 108.489 66.3899C104.404 70.5631 102.294 66.4565 98.209 70.6297C94.1237 74.803 92.0368 72.7607 81.7126 72.8717L75.518 72.9383C69.3458 75.0694 57.0233 81.3958 56.8901 69.0093L48.6308 69.0981C42.3698 62.9715 9.55433 83.9708 5.20273 63.3711C-5.16589 59.3532 -4.77464 64.3821 -10.9691 64.4487Z" fill="#40DCFF"/>
<path d="M-10.9691 64.4487L-5.10267 152.505L-0.0506783 228.337C14.4476 232.311 4.93572 230.611 13.2616 236.715C17.4134 238.735 17.3914 236.671 21.5432 238.691C25.695 240.711 29.8025 238.602 36.0192 240.6C38.084 240.578 50.5174 244.573 52.56 242.487C54.6027 240.4 58.7323 240.356 60.7971 240.333L64.9268 240.289L75.251 240.178C79.3807 240.134 81.4677 242.176 85.5973 242.131L95.9216 242.02C104.159 239.867 108.244 235.694 110.353 239.801C110.375 241.865 114.505 241.821 118.635 241.776C122.764 241.732 129.026 247.858 145.544 247.681C147.609 247.659 151.717 245.55 151.739 247.614C153.826 249.656 157.978 251.676 160.042 251.654C162.129 253.697 168.302 251.565 172.431 251.521C174.496 251.499 178.604 249.39 178.604 249.39C197.165 247.126 184.798 249.323 197.143 245.061C199.208 245.039 203.315 242.93 205.402 244.973C209.576 249.057 213.662 244.884 217.813 246.904C219.856 244.817 221.921 244.795 223.986 244.773C223.986 244.773 246.721 246.593 250.806 242.42C252.849 240.333 257 242.353 259.065 242.331C294.123 237.825 275.605 244.218 316.88 241.709L327.204 241.598C327.204 241.598 329.269 241.576 331.312 239.49L335.441 239.445C337.528 241.487 337.506 239.423 345.765 239.334C349.917 241.354 356.067 237.159 362.262 237.092C364.305 235.006 368.412 232.897 370.477 232.875C372.542 232.852 370.455 230.81 378.692 228.657C386.929 226.504 389.038 230.61 393.146 228.502C411.574 213.851 415.792 222.064 421.942 217.869C424.007 217.847 430.179 215.716 430.202 217.78C432.311 221.887 434.353 219.8 438.505 221.82C453.026 227.858 459.154 221.598 469.567 229.745C471.654 231.787 473.696 229.7 479.891 229.634C512.928 229.278 496.454 233.585 515.037 233.385C523.297 233.296 521.232 233.318 523.319 235.361C527.449 235.316 533.687 239.379 535.752 239.356C537.817 239.334 539.882 239.312 541.969 241.354C550.317 249.523 552.293 241.243 570.988 251.365C581.267 247.126 583.354 249.168 589.549 249.101C597.808 249.012 593.701 251.121 601.96 251.032C606.09 250.988 604.047 253.075 608.177 253.03C616.436 252.941 610.286 257.137 618.545 257.048C618.568 259.112 628.847 254.873 628.847 254.873L637.107 254.784C645.344 252.631 653.648 256.671 661.885 254.517L674.274 254.384C676.339 254.362 686.641 252.187 688.705 252.164C694.9 252.098 750.695 255.627 773.386 253.319C781.623 251.165 771.299 251.276 794.012 251.032C798.142 250.988 800.229 253.03 804.336 250.921L810.531 250.855L814.66 250.81C820.877 252.808 822.898 248.657 833.244 250.61C837.374 250.566 835.287 248.524 839.416 248.479L858 248.28L864.194 248.213C868.324 248.169 874.496 246.038 880.691 245.971C891.015 245.86 886.952 252.098 913.75 247.68C922.01 247.591 946.876 255.583 955.091 251.365C959.221 251.321 963.329 249.212 967.48 251.232C971.632 253.252 979.825 246.97 990.171 248.923C992.236 248.901 994.279 246.814 1000.5 248.812L1017.01 248.635C1019.08 248.612 1021.14 248.59 1023.19 246.504L1025.25 246.481C1033.51 246.393 1033.47 242.264 1037.6 242.219C1049.99 242.086 1045.88 244.195 1062.42 246.082C1064.48 246.06 1081.05 250.011 1083.11 249.989C1089.35 254.051 1110 253.829 1112.09 255.871C1116.19 253.762 1118.3 257.869 1122.43 257.825C1122.43 257.825 1124.47 255.738 1126.56 257.78C1132.8 261.842 1145.19 261.709 1147.23 259.623C1151.34 257.514 1188.57 263.307 1194.77 263.241C1200.94 261.11 1198.87 261.132 1203 261.088C1229.89 264.928 1281.79 267.985 1285.92 267.941L1280.77 190.612L1283 124.318C1278.87 124.363 1269.61 117.91 1263.4 115.913C1259.22 111.828 1255.11 113.937 1253.03 111.895C1250.94 109.853 1250.94 109.853 1246.81 109.897L1246.81 109.897C1242.68 109.941 1240.64 112.028 1236.51 112.072L1234.44 112.095C1230.29 110.075 1228.25 112.161 1226.18 112.183L1219.99 112.25C1205.56 114.47 1213.77 110.252 1180.71 108.543C1178.65 108.565 1174.5 106.545 1168.32 108.676C1166.28 110.763 1160.07 108.765 1157.98 106.723C1155.91 106.745 1155.87 102.616 1149.67 102.683C1147.61 102.705 1137.26 100.752 1133.16 102.86C1131.11 104.947 1129.03 102.905 1124.9 102.949C1122.85 105.036 1118.7 103.016 1114.57 103.06C1112.53 105.147 1106.31 103.149 1106.31 103.149C1102.18 103.193 1100.1 101.151 1093.88 99.1534C1089.77 101.262 1087.69 99.22 1087.66 97.1556C1068.99 89.0977 1081.47 97.2222 1069.04 93.2265C1066.97 93.2487 1062.86 95.3575 1058.71 93.3375C1056.65 93.3597 1044.24 91.4285 1044.24 91.4285C1042.17 91.4507 1038.06 93.5595 1033.91 91.5395L1027.72 91.6061L1025.65 91.6283C1015.35 93.8037 994.612 85.7681 990.505 87.8769L988.44 87.8991C986.375 87.9213 982.223 85.9013 980.159 85.9235C978.072 83.8813 975.985 81.839 961.553 84.0588L949.164 84.192C922.321 84.4806 942.969 84.2586 926.473 86.5007C916.149 86.6117 916.171 88.6761 909.954 86.6783C877.028 97.3555 881.113 93.1823 860.487 95.4687C860.509 97.5331 858.422 95.4909 856.38 97.5775L846.055 97.6885C843.991 97.7107 839.816 93.6263 837.752 93.6485L825.363 93.7817C821.233 93.8261 821.255 95.8905 817.125 95.9349C804.736 96.0681 815.083 98.0215 796.499 98.2213C796.499 98.2213 796.522 100.286 788.262 100.375L775.873 100.508C765.527 98.5543 753.16 100.752 751.095 100.774L738.706 100.907C734.576 100.952 728.36 98.9539 720.1 99.0427C697.343 95.1581 709.776 99.1537 682.911 97.3779C678.781 97.4223 676.694 95.3801 676.694 95.3801C674.63 95.4023 670.5 95.4467 668.413 93.4044C666.326 91.3622 662.196 91.4066 658.067 91.451C645.655 89.5198 645.633 87.4554 643.591 89.542L637.396 89.6086C637.396 89.6086 631.224 91.7396 622.986 93.8928C620.922 93.915 612.64 91.9394 610.575 91.9616L608.511 91.9838C604.403 94.0926 602.294 89.986 600.273 94.137C596.188 98.3103 596.144 94.1814 592.014 94.2258C573.475 98.5545 581.69 94.3368 575.495 94.4034C569.301 94.47 565.082 86.2568 563.04 88.3434C558.932 90.4522 556.89 92.5388 554.803 90.4966C552.738 90.5188 552.76 92.5832 548.608 90.5632C538.24 86.5454 540.349 90.652 534.11 86.5898C525.806 82.5497 529.936 82.5053 523.763 84.6363L521.721 86.723L519.656 86.7452L513.462 86.8118C511.397 86.834 511.374 84.7695 509.31 84.7917L505.18 84.8361C503.115 84.8583 503.049 78.6651 496.876 80.7961L494.811 80.8183C492.724 78.7761 486.619 87.1003 484.487 80.9293C478.315 83.0603 478.315 83.0603 476.228 81.0181C476.228 81.0181 470.011 79.0203 467.969 81.1069L463.839 81.1513C459.732 83.2601 457.644 81.2179 453.515 81.2623C451.494 85.4133 445.3 85.4799 443.213 83.4377C437.04 85.5687 437.063 87.6331 434.976 85.5909C432.911 85.6131 428.803 87.7219 426.738 87.7441C420.588 91.9396 420.544 87.8108 416.436 89.9196L412.307 89.964L410.242 89.9862C406.09 87.9662 406.024 81.7729 387.44 81.9727C375.051 82.1059 383.288 79.9527 375.029 80.0415C373.008 84.1925 362.684 84.3035 356.445 80.2413C354.381 80.2635 354.403 82.3279 352.338 82.3501C350.273 82.3723 348.23 84.4589 346.166 84.4811C339.993 86.6121 339.949 82.4833 335.841 84.5921C333.777 84.6143 331.69 82.5721 329.647 84.6587C327.626 88.8097 323.452 84.7253 319.367 88.8985C313.217 93.094 294.611 91.2294 286.352 91.3182C282.222 91.3626 284.265 89.2759 278.048 87.2781C273.896 85.2581 273.896 85.2581 269.767 85.3025C263.594 87.4335 265.615 83.2825 261.507 85.3913C257.4 87.5001 253.271 87.5445 249.142 87.5889C247.077 87.6111 245.012 87.6333 244.99 85.5689C236.753 87.7221 224.341 85.7909 222.277 85.8131C220.19 83.7709 216.082 85.8797 211.952 85.9241C207.823 85.9685 207.867 90.0973 197.521 88.1439C195.456 88.1661 197.499 86.0795 195.412 84.0372C193.347 84.0594 195.389 81.9728 189.217 84.1038L178.893 84.2148C174.763 84.2592 168.524 80.197 168.48 76.0682C164.35 76.1126 156.158 82.3946 137.441 70.2079C135.376 70.2301 129.248 76.49 125.074 72.4056C120.922 70.3855 118.88 72.4722 116.77 68.3655C114.661 64.2589 112.574 62.2167 108.489 66.3899C104.404 70.5631 102.294 66.4565 98.209 70.6297C94.1237 74.803 92.0368 72.7607 81.7126 72.8717L75.518 72.9383C69.3458 75.0694 57.0233 81.3958 56.8901 69.0093L48.6308 69.0981C42.3698 62.9715 9.55433 83.9708 5.20273 63.3711C-5.16589 59.3532 -4.77464 64.3821 -10.9691 64.4487Z" fill="#272727" fill-opacity="0.3"/>
<path d="M-10.9688 69.9083L-5.10233 157.965L-0.0503445 233.797C14.4479 237.77 4.93606 236.07 13.2619 242.175C17.4138 244.195 17.3917 242.13 21.5435 244.15C25.6954 246.17 29.8028 244.062 36.0195 246.059C38.0843 246.037 50.5178 250.033 52.5604 247.946C54.603 245.86 58.7326 245.815 60.7975 245.793L64.9271 245.749L75.2513 245.638C79.381 245.593 81.468 247.635 85.5977 247.591L95.9219 247.48C104.159 245.327 108.244 241.154 110.354 245.26C110.376 247.325 114.505 247.28 118.635 247.236C122.765 247.191 129.026 253.318 145.545 253.14C147.609 253.118 151.717 251.009 151.739 253.074C153.826 255.116 157.978 257.136 160.043 257.114C162.13 259.156 168.302 257.025 172.432 256.981C174.497 256.958 178.604 254.85 178.604 254.85C197.165 252.585 184.798 254.783 197.143 250.521C199.208 250.499 203.315 248.39 205.402 250.432C209.576 254.517 213.662 250.343 217.814 252.363C219.856 250.277 221.921 250.255 223.986 250.232C223.986 250.232 246.721 252.053 250.807 247.879C252.849 245.793 257 247.813 259.065 247.791C294.123 243.284 275.605 249.677 316.879 247.169L327.204 247.058C327.204 247.058 329.269 247.036 331.311 244.949L335.441 244.905C337.528 246.947 337.506 244.883 345.765 244.794C349.917 246.814 356.067 242.618 362.261 242.552C364.304 240.465 368.412 238.356 370.476 238.334C372.541 238.312 370.454 236.27 378.691 234.117C386.928 231.963 389.038 236.07 393.145 233.961C411.573 219.31 415.792 227.524 421.942 223.328C424.007 223.306 430.179 221.175 430.201 223.239C432.31 227.346 434.353 225.26 438.505 227.28C453.025 233.317 459.153 227.058 469.566 235.204C471.653 237.246 473.696 235.16 479.89 235.093C512.928 234.738 496.453 239.044 515.037 238.845C523.296 238.756 521.232 238.778 523.319 240.82C527.448 240.776 533.687 244.838 535.752 244.816C537.817 244.794 539.882 244.771 541.969 246.814C550.317 254.983 552.293 246.703 570.987 256.825C581.267 252.585 583.354 254.627 589.549 254.561C597.808 254.472 593.7 256.581 601.96 256.492C606.089 256.448 604.047 258.534 608.176 258.49C616.436 258.401 610.286 262.596 618.545 262.508C618.567 264.572 628.847 260.332 628.847 260.332L637.106 260.243C645.344 258.09 653.647 262.13 661.884 259.977L674.273 259.844C676.338 259.822 686.64 257.646 688.705 257.624C694.9 257.557 750.694 261.087 773.385 258.778C781.623 256.625 771.299 256.736 794.012 256.492C798.142 256.447 800.229 258.49 804.336 256.381L810.531 256.314L814.661 256.27C820.877 258.268 822.898 254.117 833.244 256.07C837.374 256.026 835.287 253.983 839.416 253.939L858 253.739L864.195 253.673C868.324 253.628 874.496 251.497 880.691 251.431C891.015 251.32 886.952 257.557 913.751 253.14C922.01 253.051 946.877 261.042 955.092 256.825C959.221 256.78 963.329 254.671 967.481 256.691C971.632 258.711 979.825 252.429 990.172 254.383C992.236 254.361 994.279 252.274 1000.5 254.272L1017.01 254.094C1019.08 254.072 1021.14 254.05 1023.19 251.963L1025.25 251.941C1033.51 251.852 1033.47 247.723 1037.6 247.679C1049.99 247.546 1045.88 249.655 1062.42 251.541C1064.48 251.519 1081.05 255.47 1083.11 255.448C1089.35 259.51 1110 259.288 1112.09 261.331C1116.19 259.222 1118.3 263.328 1122.43 263.284C1122.43 263.284 1124.47 261.197 1126.56 263.24C1132.8 267.302 1145.19 267.169 1147.23 265.082C1151.34 262.973 1188.57 268.767 1194.77 268.7C1200.94 266.569 1198.88 266.592 1203 266.547C1229.89 270.387 1281.79 273.445 1285.92 273.4L1285.92 196.818L1285.93 129.318C1281.8 129.363 1269.61 123.37 1263.4 121.372C1259.22 117.288 1255.11 119.397 1253.03 117.354C1250.94 115.312 1250.94 115.312 1246.81 115.357L1246.81 115.357C1242.68 115.401 1240.64 117.488 1236.51 117.532L1234.44 117.554C1230.29 115.534 1228.25 117.621 1226.18 117.643L1219.99 117.71C1205.56 119.929 1213.77 115.712 1180.71 114.003C1178.65 114.025 1174.5 112.005 1168.32 114.136C1166.28 116.222 1160.07 114.225 1157.98 112.182C1155.91 112.205 1155.87 108.076 1149.67 108.142C1147.61 108.165 1137.26 106.211 1133.16 108.32C1131.11 110.407 1129.03 108.364 1124.9 108.409C1122.85 110.495 1118.7 108.475 1114.57 108.52C1112.53 110.606 1106.31 108.609 1106.31 108.609C1102.18 108.653 1100.1 106.611 1093.88 104.613C1089.77 106.722 1087.69 104.68 1087.66 102.615C1068.99 94.5572 1081.47 102.682 1069.04 98.6861C1066.97 98.7083 1062.86 100.817 1058.71 98.7971C1056.65 98.8193 1044.24 96.8881 1044.24 96.8881C1042.17 96.9103 1038.06 99.0191 1033.91 96.9991L1027.72 97.0657L1025.65 97.0879C1015.35 99.2633 994.613 91.2276 990.505 93.3364L988.44 93.3586C986.376 93.3808 982.224 91.3608 980.159 91.383C978.072 89.3408 975.985 87.2986 961.553 89.5184L949.164 89.6516C922.321 89.9402 942.97 89.7182 926.473 91.9602C916.149 92.0712 916.171 94.1356 909.954 92.1378C877.028 102.815 881.113 98.6418 860.487 100.928C860.509 102.993 858.422 100.95 856.38 103.037L846.056 103.148C843.991 103.17 839.817 99.0858 837.752 99.108L825.363 99.2412C821.233 99.2856 821.255 101.35 817.126 101.394C804.737 101.528 815.083 103.481 796.5 103.681C796.5 103.681 796.522 105.745 788.262 105.834L775.873 105.967C765.527 104.014 753.159 106.211 751.095 106.234L738.706 106.367C734.576 106.411 728.359 104.413 720.1 104.502C697.342 100.618 709.776 104.613 682.911 102.837C678.781 102.882 676.694 100.84 676.694 100.84C674.629 100.862 670.5 100.906 668.413 98.864C666.326 96.8218 662.196 96.8662 658.066 96.9106C645.655 94.9794 645.633 92.915 643.59 95.0016L637.396 95.0682C637.396 95.0682 631.223 97.1992 622.986 99.3524C620.921 99.3746 612.64 97.399 610.575 97.4212L608.51 97.4434C604.403 99.5522 602.293 95.4456 600.273 99.5966C596.188 103.77 596.143 99.641 592.014 99.6854C573.474 104.014 581.689 99.7964 575.495 99.863C569.3 99.9296 565.082 91.7163 563.039 93.8029C558.932 95.9118 556.889 97.9984 554.802 95.9562C552.737 95.9784 552.76 98.0428 548.608 96.0228C538.239 92.0049 540.348 96.1115 534.109 92.0493C525.806 88.0093 529.935 87.9649 523.763 90.0959L521.72 92.1825L519.656 92.2047L513.461 92.2713C511.396 92.2935 511.374 90.2291 509.309 90.2513L505.18 90.2957C503.115 90.3179 503.048 84.1246 496.876 86.2556L494.811 86.2778C492.724 84.2356 486.618 92.5599 484.487 86.3888C478.315 88.5199 478.315 88.5199 476.227 86.4776C476.227 86.4776 470.011 84.4798 467.968 86.5664L463.839 86.6108C459.731 88.7197 457.644 86.6774 453.514 86.7218C451.494 90.8729 445.299 90.9395 443.212 88.8973C437.04 91.0283 437.062 93.0927 434.975 91.0505C432.91 91.0727 428.803 93.1815 426.738 93.2037C420.588 97.3991 420.544 93.2703 416.436 95.3791L412.306 95.4235L410.242 95.4457C406.09 93.4257 406.023 87.2324 387.44 87.4322C375.051 87.5654 383.288 85.4122 375.028 85.501C373.008 89.652 362.684 89.763 356.445 85.7008C354.38 85.723 354.402 87.7874 352.337 87.8096C350.273 87.8318 348.23 89.9184 346.165 89.9406C339.993 92.0717 339.948 87.9428 335.841 90.0516C333.776 90.0738 331.689 88.0316 329.647 90.1182C327.626 94.2693 323.452 90.1849 319.367 94.3581C313.217 98.5535 294.611 96.6889 286.352 96.7777C282.222 96.8221 284.265 94.7355 278.048 92.7377C273.896 90.7176 273.896 90.7176 269.766 90.762C263.594 92.893 265.614 88.742 261.507 90.8508C257.399 92.9596 253.272 93.004 249.142 93.0484C247.077 93.0706 245.012 93.0928 244.99 91.0284C236.753 93.1816 224.342 91.2504 222.277 91.2726C220.19 89.2304 216.082 91.3392 211.953 91.3836C207.823 91.428 207.868 95.5568 197.521 93.6034C195.456 93.6256 197.499 91.539 195.412 89.4968C193.347 89.519 195.39 87.4324 189.217 89.5634L178.893 89.6744C174.764 89.7188 168.525 85.6566 168.48 81.5277C164.351 81.5721 156.158 87.8542 137.441 75.6675C135.376 75.6897 129.248 81.9495 125.074 77.8651C120.922 75.8451 118.88 77.9317 116.771 73.8251C114.661 69.7184 112.574 67.6762 108.489 71.8495C104.404 76.0227 102.295 71.9161 98.2093 76.0893C94.1241 80.2625 92.0372 78.2203 81.7129 78.3313L75.5184 78.3979C69.3461 80.5289 57.0236 86.8553 56.8904 74.4689L48.6312 74.5577C42.3701 68.431 9.55466 89.4303 5.20307 68.8306C-5.16555 64.8128 -4.77431 69.8417 -10.9688 69.9083Z" fill="#40DCFF"/>
</g>
<defs>
<clipPath id="clip0">
<rect width="1280" height="311" fill="white"/>
</clipPath>
</defs>
</svg>
