<svg width="1280" height="311" viewBox="0 0 1280 311" fill="none" xmlns="http://www.w3.org/2000/svg">
<g clip-path="url(#clip0)">
<path d="M1287.44 64.4487L1281.58 152.505L1276.52 228.337C1262.03 232.311 1271.54 230.611 1263.21 236.715C1259.06 238.735 1259.08 236.671 1254.93 238.691C1250.78 240.711 1246.67 238.602 1240.45 240.6C1238.39 240.578 1225.96 244.573 1223.91 242.487C1221.87 240.4 1217.74 240.356 1215.68 240.333L1211.55 240.289L1201.22 240.178C1197.09 240.134 1195 242.176 1190.88 242.131L1180.55 242.02C1172.31 239.867 1168.23 235.694 1166.12 239.801C1166.1 241.865 1161.97 241.821 1157.84 241.776C1153.71 241.732 1147.45 247.858 1130.93 247.681C1128.86 247.659 1124.76 245.55 1124.73 247.614C1122.65 249.656 1118.5 251.676 1116.43 251.654C1114.34 253.697 1108.17 251.565 1104.04 251.521C1101.98 251.499 1097.87 249.39 1097.87 249.39C1079.31 247.126 1091.67 249.323 1079.33 245.061C1077.27 245.039 1073.16 242.93 1071.07 244.973C1066.9 249.057 1062.81 244.884 1058.66 246.904C1056.62 244.817 1054.55 244.795 1052.49 244.773C1052.49 244.773 1029.75 246.593 1025.67 242.42C1023.62 240.333 1019.47 242.353 1017.41 242.331C982.35 237.825 1000.87 244.218 959.593 241.709L949.269 241.598C949.269 241.598 947.204 241.576 945.161 239.49L941.032 239.445C938.944 241.487 938.967 239.423 930.707 239.334C926.555 241.354 920.405 237.159 914.211 237.092C912.168 235.006 908.061 232.897 905.996 232.875C903.931 232.852 906.018 230.81 897.781 228.657C889.544 226.504 887.434 230.61 883.327 228.502C864.899 213.851 860.681 222.064 854.53 217.869C852.466 217.847 846.293 215.716 846.271 217.78C844.162 221.887 842.119 219.8 837.967 221.82C823.447 227.858 817.319 221.598 806.906 229.745C804.819 231.787 802.776 229.7 796.582 229.634C763.545 229.278 780.019 233.585 761.435 233.385C753.176 233.296 755.241 233.318 753.154 235.361C749.024 235.316 742.785 239.379 740.72 239.356C738.656 239.334 736.591 239.312 734.504 241.354C726.156 249.523 724.179 241.243 705.485 251.365C695.205 247.126 693.118 249.168 686.924 249.101C678.664 249.012 682.772 251.121 674.512 251.032C670.383 250.988 672.425 253.075 668.296 253.03C660.036 252.941 666.187 257.137 657.927 257.048C657.905 259.112 647.625 254.873 647.625 254.873L639.366 254.784C631.129 252.631 622.825 256.671 614.588 254.517L602.199 254.384C600.134 254.362 589.832 252.187 587.767 252.164C581.573 252.098 525.778 255.627 503.087 253.319C494.85 251.165 505.174 251.276 482.461 251.032C478.331 250.988 476.244 253.03 472.136 250.921L465.942 250.855L461.812 250.81C455.596 252.808 453.575 248.657 443.229 250.61C439.099 250.566 441.186 248.524 437.056 248.479L418.473 248.28L412.278 248.213C408.149 248.169 401.976 246.038 395.782 245.971C385.458 245.86 389.521 252.098 362.722 247.68C354.463 247.591 329.596 255.583 321.381 251.365C317.252 251.321 313.144 249.212 308.992 251.232C304.84 253.252 296.648 246.97 286.301 248.923C284.236 248.901 282.194 246.814 275.977 248.812L259.458 248.635C257.394 248.612 255.329 248.59 253.286 246.504L251.221 246.481C242.962 246.393 243.006 242.264 238.877 242.219C226.488 242.086 230.595 244.195 214.054 246.082C211.989 246.06 195.426 250.011 193.361 249.989C187.123 254.051 166.474 253.829 164.387 255.871C160.28 253.762 158.171 257.869 154.041 257.825C154.041 257.825 151.998 255.738 149.911 257.78C143.672 261.842 131.283 261.709 129.241 259.623C125.133 257.514 87.8997 263.307 81.7052 263.241C75.5329 261.11 77.5977 261.132 73.468 261.088C46.5808 264.928 -5.32093 267.985 -9.45059 267.941L-4.29953 190.612L-6.53127 124.318C-2.4016 124.363 6.85993 117.91 13.0766 115.913C17.2507 111.828 21.3581 113.937 23.4452 111.895C25.5322 109.853 25.5322 109.853 29.6618 109.897L29.6619 109.897C33.7915 109.941 35.8342 112.028 39.9638 112.072L42.0287 112.095C46.1805 110.075 48.2232 112.161 50.288 112.183L56.4826 112.25C70.9142 114.47 62.6993 110.252 95.7588 108.543C97.8237 108.565 101.976 106.545 108.148 108.676C110.19 110.763 116.407 108.765 118.494 106.723C120.559 106.745 120.603 102.616 126.798 102.683C128.863 102.705 139.209 100.752 143.317 102.86C145.359 104.947 147.446 102.905 151.576 102.949C153.618 105.036 157.77 103.016 161.9 103.06C163.943 105.147 170.159 103.149 170.159 103.149C174.289 103.193 176.376 101.151 182.593 99.1534C186.7 101.262 188.787 99.22 188.809 97.1556C207.482 89.0977 195.004 97.2222 207.437 93.2265C209.502 93.2487 213.61 95.3575 217.762 93.3375C219.826 93.3597 232.238 91.4285 232.238 91.4285C234.302 91.4507 238.41 93.5595 242.562 91.5395L248.756 91.6061L250.821 91.6283C261.123 93.8037 281.86 85.7681 285.968 87.8769L288.033 87.8991C290.097 87.9213 294.249 85.9013 296.314 85.9235C298.401 83.8813 300.488 81.839 314.92 84.0588L327.309 84.192C354.152 84.4806 333.503 84.2586 350 86.5007C360.324 86.6117 360.302 88.6761 366.518 86.6783C399.445 97.3555 395.359 93.1823 415.986 95.4687C415.963 97.5331 418.05 95.4909 420.093 97.5775L430.417 97.6885C432.482 97.7107 436.656 93.6263 438.721 93.6485L451.11 93.7817C455.24 93.8261 455.218 95.8905 459.347 95.9349C471.736 96.0681 461.39 98.0215 479.973 98.2213C479.973 98.2213 479.951 100.286 488.21 100.375L500.599 100.508C510.946 98.5543 523.313 100.752 525.378 100.774L537.767 100.907C541.896 100.952 548.113 98.9539 556.372 99.0427C579.13 95.1581 566.696 99.1537 593.562 97.3779C597.691 97.4223 599.778 95.3801 599.778 95.3801C601.843 95.4023 605.973 95.4467 608.06 93.4044C610.147 91.3622 614.276 91.4066 618.406 91.451C630.817 89.5198 630.839 87.4554 632.882 89.542L639.077 89.6086C639.077 89.6086 645.249 91.7396 653.486 93.8928C655.551 93.915 663.832 91.9394 665.897 91.9616L667.962 91.9838C672.07 94.0926 674.179 89.986 676.199 94.137C680.285 98.3103 680.329 94.1814 684.459 94.2258C702.998 98.5545 694.783 94.3368 700.977 94.4034C707.172 94.47 711.39 86.2568 713.433 88.3434C717.54 90.4522 719.583 92.5388 721.67 90.4966C723.735 90.5188 723.713 92.5832 727.865 90.5632C738.233 86.5454 736.124 90.652 742.363 86.5898C750.667 82.5497 746.537 82.5053 752.709 84.6363L754.752 86.723L756.817 86.7452L763.011 86.8118C765.076 86.834 765.098 84.7695 767.163 84.7917L771.293 84.8361C773.357 84.8583 773.424 78.6651 779.596 80.7961L781.661 80.8183C783.748 78.7761 789.854 87.1003 791.985 80.9293C798.158 83.0603 798.158 83.0603 800.245 81.0181C800.245 81.0181 806.461 79.0203 808.504 81.1069L812.634 81.1513C816.741 83.2601 818.828 81.2179 822.958 81.2623C824.978 85.4133 831.173 85.4799 833.26 83.4377C839.432 85.5687 839.41 87.6331 841.497 85.5909C843.562 85.6131 847.669 87.7219 849.734 87.7441C855.884 91.9396 855.929 87.8108 860.036 89.9196L864.166 89.964L866.231 89.9862C870.382 87.9662 870.449 81.7729 889.033 81.9727C901.422 82.1059 893.185 79.9527 901.444 80.0415C903.464 84.1925 913.788 84.3035 920.027 80.2413C922.092 80.2635 922.07 82.3279 924.135 82.3501C926.2 82.3723 928.242 84.4589 930.307 84.4811C936.479 86.6121 936.524 82.4833 940.631 84.5921C942.696 84.6143 944.783 82.5721 946.826 84.6587C948.846 88.8097 953.02 84.7253 957.106 88.8985C963.256 93.094 981.861 91.2294 990.121 91.3182C994.25 91.3626 992.208 89.2759 998.424 87.2781C1002.58 85.2581 1002.58 85.2581 1006.71 85.3025C1012.88 87.4335 1010.86 83.2825 1014.97 85.3913C1019.07 87.5001 1023.2 87.5445 1027.33 87.5889C1029.4 87.6111 1031.46 87.6333 1031.48 85.5689C1039.72 87.7221 1052.13 85.7909 1054.2 85.8131C1056.28 83.7709 1060.39 85.8797 1064.52 85.9241C1068.65 85.9685 1068.61 90.0973 1078.95 88.1439C1081.02 88.1661 1078.97 86.0795 1081.06 84.0372C1083.13 84.0594 1081.08 81.9728 1087.26 84.1038L1097.58 84.2148C1101.71 84.2592 1107.95 80.197 1107.99 76.0682C1112.12 76.1126 1120.32 82.3946 1139.03 70.2079C1141.1 70.2301 1147.22 76.49 1151.4 72.4056C1155.55 70.3855 1157.59 72.4722 1159.7 68.3655C1161.81 64.2589 1163.9 62.2167 1167.98 66.3899C1172.07 70.5631 1174.18 66.4565 1178.26 70.6297C1182.35 74.803 1184.44 72.7607 1194.76 72.8717L1200.95 72.9383C1207.13 75.0694 1219.45 81.3958 1219.58 69.0093L1227.84 69.0981C1234.1 62.9715 1266.92 83.9708 1271.27 63.3711C1281.64 59.3532 1281.25 64.3821 1287.44 64.4487Z" fill="white"/>
<path d="M1287.44 64.4487L1281.58 152.505L1276.52 228.337C1262.03 232.311 1271.54 230.611 1263.21 236.715C1259.06 238.735 1259.08 236.671 1254.93 238.691C1250.78 240.711 1246.67 238.602 1240.45 240.6C1238.39 240.578 1225.96 244.573 1223.91 242.487C1221.87 240.4 1217.74 240.356 1215.68 240.333L1211.55 240.289L1201.22 240.178C1197.09 240.134 1195 242.176 1190.88 242.131L1180.55 242.02C1172.31 239.867 1168.23 235.694 1166.12 239.801C1166.1 241.865 1161.97 241.821 1157.84 241.776C1153.71 241.732 1147.45 247.858 1130.93 247.681C1128.86 247.659 1124.76 245.55 1124.73 247.614C1122.65 249.656 1118.5 251.676 1116.43 251.654C1114.34 253.697 1108.17 251.565 1104.04 251.521C1101.98 251.499 1097.87 249.39 1097.87 249.39C1079.31 247.126 1091.67 249.323 1079.33 245.061C1077.27 245.039 1073.16 242.93 1071.07 244.973C1066.9 249.057 1062.81 244.884 1058.66 246.904C1056.62 244.817 1054.55 244.795 1052.49 244.773C1052.49 244.773 1029.75 246.593 1025.67 242.42C1023.62 240.333 1019.47 242.353 1017.41 242.331C982.35 237.825 1000.87 244.218 959.593 241.709L949.269 241.598C949.269 241.598 947.204 241.576 945.161 239.49L941.032 239.445C938.944 241.487 938.967 239.423 930.707 239.334C926.555 241.354 920.405 237.159 914.211 237.092C912.168 235.006 908.061 232.897 905.996 232.875C903.931 232.852 906.018 230.81 897.781 228.657C889.544 226.504 887.434 230.61 883.327 228.502C864.899 213.851 860.681 222.064 854.53 217.869C852.466 217.847 846.293 215.716 846.271 217.78C844.162 221.887 842.119 219.8 837.967 221.82C823.447 227.858 817.319 221.598 806.906 229.745C804.819 231.787 802.776 229.7 796.582 229.634C763.545 229.278 780.019 233.585 761.435 233.385C753.176 233.296 755.241 233.318 753.154 235.361C749.024 235.316 742.785 239.379 740.72 239.356C738.656 239.334 736.591 239.312 734.504 241.354C726.156 249.523 724.179 241.243 705.485 251.365C695.205 247.126 693.118 249.168 686.924 249.101C678.664 249.012 682.772 251.121 674.512 251.032C670.383 250.988 672.425 253.075 668.296 253.03C660.036 252.941 666.187 257.137 657.927 257.048C657.905 259.112 647.625 254.873 647.625 254.873L639.366 254.784C631.129 252.631 622.825 256.671 614.588 254.517L602.199 254.384C600.134 254.362 589.832 252.187 587.767 252.164C581.573 252.098 525.778 255.627 503.087 253.319C494.85 251.165 505.174 251.276 482.461 251.032C478.331 250.988 476.244 253.03 472.136 250.921L465.942 250.855L461.812 250.81C455.596 252.808 453.575 248.657 443.229 250.61C439.099 250.566 441.186 248.524 437.056 248.479L418.473 248.28L412.278 248.213C408.149 248.169 401.976 246.038 395.782 245.971C385.458 245.86 389.521 252.098 362.722 247.68C354.463 247.591 329.596 255.583 321.381 251.365C317.252 251.321 313.144 249.212 308.992 251.232C304.84 253.252 296.648 246.97 286.301 248.923C284.236 248.901 282.194 246.814 275.977 248.812L259.458 248.635C257.394 248.612 255.329 248.59 253.286 246.504L251.221 246.481C242.962 246.393 243.006 242.264 238.877 242.219C226.488 242.086 230.595 244.195 214.054 246.082C211.989 246.06 195.426 250.011 193.361 249.989C187.123 254.051 166.474 253.829 164.387 255.871C160.28 253.762 158.171 257.869 154.041 257.825C154.041 257.825 151.998 255.738 149.911 257.78C143.672 261.842 131.283 261.709 129.241 259.623C125.133 257.514 87.8997 263.307 81.7052 263.241C75.5329 261.11 77.5977 261.132 73.468 261.088C46.5808 264.928 -5.32093 267.985 -9.45059 267.941L-4.29953 190.612L-6.53127 124.318C-2.4016 124.363 6.85993 117.91 13.0766 115.913C17.2507 111.828 21.3581 113.937 23.4452 111.895C25.5322 109.853 25.5322 109.853 29.6618 109.897L29.6619 109.897C33.7915 109.941 35.8342 112.028 39.9638 112.072L42.0287 112.095C46.1805 110.075 48.2232 112.161 50.288 112.183L56.4826 112.25C70.9142 114.47 62.6993 110.252 95.7588 108.543C97.8237 108.565 101.976 106.545 108.148 108.676C110.19 110.763 116.407 108.765 118.494 106.723C120.559 106.745 120.603 102.616 126.798 102.683C128.863 102.705 139.209 100.752 143.317 102.86C145.359 104.947 147.446 102.905 151.576 102.949C153.618 105.036 157.77 103.016 161.9 103.06C163.943 105.147 170.159 103.149 170.159 103.149C174.289 103.193 176.376 101.151 182.593 99.1534C186.7 101.262 188.787 99.22 188.809 97.1556C207.482 89.0977 195.004 97.2222 207.437 93.2265C209.502 93.2487 213.61 95.3575 217.762 93.3375C219.826 93.3597 232.238 91.4285 232.238 91.4285C234.302 91.4507 238.41 93.5595 242.562 91.5395L248.756 91.6061L250.821 91.6283C261.123 93.8037 281.86 85.7681 285.968 87.8769L288.033 87.8991C290.097 87.9213 294.249 85.9013 296.314 85.9235C298.401 83.8813 300.488 81.839 314.92 84.0588L327.309 84.192C354.152 84.4806 333.503 84.2586 350 86.5007C360.324 86.6117 360.302 88.6761 366.518 86.6783C399.445 97.3555 395.359 93.1823 415.986 95.4687C415.963 97.5331 418.05 95.4909 420.093 97.5775L430.417 97.6885C432.482 97.7107 436.656 93.6263 438.721 93.6485L451.11 93.7817C455.24 93.8261 455.218 95.8905 459.347 95.9349C471.736 96.0681 461.39 98.0215 479.973 98.2213C479.973 98.2213 479.951 100.286 488.21 100.375L500.599 100.508C510.946 98.5543 523.313 100.752 525.378 100.774L537.767 100.907C541.896 100.952 548.113 98.9539 556.372 99.0427C579.13 95.1581 566.696 99.1537 593.562 97.3779C597.691 97.4223 599.778 95.3801 599.778 95.3801C601.843 95.4023 605.973 95.4467 608.06 93.4044C610.147 91.3622 614.276 91.4066 618.406 91.451C630.817 89.5198 630.839 87.4554 632.882 89.542L639.077 89.6086C639.077 89.6086 645.249 91.7396 653.486 93.8928C655.551 93.915 663.832 91.9394 665.897 91.9616L667.962 91.9838C672.07 94.0926 674.179 89.986 676.199 94.137C680.285 98.3103 680.329 94.1814 684.459 94.2258C702.998 98.5545 694.783 94.3368 700.977 94.4034C707.172 94.47 711.39 86.2568 713.433 88.3434C717.54 90.4522 719.583 92.5388 721.67 90.4966C723.735 90.5188 723.713 92.5832 727.865 90.5632C738.233 86.5454 736.124 90.652 742.363 86.5898C750.667 82.5497 746.537 82.5053 752.709 84.6363L754.752 86.723L756.817 86.7452L763.011 86.8118C765.076 86.834 765.098 84.7695 767.163 84.7917L771.293 84.8361C773.357 84.8583 773.424 78.6651 779.596 80.7961L781.661 80.8183C783.748 78.7761 789.854 87.1003 791.985 80.9293C798.158 83.0603 798.158 83.0603 800.245 81.0181C800.245 81.0181 806.461 79.0203 808.504 81.1069L812.634 81.1513C816.741 83.2601 818.828 81.2179 822.958 81.2623C824.978 85.4133 831.173 85.4799 833.26 83.4377C839.432 85.5687 839.41 87.6331 841.497 85.5909C843.562 85.6131 847.669 87.7219 849.734 87.7441C855.884 91.9396 855.929 87.8108 860.036 89.9196L864.166 89.964L866.231 89.9862C870.382 87.9662 870.449 81.7729 889.033 81.9727C901.422 82.1059 893.185 79.9527 901.444 80.0415C903.464 84.1925 913.788 84.3035 920.027 80.2413C922.092 80.2635 922.07 82.3279 924.135 82.3501C926.2 82.3723 928.242 84.4589 930.307 84.4811C936.479 86.6121 936.524 82.4833 940.631 84.5921C942.696 84.6143 944.783 82.5721 946.826 84.6587C948.846 88.8097 953.02 84.7253 957.106 88.8985C963.256 93.094 981.861 91.2294 990.121 91.3182C994.25 91.3626 992.208 89.2759 998.424 87.2781C1002.58 85.2581 1002.58 85.2581 1006.71 85.3025C1012.88 87.4335 1010.86 83.2825 1014.97 85.3913C1019.07 87.5001 1023.2 87.5445 1027.33 87.5889C1029.4 87.6111 1031.46 87.6333 1031.48 85.5689C1039.72 87.7221 1052.13 85.7909 1054.2 85.8131C1056.28 83.7709 1060.39 85.8797 1064.52 85.9241C1068.65 85.9685 1068.61 90.0973 1078.95 88.1439C1081.02 88.1661 1078.97 86.0795 1081.06 84.0372C1083.13 84.0594 1081.08 81.9728 1087.26 84.1038L1097.58 84.2148C1101.71 84.2592 1107.95 80.197 1107.99 76.0682C1112.12 76.1126 1120.32 82.3946 1139.03 70.2079C1141.1 70.2301 1147.22 76.49 1151.4 72.4056C1155.55 70.3855 1157.59 72.4722 1159.7 68.3655C1161.81 64.2589 1163.9 62.2167 1167.98 66.3899C1172.07 70.5631 1174.18 66.4565 1178.26 70.6297C1182.35 74.803 1184.44 72.7607 1194.76 72.8717L1200.95 72.9383C1207.13 75.0694 1219.45 81.3958 1219.58 69.0093L1227.84 69.0981C1234.1 62.9715 1266.92 83.9708 1271.27 63.3711C1281.64 59.3532 1281.25 64.3821 1287.44 64.4487Z" fill="#272727" fill-opacity="0.3"/>
<path d="M1287.44 69.9083L1281.57 157.965L1276.52 233.797C1262.02 237.77 1271.54 236.07 1263.21 242.175C1259.06 244.195 1259.08 242.13 1254.93 244.15C1250.78 246.17 1246.67 244.062 1240.45 246.059C1238.39 246.037 1225.95 250.033 1223.91 247.946C1221.87 245.86 1217.74 245.815 1215.68 245.793L1211.55 245.749L1201.22 245.638C1197.09 245.593 1195 247.635 1190.88 247.591L1180.55 247.48C1172.31 245.327 1168.23 241.154 1166.12 245.26C1166.1 247.325 1161.97 247.28 1157.84 247.236C1153.71 247.191 1147.45 253.318 1130.93 253.14C1128.86 253.118 1124.76 251.009 1124.73 253.074C1122.65 255.116 1118.49 257.136 1116.43 257.114C1114.34 259.156 1108.17 257.025 1104.04 256.981C1101.98 256.958 1097.87 254.85 1097.87 254.85C1079.31 252.585 1091.67 254.783 1079.33 250.521C1077.26 250.499 1073.16 248.39 1071.07 250.432C1066.9 254.517 1062.81 250.343 1058.66 252.363C1056.62 250.277 1054.55 250.255 1052.49 250.232C1052.49 250.232 1029.75 252.053 1025.67 247.879C1023.62 245.793 1019.47 247.813 1017.41 247.791C982.35 243.284 1000.87 249.677 959.593 247.169L949.269 247.058C949.269 247.058 947.204 247.036 945.161 244.949L941.032 244.905C938.945 246.947 938.967 244.883 930.708 244.794C926.556 246.814 920.406 242.618 914.211 242.552C912.169 240.465 908.061 238.356 905.996 238.334C903.931 238.312 906.018 236.27 897.781 234.117C889.544 231.963 887.435 236.07 883.327 233.961C864.899 219.31 860.681 227.524 854.531 223.328C852.466 223.306 846.294 221.175 846.271 223.239C844.162 227.346 842.12 225.26 837.968 227.28C823.447 233.317 817.319 227.058 806.906 235.204C804.819 237.246 802.777 235.16 796.582 235.093C763.545 234.738 780.019 239.044 761.436 238.845C753.176 238.756 755.241 238.778 753.154 240.82C749.024 240.776 742.786 244.838 740.721 244.816C738.656 244.794 736.591 244.771 734.504 246.814C726.156 254.983 724.18 246.703 705.485 256.825C695.206 252.585 693.119 254.627 686.924 254.561C678.665 254.472 682.772 256.581 674.513 256.492C670.383 256.448 672.426 258.534 668.296 258.49C660.037 258.401 666.187 262.596 657.928 262.508C657.905 264.572 647.626 260.332 647.626 260.332L639.366 260.243C631.129 258.09 622.825 262.13 614.588 259.977L602.199 259.844C600.134 259.822 589.832 257.646 587.768 257.624C581.573 257.557 525.778 261.087 503.087 258.778C494.85 256.625 505.174 256.736 482.46 256.492C478.331 256.447 476.244 258.49 472.136 256.381L465.942 256.314L461.812 256.27C455.595 258.268 453.575 254.117 443.228 256.07C439.099 256.026 441.186 253.983 437.056 253.939L418.473 253.739L412.278 253.673C408.148 253.628 401.976 251.497 395.782 251.431C385.458 251.32 389.521 257.557 362.722 253.14C354.463 253.051 329.596 261.042 321.381 256.825C317.251 256.78 313.144 254.671 308.992 256.691C304.84 258.711 296.647 252.429 286.301 254.383C284.236 254.361 282.194 252.274 275.977 254.272L259.458 254.094C257.393 254.072 255.329 254.05 253.286 251.963L251.221 251.941C242.962 251.852 243.006 247.723 238.876 247.679C226.487 247.546 230.595 249.655 214.054 251.541C211.989 251.519 195.426 255.47 193.361 255.448C187.122 259.51 166.474 259.288 164.387 261.331C160.28 259.222 158.17 263.328 154.041 263.284C154.041 263.284 151.998 261.197 149.911 263.24C143.672 267.302 131.283 267.169 129.241 265.082C125.133 262.973 87.8995 268.767 81.705 268.7C75.5327 266.569 77.5976 266.592 73.4679 266.547C46.5807 270.387 -5.32104 273.445 -9.45071 273.4L-9.45069 196.818L-9.45248 129.318C-5.32281 129.363 6.85981 123.37 13.0765 121.372C17.2506 117.288 21.358 119.397 23.445 117.354C25.5321 115.312 25.5321 115.312 29.6617 115.357L29.6617 115.357C33.7914 115.401 35.834 117.488 39.9637 117.532L42.0286 117.554C46.1804 115.534 48.2231 117.621 50.2879 117.643L56.4824 117.71C70.9141 119.929 62.6991 115.712 95.7587 114.003C97.8235 114.025 101.975 112.005 108.148 114.136C110.19 116.222 116.407 114.225 118.494 112.182C120.559 112.205 120.603 108.076 126.798 108.142C128.863 108.165 139.209 106.211 143.316 108.32C145.359 110.407 147.446 108.364 151.576 108.409C153.618 110.495 157.77 108.475 161.9 108.52C163.943 110.606 170.159 108.609 170.159 108.609C174.289 108.653 176.376 106.611 182.593 104.613C186.7 106.722 188.787 104.68 188.809 102.615C207.482 94.5572 195.004 102.682 207.437 98.6861C209.502 98.7083 213.61 100.817 217.761 98.7971C219.826 98.8193 232.237 96.8881 232.237 96.8881C234.302 96.9103 238.41 99.0191 242.562 96.9991L248.756 97.0657L250.821 97.0879C261.123 99.2633 281.86 91.2276 285.967 93.3364L288.032 93.3586C290.097 93.3808 294.249 91.3608 296.314 91.383C298.401 89.3408 300.488 87.2986 314.92 89.5184L327.309 89.6516C354.151 89.9402 333.503 89.7182 350 91.9602C360.324 92.0712 360.301 94.1356 366.518 92.1378C399.445 102.815 395.359 98.6418 415.985 100.928C415.963 102.993 418.05 100.95 420.093 103.037L430.417 103.148C432.482 103.17 436.656 99.0858 438.721 99.108L451.11 99.2412C455.239 99.2856 455.217 101.35 459.347 101.394C471.736 101.528 461.39 103.481 479.973 103.681C479.973 103.681 479.951 105.745 488.21 105.834L500.6 105.967C510.946 104.014 523.313 106.211 525.378 106.234L537.767 106.367C541.897 106.411 548.113 104.413 556.373 104.502C579.13 100.618 566.697 104.613 593.562 102.837C597.692 102.882 599.779 100.84 599.779 100.84C601.843 100.862 605.973 100.906 608.06 98.864C610.147 96.8218 614.277 96.8662 618.406 96.9106C630.818 94.9794 630.84 92.915 632.883 95.0016L639.077 95.0682C639.077 95.0682 645.249 97.1992 653.487 99.3524C655.551 99.3746 663.833 97.399 665.898 97.4212L667.963 97.4434C672.07 99.5522 674.179 95.4456 676.2 99.5966C680.285 103.77 680.329 99.641 684.459 99.6854C702.998 104.014 694.783 99.7964 700.978 99.863C707.172 99.9296 711.391 91.7163 713.433 93.8029C717.541 95.9118 719.583 97.9984 721.67 95.9562C723.735 95.9784 723.713 98.0428 727.865 96.0228C738.233 92.0049 736.124 96.1115 742.363 92.0493C750.667 88.0093 746.537 87.9649 752.71 90.0959L754.752 92.1825L756.817 92.2047L763.012 92.2713C765.076 92.2935 765.099 90.2291 767.163 90.2513L771.293 90.2957C773.358 90.3179 773.424 84.1246 779.597 86.2556L781.662 86.2778C783.749 84.2356 789.854 92.5599 791.986 86.3888C798.158 88.5199 798.158 88.5199 800.245 86.4776C800.245 86.4776 806.462 84.4798 808.505 86.5664L812.634 86.6108C816.742 88.7197 818.829 86.6774 822.958 86.7218C824.979 90.8729 831.173 90.9395 833.26 88.8973C839.433 91.0283 839.41 93.0927 841.497 91.0505C843.562 91.0727 847.67 93.1815 849.735 93.2037C855.885 97.3991 855.929 93.2703 860.037 95.3791L864.166 95.4235L866.231 95.4457C870.383 93.4257 870.449 87.2324 889.033 87.4322C901.422 87.5654 893.185 85.4122 901.444 85.501C903.465 89.652 913.789 89.763 920.028 85.7008C922.093 85.723 922.07 87.7874 924.135 87.8096C926.2 87.8318 928.243 89.9184 930.307 89.9406C936.48 92.0717 936.524 87.9428 940.632 90.0516C942.696 90.0738 944.784 88.0316 946.826 90.1182C948.847 94.2693 953.021 90.1849 957.106 94.3581C963.256 98.5535 981.862 96.6889 990.121 96.7777C994.251 96.8221 992.208 94.7355 998.425 92.7377C1002.58 90.7176 1002.58 90.7176 1006.71 90.762C1012.88 92.893 1010.86 88.742 1014.97 90.8508C1019.07 92.9596 1023.2 93.004 1027.33 93.0484C1029.4 93.0706 1031.46 93.0928 1031.48 91.0284C1039.72 93.1816 1052.13 91.2504 1054.2 91.2726C1056.28 89.2304 1060.39 91.3392 1064.52 91.3836C1068.65 91.428 1068.61 95.5568 1078.95 93.6034C1081.02 93.6256 1078.97 91.539 1081.06 89.4968C1083.13 89.519 1081.08 87.4324 1087.26 89.5634L1097.58 89.6744C1101.71 89.7188 1107.95 85.6566 1107.99 81.5277C1112.12 81.5721 1120.31 87.8542 1139.03 75.6675C1141.1 75.6897 1147.22 81.9495 1151.4 77.8651C1155.55 75.8451 1157.59 77.9317 1159.7 73.8251C1161.81 69.7184 1163.9 67.6762 1167.98 71.8495C1172.07 76.0227 1174.18 71.9161 1178.26 76.0893C1182.35 80.2625 1184.44 78.2203 1194.76 78.3313L1200.95 78.3979C1207.13 80.5289 1219.45 86.8553 1219.58 74.4689L1227.84 74.5577C1234.1 68.431 1266.92 89.4303 1271.27 68.8306C1281.64 64.8128 1281.25 69.8417 1287.44 69.9083Z" fill="white"/>
</g>
<defs>
<clipPath id="clip0">
<rect width="1280" height="311" fill="white"/>
</clipPath>
</defs>
</svg>
