<svg width="1280" height="311" viewBox="0 0 1280 311" fill="none" xmlns="http://www.w3.org/2000/svg">
<g clip-path="url(#clip0)">
<path d="M1287.45 270.87L1281.58 182.813L1276.53 106.981C1262.03 103.008 1271.54 104.708 1263.21 98.6033C1259.06 96.5833 1259.09 98.6477 1254.93 96.6277C1250.78 94.6077 1246.67 96.7165 1240.46 94.7187C1238.39 94.7409 1225.96 90.7452 1223.92 92.8319C1221.87 94.9185 1217.74 94.9629 1215.68 94.9851L1211.55 95.0295L1201.23 95.1405C1197.1 95.1849 1195.01 93.1426 1190.88 93.187L1180.56 93.298C1172.32 95.4513 1168.23 99.6245 1166.12 95.5179C1166.1 93.4535 1161.97 93.4978 1157.84 93.5422C1153.71 93.5866 1147.45 87.46 1130.93 87.6376C1128.87 87.6598 1124.76 89.7686 1124.74 87.7042C1122.65 85.662 1118.5 83.642 1116.43 83.6642C1114.35 81.622 1108.17 83.753 1104.05 83.7974C1101.98 83.8196 1097.87 85.9284 1097.87 85.9284C1079.31 88.1926 1091.68 85.995 1079.33 90.257C1077.27 90.2792 1073.16 92.388 1071.07 90.3458C1066.9 86.2614 1062.82 90.4346 1058.66 88.4146C1056.62 90.5012 1054.56 90.5234 1052.49 90.5456C1052.49 90.5456 1029.76 88.7254 1025.67 92.8986C1023.63 94.9852 1019.48 92.9652 1017.41 92.9874C982.354 97.4936 1000.87 91.1006 959.597 93.609L949.273 93.72C949.273 93.72 947.208 93.7422 945.165 95.8288L941.035 95.8732C938.948 93.831 938.971 95.8954 930.711 95.9842C926.559 93.9642 920.409 98.1596 914.215 98.2262C912.172 100.313 908.065 102.422 906 102.444C903.935 102.466 906.022 104.508 897.785 106.661C889.548 108.815 887.438 104.708 883.331 106.817C864.903 121.468 860.684 113.254 854.534 117.45C852.469 117.472 846.297 119.603 846.275 117.538C844.166 113.432 842.123 115.518 837.971 113.498C823.451 107.461 817.323 113.72 806.91 105.574C804.823 103.532 802.78 105.618 796.586 105.685C763.548 106.04 780.023 101.734 761.439 101.933C753.18 102.022 755.245 102 753.158 99.9578C749.028 100.002 742.789 95.9399 740.724 95.9621C738.659 95.9843 736.595 96.0065 734.508 93.9643C726.159 85.7955 724.183 94.0753 705.489 83.953C695.209 88.1929 693.122 86.1506 686.928 86.2172C678.668 86.306 682.776 84.1972 674.516 84.286C670.387 84.3304 672.429 82.2438 668.3 82.2882C660.04 82.377 666.191 78.1816 657.931 78.2704C657.909 76.206 647.629 80.4458 647.629 80.4458L639.37 80.5346C631.133 82.6878 622.829 78.6478 614.592 80.801L602.203 80.9342C600.138 80.9564 589.836 83.1318 587.771 83.154C581.577 83.2206 525.782 79.6912 503.091 81.9998C494.854 84.153 505.178 84.042 482.464 84.2862C478.335 84.3306 476.248 82.2884 472.14 84.3972L465.946 84.4638L461.816 84.5082C455.599 82.5103 453.579 86.6614 443.233 84.708C439.103 84.7524 441.19 86.7946 437.06 86.839L418.477 87.0388L412.282 87.1054C408.153 87.1498 401.98 89.2808 395.786 89.3474C385.462 89.4584 389.525 83.2207 362.726 87.6382C354.467 87.727 329.6 79.7357 321.385 83.9533C317.256 83.9977 313.148 86.1065 308.996 84.0865C304.844 82.0665 296.652 88.3485 286.305 86.3951C284.24 86.4173 282.198 88.5039 275.981 86.5061L259.462 86.6837C257.398 86.7059 255.333 86.7281 253.29 88.8147L251.225 88.8369C242.966 88.9257 243.01 93.0546 238.881 93.099C226.492 93.2322 230.599 91.1233 214.058 89.2365C211.993 89.2587 195.43 85.3075 193.365 85.3297C187.127 81.2675 166.478 81.4895 164.391 79.4473C160.284 81.5561 158.174 77.4494 154.045 77.4938C154.045 77.4938 152.002 79.5804 149.915 77.5382C143.676 73.476 131.287 73.6092 129.245 75.6958C125.137 77.8046 87.9036 72.011 81.7091 72.0776C75.5368 74.2086 77.6016 74.1864 73.472 74.2308C46.5847 70.3906 -5.317 67.333 -9.44667 67.3774L-4.29562 144.706L-6.52736 211C-2.39769 210.956 6.86384 217.408 13.0805 219.406C17.2546 223.49 21.362 221.381 23.4491 223.424C25.5361 225.466 25.5361 225.466 29.6657 225.421L29.6658 225.421C33.7954 225.377 35.8381 223.29 39.9677 223.246L42.0326 223.224C46.1844 225.244 48.2271 223.157 50.2919 223.135L56.4865 223.068C70.9181 220.849 62.7032 225.066 95.7627 226.775C97.8276 226.753 101.979 228.773 108.152 226.642C110.194 224.556 116.411 226.553 118.498 228.596C120.563 228.573 120.607 232.702 126.802 232.636C128.867 232.613 139.213 234.567 143.32 232.458C145.363 230.371 147.45 232.414 151.58 232.369C153.622 230.283 157.774 232.303 161.904 232.258C163.947 230.172 170.163 232.169 170.163 232.169C174.293 232.125 176.38 234.167 182.597 236.165C186.704 234.056 188.791 236.098 188.813 238.163C207.486 246.221 195.008 238.096 207.441 242.092C209.506 242.07 213.614 239.961 217.765 241.981C219.83 241.959 232.241 243.89 232.241 243.89C234.306 243.868 238.414 241.759 242.566 243.779L248.76 243.712L250.825 243.69C261.127 241.515 281.864 249.55 285.972 247.442L288.036 247.419C290.101 247.397 294.253 249.417 296.318 249.395C298.405 251.437 300.492 253.479 314.924 251.26L327.313 251.126C354.156 250.838 333.507 251.06 350.004 248.818C360.328 248.707 360.306 246.642 366.522 248.64C399.449 237.963 395.363 242.136 415.99 239.85C415.967 237.785 418.054 239.827 420.097 237.741L430.421 237.63C432.486 237.608 436.66 241.692 438.725 241.67L451.114 241.537C455.244 241.492 455.221 239.428 459.351 239.384C471.74 239.25 461.394 237.297 479.977 237.097C479.977 237.097 479.955 235.033 488.214 234.944L500.603 234.811C510.95 236.764 523.317 234.566 525.381 234.544L537.77 234.411C541.9 234.367 548.117 236.365 556.376 236.276C579.134 240.16 566.7 236.165 593.565 237.941C597.695 237.896 599.782 239.938 599.782 239.938C601.847 239.916 605.977 239.872 608.064 241.914C610.151 243.956 614.28 243.912 618.41 243.867C630.821 245.799 630.843 247.863 632.886 245.776L639.081 245.71C639.081 245.71 645.253 243.579 653.49 241.426C655.555 241.403 663.836 243.379 665.901 243.357L667.966 243.335C672.073 241.226 674.183 245.332 676.203 241.181C680.288 237.008 680.333 241.137 684.463 241.093C703.002 236.764 694.787 240.982 700.981 240.915C707.176 240.848 711.394 249.062 713.437 246.975C717.544 244.866 719.587 242.78 721.674 244.822C723.739 244.8 723.717 242.735 727.868 244.755C738.237 248.773 736.128 244.666 742.367 248.729C750.67 252.769 746.541 252.813 752.713 250.682L754.756 248.595L756.821 248.573L763.015 248.507C765.08 248.484 765.102 250.549 767.167 250.527L771.297 250.482C773.361 250.46 773.428 256.653 779.6 254.522L781.665 254.5C783.752 256.542 789.858 248.218 791.989 254.389C798.162 252.258 798.162 252.258 800.249 254.3C800.249 254.3 806.465 256.298 808.508 254.212L812.638 254.167C816.745 252.058 818.832 254.101 822.962 254.056C824.982 249.905 831.177 249.839 833.264 251.881C839.436 249.75 839.414 247.685 841.501 249.728C843.566 249.705 847.673 247.596 849.738 247.574C855.888 243.379 855.933 247.508 860.04 245.399L864.17 245.354L866.235 245.332C870.386 247.352 870.453 253.546 889.037 253.346C901.426 253.213 893.188 255.366 901.448 255.277C903.468 251.126 913.792 251.015 920.031 255.077C922.096 255.055 922.074 252.991 924.139 252.968C926.204 252.946 928.246 250.86 930.311 250.837C936.483 248.706 936.528 252.835 940.635 250.726C942.7 250.704 944.787 252.746 946.83 250.66C948.85 246.509 953.024 250.593 957.109 246.42C963.26 242.224 981.865 244.089 990.125 244C994.254 243.956 992.212 246.043 998.428 248.04C1002.58 250.06 1002.58 250.06 1006.71 250.016C1012.88 247.885 1010.86 252.036 1014.97 249.927C1019.08 247.818 1023.21 247.774 1027.33 247.73C1029.4 247.707 1031.46 247.685 1031.49 249.75C1039.72 247.596 1052.14 249.528 1054.2 249.505C1056.29 251.548 1060.39 249.439 1064.52 249.394C1068.65 249.35 1068.61 245.221 1078.96 247.175C1081.02 247.152 1078.98 249.239 1081.06 251.281C1083.13 251.259 1081.09 253.346 1087.26 251.215L1097.58 251.104C1101.71 251.059 1107.95 255.121 1108 259.25C1112.13 259.206 1120.32 252.924 1139.04 265.111C1141.1 265.088 1147.23 258.828 1151.4 262.913C1155.55 264.933 1157.6 262.846 1159.71 266.953C1161.82 271.06 1163.9 273.102 1167.99 268.929C1172.07 264.755 1174.18 268.862 1178.27 264.689C1182.35 260.515 1184.44 262.558 1194.76 262.447L1200.96 262.38C1207.13 260.249 1219.45 253.923 1219.59 266.309L1227.85 266.22C1234.11 272.347 1266.92 251.348 1271.27 271.947C1281.64 275.965 1281.25 270.936 1287.45 270.87Z" fill="white"/>
<path d="M1287.45 270.87L1281.58 182.813L1276.53 106.981C1262.03 103.008 1271.54 104.708 1263.21 98.6033C1259.06 96.5833 1259.09 98.6477 1254.93 96.6277C1250.78 94.6077 1246.67 96.7165 1240.46 94.7187C1238.39 94.7409 1225.96 90.7452 1223.92 92.8319C1221.87 94.9185 1217.74 94.9629 1215.68 94.9851L1211.55 95.0295L1201.23 95.1405C1197.1 95.1849 1195.01 93.1426 1190.88 93.187L1180.56 93.298C1172.32 95.4513 1168.23 99.6245 1166.12 95.5179C1166.1 93.4535 1161.97 93.4978 1157.84 93.5422C1153.71 93.5866 1147.45 87.46 1130.93 87.6376C1128.87 87.6598 1124.76 89.7686 1124.74 87.7042C1122.65 85.662 1118.5 83.642 1116.43 83.6642C1114.35 81.622 1108.17 83.753 1104.05 83.7974C1101.98 83.8196 1097.87 85.9284 1097.87 85.9284C1079.31 88.1926 1091.68 85.995 1079.33 90.257C1077.27 90.2792 1073.16 92.388 1071.07 90.3458C1066.9 86.2614 1062.82 90.4346 1058.66 88.4146C1056.62 90.5012 1054.56 90.5234 1052.49 90.5456C1052.49 90.5456 1029.76 88.7254 1025.67 92.8986C1023.63 94.9852 1019.48 92.9652 1017.41 92.9874C982.354 97.4936 1000.87 91.1006 959.597 93.609L949.273 93.72C949.273 93.72 947.208 93.7422 945.165 95.8288L941.035 95.8732C938.948 93.831 938.971 95.8954 930.711 95.9842C926.559 93.9642 920.409 98.1596 914.215 98.2262C912.172 100.313 908.065 102.422 906 102.444C903.935 102.466 906.022 104.508 897.785 106.661C889.548 108.815 887.438 104.708 883.331 106.817C864.903 121.468 860.684 113.254 854.534 117.45C852.469 117.472 846.297 119.603 846.275 117.538C844.166 113.432 842.123 115.518 837.971 113.498C823.451 107.461 817.323 113.72 806.91 105.574C804.823 103.532 802.78 105.618 796.586 105.685C763.548 106.04 780.023 101.734 761.439 101.933C753.18 102.022 755.245 102 753.158 99.9578C749.028 100.002 742.789 95.9399 740.724 95.9621C738.659 95.9843 736.595 96.0065 734.508 93.9643C726.159 85.7955 724.183 94.0753 705.489 83.953C695.209 88.1929 693.122 86.1506 686.928 86.2172C678.668 86.306 682.776 84.1972 674.516 84.286C670.387 84.3304 672.429 82.2438 668.3 82.2882C660.04 82.377 666.191 78.1816 657.931 78.2704C657.909 76.206 647.629 80.4458 647.629 80.4458L639.37 80.5346C631.133 82.6878 622.829 78.6478 614.592 80.801L602.203 80.9342C600.138 80.9564 589.836 83.1318 587.771 83.154C581.577 83.2206 525.782 79.6912 503.091 81.9998C494.854 84.153 505.178 84.042 482.464 84.2862C478.335 84.3306 476.248 82.2884 472.14 84.3972L465.946 84.4638L461.816 84.5082C455.599 82.5103 453.579 86.6614 443.233 84.708C439.103 84.7524 441.19 86.7946 437.06 86.839L418.477 87.0388L412.282 87.1054C408.153 87.1498 401.98 89.2808 395.786 89.3474C385.462 89.4584 389.525 83.2207 362.726 87.6382C354.467 87.727 329.6 79.7357 321.385 83.9533C317.256 83.9977 313.148 86.1065 308.996 84.0865C304.844 82.0665 296.652 88.3485 286.305 86.3951C284.24 86.4173 282.198 88.5039 275.981 86.5061L259.462 86.6837C257.398 86.7059 255.333 86.7281 253.29 88.8147L251.225 88.8369C242.966 88.9257 243.01 93.0546 238.881 93.099C226.492 93.2322 230.599 91.1233 214.058 89.2365C211.993 89.2587 195.43 85.3075 193.365 85.3297C187.127 81.2675 166.478 81.4895 164.391 79.4473C160.284 81.5561 158.174 77.4494 154.045 77.4938C154.045 77.4938 152.002 79.5804 149.915 77.5382C143.676 73.476 131.287 73.6092 129.245 75.6958C125.137 77.8046 87.9036 72.011 81.7091 72.0776C75.5368 74.2086 77.6016 74.1864 73.472 74.2308C46.5847 70.3906 -5.317 67.333 -9.44667 67.3774L-4.29562 144.706L-6.52736 211C-2.39769 210.956 6.86384 217.408 13.0805 219.406C17.2546 223.49 21.362 221.381 23.4491 223.424C25.5361 225.466 25.5361 225.466 29.6657 225.421L29.6658 225.421C33.7954 225.377 35.8381 223.29 39.9677 223.246L42.0326 223.224C46.1844 225.244 48.2271 223.157 50.2919 223.135L56.4865 223.068C70.9181 220.849 62.7032 225.066 95.7627 226.775C97.8276 226.753 101.979 228.773 108.152 226.642C110.194 224.556 116.411 226.553 118.498 228.596C120.563 228.573 120.607 232.702 126.802 232.636C128.867 232.613 139.213 234.567 143.32 232.458C145.363 230.371 147.45 232.414 151.58 232.369C153.622 230.283 157.774 232.303 161.904 232.258C163.947 230.172 170.163 232.169 170.163 232.169C174.293 232.125 176.38 234.167 182.597 236.165C186.704 234.056 188.791 236.098 188.813 238.163C207.486 246.221 195.008 238.096 207.441 242.092C209.506 242.07 213.614 239.961 217.765 241.981C219.83 241.959 232.241 243.89 232.241 243.89C234.306 243.868 238.414 241.759 242.566 243.779L248.76 243.712L250.825 243.69C261.127 241.515 281.864 249.55 285.972 247.442L288.036 247.419C290.101 247.397 294.253 249.417 296.318 249.395C298.405 251.437 300.492 253.479 314.924 251.26L327.313 251.126C354.156 250.838 333.507 251.06 350.004 248.818C360.328 248.707 360.306 246.642 366.522 248.64C399.449 237.963 395.363 242.136 415.99 239.85C415.967 237.785 418.054 239.827 420.097 237.741L430.421 237.63C432.486 237.608 436.66 241.692 438.725 241.67L451.114 241.537C455.244 241.492 455.221 239.428 459.351 239.384C471.74 239.25 461.394 237.297 479.977 237.097C479.977 237.097 479.955 235.033 488.214 234.944L500.603 234.811C510.95 236.764 523.317 234.566 525.381 234.544L537.77 234.411C541.9 234.367 548.117 236.365 556.376 236.276C579.134 240.16 566.7 236.165 593.565 237.941C597.695 237.896 599.782 239.938 599.782 239.938C601.847 239.916 605.977 239.872 608.064 241.914C610.151 243.956 614.28 243.912 618.41 243.867C630.821 245.799 630.843 247.863 632.886 245.776L639.081 245.71C639.081 245.71 645.253 243.579 653.49 241.426C655.555 241.403 663.836 243.379 665.901 243.357L667.966 243.335C672.073 241.226 674.183 245.332 676.203 241.181C680.288 237.008 680.333 241.137 684.463 241.093C703.002 236.764 694.787 240.982 700.981 240.915C707.176 240.848 711.394 249.062 713.437 246.975C717.544 244.866 719.587 242.78 721.674 244.822C723.739 244.8 723.717 242.735 727.868 244.755C738.237 248.773 736.128 244.666 742.367 248.729C750.67 252.769 746.541 252.813 752.713 250.682L754.756 248.595L756.821 248.573L763.015 248.507C765.08 248.484 765.102 250.549 767.167 250.527L771.297 250.482C773.361 250.46 773.428 256.653 779.6 254.522L781.665 254.5C783.752 256.542 789.858 248.218 791.989 254.389C798.162 252.258 798.162 252.258 800.249 254.3C800.249 254.3 806.465 256.298 808.508 254.212L812.638 254.167C816.745 252.058 818.832 254.101 822.962 254.056C824.982 249.905 831.177 249.839 833.264 251.881C839.436 249.75 839.414 247.685 841.501 249.728C843.566 249.705 847.673 247.596 849.738 247.574C855.888 243.379 855.933 247.508 860.04 245.399L864.17 245.354L866.235 245.332C870.386 247.352 870.453 253.546 889.037 253.346C901.426 253.213 893.188 255.366 901.448 255.277C903.468 251.126 913.792 251.015 920.031 255.077C922.096 255.055 922.074 252.991 924.139 252.968C926.204 252.946 928.246 250.86 930.311 250.837C936.483 248.706 936.528 252.835 940.635 250.726C942.7 250.704 944.787 252.746 946.83 250.66C948.85 246.509 953.024 250.593 957.109 246.42C963.26 242.224 981.865 244.089 990.125 244C994.254 243.956 992.212 246.043 998.428 248.04C1002.58 250.06 1002.58 250.06 1006.71 250.016C1012.88 247.885 1010.86 252.036 1014.97 249.927C1019.08 247.818 1023.21 247.774 1027.33 247.73C1029.4 247.707 1031.46 247.685 1031.49 249.75C1039.72 247.596 1052.14 249.528 1054.2 249.505C1056.29 251.548 1060.39 249.439 1064.52 249.394C1068.65 249.35 1068.61 245.221 1078.96 247.175C1081.02 247.152 1078.98 249.239 1081.06 251.281C1083.13 251.259 1081.09 253.346 1087.26 251.215L1097.58 251.104C1101.71 251.059 1107.95 255.121 1108 259.25C1112.13 259.206 1120.32 252.924 1139.04 265.111C1141.1 265.088 1147.23 258.828 1151.4 262.913C1155.55 264.933 1157.6 262.846 1159.71 266.953C1161.82 271.06 1163.9 273.102 1167.99 268.929C1172.07 264.755 1174.18 268.862 1178.27 264.689C1182.35 260.515 1184.44 262.558 1194.76 262.447L1200.96 262.38C1207.13 260.249 1219.45 253.923 1219.59 266.309L1227.85 266.22C1234.11 272.347 1266.92 251.348 1271.27 271.947C1281.64 275.965 1281.25 270.936 1287.45 270.87Z" fill="#272727" fill-opacity="0.3"/>
<path d="M1287.45 265.41L1281.58 177.354L1276.53 101.522C1262.03 97.5484 1271.54 99.2482 1263.21 93.1438C1259.06 91.1238 1259.08 93.1882 1254.93 91.1681C1250.78 89.1481 1246.67 91.257 1240.46 89.2591C1238.39 89.2813 1225.96 85.2857 1223.92 87.3723C1221.87 89.4589 1217.74 89.5033 1215.68 89.5255L1211.55 89.5699L1201.23 89.6809C1197.1 89.7253 1195.01 87.6831 1190.88 87.7275L1180.55 87.8385C1172.32 89.9917 1168.23 94.1649 1166.12 90.0583C1166.1 87.9939 1161.97 88.0383 1157.84 88.0827C1153.71 88.1271 1147.45 82.0005 1130.93 82.178C1128.87 82.2002 1124.76 84.3091 1124.74 82.2446C1122.65 80.2024 1118.5 78.1824 1116.43 78.2046C1114.35 76.1624 1108.17 78.2934 1104.04 78.3378C1101.98 78.36 1097.87 80.4688 1097.87 80.4688C1079.31 82.733 1091.68 80.5354 1079.33 84.7975C1077.27 84.8197 1073.16 86.9285 1071.07 84.8863C1066.9 80.8018 1062.81 84.975 1058.66 82.955C1056.62 85.0416 1054.56 85.0639 1052.49 85.0861C1052.49 85.0861 1029.76 83.2658 1025.67 87.439C1023.63 89.5257 1019.48 87.5056 1017.41 87.5278C982.353 92.034 1000.87 85.641 959.597 88.1494L949.273 88.2604C949.273 88.2604 947.208 88.2826 945.165 90.3692L941.036 90.4136C938.949 88.3714 938.971 90.4358 930.712 90.5246C926.56 88.5046 920.41 92.7001 914.215 92.7667C912.172 94.8533 908.065 96.9621 906 96.9843C903.935 97.0065 906.022 99.0487 897.785 101.202C889.548 103.355 887.439 99.2485 883.331 101.357C864.903 116.008 860.685 107.795 854.535 111.99C852.47 112.012 846.298 114.143 846.275 112.079C844.166 107.972 842.124 110.059 837.972 108.039C823.451 102.001 817.323 108.261 806.91 100.114C804.823 98.072 802.781 100.159 796.586 100.225C763.549 100.58 780.023 96.274 761.44 96.4738C753.18 96.5626 755.245 96.5404 753.158 94.4982C749.028 94.5426 742.789 90.4804 740.725 90.5026C738.66 90.5248 736.595 90.547 734.508 88.5048C726.16 80.3359 724.184 88.6158 705.489 78.4935C695.21 82.7333 693.122 80.6911 686.928 80.7577C678.669 80.8465 682.776 78.7377 674.517 78.8265C670.387 78.8709 672.43 76.7843 668.3 76.8287C660.041 76.9175 666.191 72.722 657.932 72.8108C657.909 70.7464 647.63 74.9862 647.63 74.9862L639.37 75.075C631.133 77.2283 622.829 73.1882 614.592 75.3414L602.203 75.4746C600.138 75.4968 589.836 77.6722 587.772 77.6944C581.577 77.761 525.782 74.2316 503.091 76.5402C494.854 78.6934 505.177 78.5824 482.464 78.8266C478.335 78.871 476.248 76.8288 472.14 78.9376L465.946 79.0042L461.816 79.0486C455.599 77.0508 453.579 81.2018 443.232 79.2484C439.103 79.2928 441.19 81.335 437.06 81.3794L418.477 81.5792L412.282 81.6458C408.152 81.6902 401.98 83.8212 395.786 83.8878C385.461 83.9988 389.525 77.7612 362.726 82.1786C354.467 82.2674 329.6 74.2762 321.385 78.4938C317.255 78.5382 313.148 80.647 308.996 78.627C304.844 76.607 296.651 82.889 286.305 80.9356C284.24 80.9578 282.198 83.0444 275.981 81.0466L259.462 81.2242C257.397 81.2464 255.332 81.2686 253.29 83.3552L251.225 83.3774C242.966 83.4662 243.01 87.595 238.88 87.6394C226.491 87.7726 230.599 85.6638 214.058 83.777C211.993 83.7992 195.43 79.8479 193.365 79.8701C187.126 75.8079 166.478 76.0299 164.391 73.9877C160.284 76.0965 158.174 71.9899 154.045 72.0343C154.045 72.0343 152.002 74.1209 149.915 72.0787C143.676 68.0165 131.287 68.1497 129.244 70.2363C125.137 72.3451 87.9035 66.5514 81.709 66.618C75.5367 68.749 77.6015 68.7268 73.4718 68.7712C46.5846 64.931 -5.31712 61.8735 -9.44679 61.9179L-9.44677 138.5L-9.44857 206C-5.3189 205.956 6.86372 211.948 13.0804 213.946C17.2545 218.031 21.3619 215.922 23.449 217.964C25.536 220.006 25.536 220.006 29.6656 219.962L29.6657 219.962C33.7953 219.917 35.838 217.831 39.9676 217.786L42.0325 217.764C46.1843 219.784 48.227 217.698 50.2918 217.675L56.4863 217.609C70.918 215.389 62.7031 219.607 95.7626 221.316C97.8274 221.294 101.979 223.314 108.152 221.183C110.194 219.096 116.411 221.094 118.498 223.136C120.563 223.114 120.607 227.243 126.802 227.176C128.866 227.154 139.213 229.107 143.32 226.998C145.363 224.912 147.45 226.954 151.58 226.91C153.622 224.823 157.774 226.843 161.904 226.799C163.946 224.712 170.163 226.71 170.163 226.71C174.293 226.665 176.38 228.708 182.597 230.705C186.704 228.597 188.791 230.639 188.813 232.703C207.486 240.761 195.008 232.637 207.441 236.632C209.506 236.61 213.613 234.501 217.765 236.521C219.83 236.499 232.241 238.43 232.241 238.43C234.306 238.408 238.414 236.299 242.566 238.319L248.76 238.253L250.825 238.231C261.127 236.055 281.864 244.091 285.971 241.982L288.036 241.96C290.101 241.938 294.253 243.958 296.318 243.935C298.405 245.978 300.492 248.02 314.923 245.8L327.312 245.667C354.155 245.378 333.507 245.6 350.003 243.358C360.328 243.247 360.305 241.183 366.522 243.181C399.448 232.503 395.363 236.677 415.989 234.39C415.967 232.326 418.054 234.368 420.097 232.281L430.421 232.17C432.486 232.148 436.66 236.233 438.725 236.21L451.114 236.077C455.243 236.033 455.221 233.968 459.351 233.924C471.74 233.791 461.394 231.837 479.977 231.638C479.977 231.638 479.955 229.573 488.214 229.484L500.603 229.351C510.95 231.305 523.317 229.107 525.382 229.085L537.771 228.952C541.901 228.907 548.117 230.905 556.377 230.816C579.134 234.701 566.701 230.705 593.566 232.481C597.695 232.437 599.782 234.479 599.782 234.479C601.847 234.457 605.977 234.412 608.064 236.454C610.151 238.497 614.281 238.452 618.41 238.408C630.822 240.339 630.844 242.403 632.886 240.317L639.081 240.25C639.081 240.25 645.253 238.119 653.49 235.966C655.555 235.944 663.837 237.919 665.902 237.897L667.966 237.875C672.074 235.766 674.183 239.873 676.204 235.722C680.289 231.549 680.333 235.677 684.463 235.633C703.002 231.304 694.787 235.522 700.982 235.455C707.176 235.389 711.395 243.602 713.437 241.515C717.545 239.407 719.587 237.32 721.674 239.362C723.739 239.34 723.717 237.276 727.869 239.296C738.237 243.313 736.128 239.207 742.367 243.269C750.671 247.309 746.541 247.354 752.713 245.223L754.756 243.136L756.821 243.114L763.015 243.047C765.08 243.025 765.103 245.089 767.167 245.067L771.297 245.023C773.362 245.001 773.428 251.194 779.601 249.063L781.665 249.041C783.753 251.083 789.858 242.759 791.99 248.93C798.162 246.799 798.162 246.799 800.249 248.841C800.249 248.841 806.466 250.839 808.508 248.752L812.638 248.708C816.745 246.599 818.833 248.641 822.962 248.597C824.983 244.446 831.177 244.379 833.264 246.421C839.436 244.29 839.414 242.226 841.501 244.268C843.566 244.246 847.674 242.137 849.739 242.115C855.889 237.919 855.933 242.048 860.04 239.939L864.17 239.895L866.235 239.873C870.387 241.893 870.453 248.086 889.037 247.886C901.426 247.753 893.189 249.906 901.448 249.817C903.469 245.666 913.793 245.555 920.032 249.618C922.096 249.595 922.074 247.531 924.139 247.509C926.204 247.487 928.247 245.4 930.311 245.378C936.484 243.247 936.528 247.376 940.636 245.267C942.7 245.245 944.787 247.287 946.83 245.2C948.85 241.049 953.025 245.134 957.11 240.96C963.26 236.765 981.866 238.63 990.125 238.541C994.255 238.496 992.212 240.583 998.429 242.581C1002.58 244.601 1002.58 244.601 1006.71 244.556C1012.88 242.425 1010.86 246.576 1014.97 244.468C1019.08 242.359 1023.2 242.314 1027.33 242.27C1029.4 242.248 1031.46 242.226 1031.49 244.29C1039.72 242.137 1052.13 244.068 1054.2 244.046C1056.29 246.088 1060.39 243.979 1064.52 243.935C1068.65 243.89 1068.61 239.762 1078.96 241.715C1081.02 241.693 1078.98 243.779 1081.06 245.822C1083.13 245.799 1081.09 247.886 1087.26 245.755L1097.58 245.644C1101.71 245.6 1107.95 249.662 1108 253.791C1112.13 253.746 1120.32 247.464 1139.04 259.651C1141.1 259.629 1147.23 253.369 1151.4 257.453C1155.55 259.473 1157.6 257.387 1159.71 261.493C1161.82 265.6 1163.9 267.642 1167.99 263.469C1172.07 259.296 1174.18 263.402 1178.27 259.229C1182.35 255.056 1184.44 257.098 1194.76 256.987L1200.96 256.921C1207.13 254.79 1219.45 248.463 1219.59 260.85L1227.85 260.761C1234.11 266.887 1266.92 245.888 1271.27 266.488C1281.64 270.506 1281.25 265.477 1287.45 265.41Z" fill="#40DCFF"/>
</g>
<defs>
<clipPath id="clip0">
<rect width="1280" height="311" fill="white"/>
</clipPath>
</defs>
</svg>
