<svg width="1280" height="269" viewBox="0 0 1280 269" fill="none" xmlns="http://www.w3.org/2000/svg">
<path fill-rule="evenodd" clip-rule="evenodd" d="M1280 0H2.67029e-05V101.507C-0.018034 101.512 -0.0361321 101.517 -0.0542678 101.522L-5.10624 177.354L-10.9727 265.41C-8.71868 265.435 -7.33666 266.116 -5.99094 266.779C-3.6383 267.939 -1.39661 269.044 5.19919 266.488C7.92749 253.573 21.8446 257.009 33.391 259.861C40.261 261.557 46.2917 263.046 48.6273 260.761L56.8866 260.85C57.0042 249.906 66.6362 253.569 73.1355 256.041C73.9927 256.367 74.7953 256.672 75.5145 256.921L81.7091 256.987C84.7986 257.02 87.1505 256.861 89.0391 256.733C93.4613 256.433 95.3427 256.305 98.2054 259.229C100.248 261.316 101.797 261.333 103.345 261.349C104.894 261.366 106.443 261.382 108.485 263.469C112.571 267.642 114.658 265.6 116.767 261.493C118.07 258.955 119.348 258.783 121.115 258.545C122.206 258.397 123.485 258.225 125.07 257.453C128.003 254.584 131.899 256.82 134.674 258.411C135.849 259.086 136.823 259.644 137.437 259.651C152.471 249.862 160.715 251.989 165.518 253.228C166.694 253.532 167.664 253.782 168.476 253.791C168.521 249.662 174.76 245.6 178.889 245.644L189.213 245.755C193.328 247.176 193.792 246.722 194.256 246.268C194.488 246.041 194.72 245.814 195.408 245.822C196.452 244.801 196.463 243.768 196.471 242.994C196.479 242.22 196.485 241.704 197.517 241.715C204.234 240.447 206.572 241.742 208.515 242.819C209.565 243.401 210.5 243.919 211.949 243.935C213.412 243.951 214.872 244.225 216.241 244.483C218.735 244.952 220.925 245.365 222.273 244.046C222.712 244.051 223.619 243.967 224.855 243.853C229.429 243.431 238.501 242.595 244.986 244.29C245.008 242.226 247.073 242.248 249.138 242.27C253.268 242.314 257.395 242.359 261.503 244.468C263.427 245.455 264.006 245.07 264.713 244.6C265.515 244.066 266.481 243.424 269.763 244.556C273.892 244.601 273.892 244.601 278.043 242.581L278.044 242.581C281.152 241.582 282.196 240.561 282.978 239.795C283.761 239.029 284.283 238.519 286.348 238.541C288.183 238.561 290.529 238.484 293.136 238.399C302.261 238.1 314.579 237.697 319.363 240.96C321.405 243.047 323.47 243.069 325.277 243.089C327.084 243.108 328.632 243.125 329.643 245.2C331.004 246.591 332.386 246.147 333.767 245.703C334.458 245.481 335.149 245.259 335.837 245.267C337.787 246.268 338.822 245.863 340.031 245.39C341.368 244.866 342.92 244.259 346.161 245.378C347.194 245.389 348.221 245.916 349.247 246.443C350.274 246.971 351.301 247.498 352.334 247.509C353.366 247.52 353.877 248.042 354.387 248.563C354.898 249.085 355.409 249.607 356.441 249.618C362.68 245.555 373.004 245.666 375.025 249.817C378.737 249.857 379.117 249.444 379.534 248.99C380.046 248.433 380.616 247.813 387.436 247.886C401.373 248.036 404.895 244.59 407.537 242.005C408.417 241.144 409.2 240.378 410.238 239.873L412.303 239.895L416.432 239.939C418.176 240.834 419.187 240.606 420.244 240.367C421.677 240.043 423.194 239.7 426.734 242.115C427.767 242.126 429.31 242.659 430.853 243.191C432.396 243.724 433.939 244.257 434.971 244.268C436.239 243.027 436.729 243.302 438.302 244.188C439.318 244.759 440.787 245.585 443.209 246.421C445.296 244.379 451.49 244.446 453.51 248.597C454.973 248.612 456.18 248.366 457.311 248.136C459.372 247.715 461.182 247.346 463.835 248.708L467.964 248.752C470.007 250.839 476.224 248.841 476.224 248.841C478.311 246.799 478.311 246.799 484.483 248.93C485.766 245.214 488.49 246.753 490.91 248.121C492.51 249.024 493.977 249.853 494.807 249.041L496.872 249.063C500.921 250.461 502.342 248.277 503.424 246.615C503.992 245.743 504.465 245.015 505.176 245.023L509.305 245.067C510.338 245.078 510.86 244.568 511.381 244.057C511.903 243.547 512.425 243.036 513.457 243.047L519.652 243.114L521.717 243.136L523.759 245.223C526.48 246.162 527.199 246.679 527.864 246.617C528.707 246.538 529.463 245.528 534.106 243.269C537.225 241.238 538.257 241.249 539.806 241.266C541.355 241.282 543.42 241.305 548.604 239.296C551.372 237.949 552.285 238.418 553.197 238.886C553.654 239.121 554.11 239.355 554.798 239.362C556.428 237.768 558.03 238.69 560.61 240.175C561.334 240.592 562.135 241.053 563.035 241.515C563.97 242.47 565.359 241.269 567.185 239.692C569.351 237.821 572.13 235.419 575.491 235.455C577.639 235.479 578.054 234.987 578.453 234.515C579.205 233.625 579.898 232.805 592.01 235.633C593.587 235.65 594.568 235.058 595.407 234.553C596.763 233.735 597.744 233.143 600.269 235.722C601.389 238.023 602.536 237.787 604.036 237.478C605.241 237.23 606.675 236.935 608.506 237.875L610.571 237.897C611.603 237.908 614.19 237.42 616.777 236.932C619.363 236.443 621.95 235.955 622.982 235.966C631.219 238.119 637.392 240.25 637.392 240.25L643.586 240.317C644.739 241.494 645.248 241.35 647.704 240.653C649.599 240.116 652.655 239.249 658.062 238.408C662.192 238.452 666.322 238.497 668.409 236.454C670.496 234.412 674.625 234.457 676.69 234.479C676.69 234.479 678.777 232.437 682.907 232.481C695.256 231.665 699.302 232.068 702.278 232.365C705.777 232.713 707.8 232.915 720.096 230.816C724.934 230.868 729.072 230.204 732.499 229.654C734.923 229.265 736.991 228.933 738.702 228.952L751.091 229.085C751.516 229.089 752.379 229.186 753.571 229.32C758.165 229.836 767.654 230.902 775.869 229.351L788.259 229.484C796.518 229.573 796.496 231.638 796.496 231.638C806.726 231.747 808.189 232.389 809.504 232.966C810.578 233.436 811.553 233.864 817.122 233.924C819.187 233.946 820.214 234.473 821.24 235.001C822.267 235.528 823.294 236.055 825.359 236.077L837.748 236.21C838.78 236.221 840.34 235.206 841.9 234.19C843.459 233.175 845.019 232.159 846.052 232.17L856.376 232.281C857.397 233.325 858.43 233.336 859.204 233.344C859.978 233.352 860.494 233.358 860.483 234.39C866.553 235.063 870.482 235.176 873.845 235.273C881.91 235.506 886.713 235.645 909.951 243.181C913.6 242.008 915.1 242.235 917.805 242.645C919.708 242.933 922.206 243.312 926.469 243.358C934.178 244.406 933.776 244.915 933.898 245.191C934.038 245.504 934.861 245.513 949.16 245.667L961.549 245.8C975.981 248.02 978.068 245.978 980.155 243.935C981.187 243.946 982.741 243.447 984.296 242.948C985.85 242.448 987.404 241.949 988.436 241.96L990.501 241.982C992.36 242.936 997.622 241.814 1003.78 240.5C1011.24 238.91 1020.01 237.039 1025.65 238.23L1027.71 238.253L1033.91 238.319C1036.89 236.866 1039.86 237.549 1042.05 238.056C1042.91 238.253 1043.65 238.424 1044.23 238.43C1044.23 238.43 1056.64 236.499 1058.71 236.521C1061.69 235.068 1064.66 235.751 1066.85 236.258C1067.71 236.455 1068.45 236.626 1069.03 236.632C1074.48 234.88 1075.15 235.458 1075.74 235.981C1076.51 236.65 1077.17 237.228 1087.66 232.703C1087.68 230.639 1089.77 228.597 1093.88 230.705C1096.25 229.942 1098.02 229.173 1099.54 228.515C1101.99 227.452 1103.76 226.682 1106.31 226.71C1106.31 226.71 1112.53 224.712 1114.57 226.799C1116.03 226.814 1117.5 226.571 1118.87 226.343C1121.38 225.927 1123.57 225.562 1124.89 226.91C1126.47 226.926 1127.75 226.639 1128.84 226.393C1130.61 225.996 1131.89 225.709 1133.15 226.998C1136.28 228.604 1143.03 227.854 1146.98 227.415C1148.21 227.278 1149.18 227.171 1149.67 227.176C1153.6 227.218 1155.05 225.574 1156.12 224.371C1156.73 223.676 1157.22 223.128 1157.97 223.136C1160.06 221.094 1166.28 219.096 1168.32 221.182C1172.87 222.751 1176.31 222.07 1178.64 221.611C1179.48 221.446 1180.17 221.31 1180.71 221.316C1197.79 220.433 1203.85 218.88 1207.71 217.892C1211.33 216.967 1213.01 216.536 1219.99 217.609L1226.18 217.675C1226.81 217.682 1227.43 217.878 1228.11 218.092C1229.68 218.585 1231.55 219.172 1234.44 217.764L1236.51 217.786C1238.57 217.808 1240.11 218.341 1241.66 218.874C1243.2 219.407 1244.74 219.939 1246.81 219.962C1249.18 219.987 1250.19 219.998 1251.02 219.614C1251.63 219.331 1252.14 218.832 1253.02 217.964C1253.89 217.118 1255.1 216.984 1256.52 216.828C1258.18 216.644 1260.13 216.429 1262.14 215H1280V207.463C1282.49 206.581 1284.61 205.986 1285.92 206L1285.92 138.5V61.9178C1285.22 61.9102 1283.12 61.9928 1280 62.1542V0Z" fill="#1565E5"/>
</svg>
